G04 #@! TF.GenerationSoftware,KiCad,Pcbnew,(5.0.1-3-g963ef8bb5)*
G04 #@! TF.CreationDate,2018-12-13T09:38:25+09:00*
G04 #@! TF.ProjectId,guitarif,67756974617269662E6B696361645F70,rev?*
G04 #@! TF.SameCoordinates,Original*
G04 #@! TF.FileFunction,Legend,Top*
G04 #@! TF.FilePolarity,Positive*
%FSLAX46Y46*%
G04 Gerber Fmt 4.6, Leading zero omitted, Abs format (unit mm)*
G04 Created by KiCad (PCBNEW (5.0.1-3-g963ef8bb5)) date 2018 December 13, Thursday 09:38:25*
%MOMM*%
%LPD*%
G01*
G04 APERTURE LIST*
%ADD10C,0.175000*%
%ADD11C,0.300000*%
%ADD12C,0.120000*%
%ADD13C,0.010000*%
%ADD14C,0.150000*%
G04 APERTURE END LIST*
D10*
X203283333Y-61216666D02*
X203316666Y-61116666D01*
X203316666Y-60950000D01*
X203283333Y-60883333D01*
X203250000Y-60850000D01*
X203183333Y-60816666D01*
X203116666Y-60816666D01*
X203050000Y-60850000D01*
X203016666Y-60883333D01*
X202983333Y-60950000D01*
X202950000Y-61083333D01*
X202916666Y-61150000D01*
X202883333Y-61183333D01*
X202816666Y-61216666D01*
X202750000Y-61216666D01*
X202683333Y-61183333D01*
X202650000Y-61150000D01*
X202616666Y-61083333D01*
X202616666Y-60916666D01*
X202650000Y-60816666D01*
X203316666Y-60516666D02*
X202616666Y-60516666D01*
X202650000Y-59816666D02*
X202616666Y-59883333D01*
X202616666Y-59983333D01*
X202650000Y-60083333D01*
X202716666Y-60150000D01*
X202783333Y-60183333D01*
X202916666Y-60216666D01*
X203016666Y-60216666D01*
X203150000Y-60183333D01*
X203216666Y-60150000D01*
X203283333Y-60083333D01*
X203316666Y-59983333D01*
X203316666Y-59916666D01*
X203283333Y-59816666D01*
X203250000Y-59783333D01*
X203016666Y-59783333D01*
X203016666Y-59916666D01*
X165483333Y-61016666D02*
X165516666Y-60916666D01*
X165516666Y-60750000D01*
X165483333Y-60683333D01*
X165450000Y-60650000D01*
X165383333Y-60616666D01*
X165316666Y-60616666D01*
X165250000Y-60650000D01*
X165216666Y-60683333D01*
X165183333Y-60750000D01*
X165150000Y-60883333D01*
X165116666Y-60950000D01*
X165083333Y-60983333D01*
X165016666Y-61016666D01*
X164950000Y-61016666D01*
X164883333Y-60983333D01*
X164850000Y-60950000D01*
X164816666Y-60883333D01*
X164816666Y-60716666D01*
X164850000Y-60616666D01*
X165516666Y-60316666D02*
X164816666Y-60316666D01*
X164850000Y-59616666D02*
X164816666Y-59683333D01*
X164816666Y-59783333D01*
X164850000Y-59883333D01*
X164916666Y-59950000D01*
X164983333Y-59983333D01*
X165116666Y-60016666D01*
X165216666Y-60016666D01*
X165350000Y-59983333D01*
X165416666Y-59950000D01*
X165483333Y-59883333D01*
X165516666Y-59783333D01*
X165516666Y-59716666D01*
X165483333Y-59616666D01*
X165450000Y-59583333D01*
X165216666Y-59583333D01*
X165216666Y-59716666D01*
X204933333Y-68416666D02*
X204933333Y-67716666D01*
X205266666Y-68416666D02*
X205266666Y-67716666D01*
X205666666Y-68416666D01*
X205666666Y-67716666D01*
X166600000Y-67616666D02*
X166733333Y-67616666D01*
X166800000Y-67650000D01*
X166866666Y-67716666D01*
X166900000Y-67850000D01*
X166900000Y-68083333D01*
X166866666Y-68216666D01*
X166800000Y-68283333D01*
X166733333Y-68316666D01*
X166600000Y-68316666D01*
X166533333Y-68283333D01*
X166466666Y-68216666D01*
X166433333Y-68083333D01*
X166433333Y-67850000D01*
X166466666Y-67716666D01*
X166533333Y-67650000D01*
X166600000Y-67616666D01*
X167200000Y-67616666D02*
X167200000Y-68183333D01*
X167233333Y-68250000D01*
X167266666Y-68283333D01*
X167333333Y-68316666D01*
X167466666Y-68316666D01*
X167533333Y-68283333D01*
X167566666Y-68250000D01*
X167600000Y-68183333D01*
X167600000Y-67616666D01*
X167833333Y-67616666D02*
X168233333Y-67616666D01*
X168033333Y-68316666D02*
X168033333Y-67616666D01*
X185633333Y-91316666D02*
X186066666Y-91316666D01*
X185833333Y-91583333D01*
X185933333Y-91583333D01*
X186000000Y-91616666D01*
X186033333Y-91650000D01*
X186066666Y-91716666D01*
X186066666Y-91883333D01*
X186033333Y-91950000D01*
X186000000Y-91983333D01*
X185933333Y-92016666D01*
X185733333Y-92016666D01*
X185666666Y-91983333D01*
X185633333Y-91950000D01*
X186266666Y-91316666D02*
X186500000Y-92016666D01*
X186733333Y-91316666D01*
X186900000Y-91316666D02*
X187333333Y-91316666D01*
X187100000Y-91583333D01*
X187200000Y-91583333D01*
X187266666Y-91616666D01*
X187300000Y-91650000D01*
X187333333Y-91716666D01*
X187333333Y-91883333D01*
X187300000Y-91950000D01*
X187266666Y-91983333D01*
X187200000Y-92016666D01*
X187000000Y-92016666D01*
X186933333Y-91983333D01*
X186900000Y-91950000D01*
X183466666Y-91350000D02*
X183400000Y-91316666D01*
X183300000Y-91316666D01*
X183200000Y-91350000D01*
X183133333Y-91416666D01*
X183100000Y-91483333D01*
X183066666Y-91616666D01*
X183066666Y-91716666D01*
X183100000Y-91850000D01*
X183133333Y-91916666D01*
X183200000Y-91983333D01*
X183300000Y-92016666D01*
X183366666Y-92016666D01*
X183466666Y-91983333D01*
X183500000Y-91950000D01*
X183500000Y-91716666D01*
X183366666Y-91716666D01*
X183800000Y-92016666D02*
X183800000Y-91316666D01*
X184200000Y-92016666D01*
X184200000Y-91316666D01*
X184533333Y-92016666D02*
X184533333Y-91316666D01*
X184700000Y-91316666D01*
X184800000Y-91350000D01*
X184866666Y-91416666D01*
X184900000Y-91483333D01*
X184933333Y-91616666D01*
X184933333Y-91716666D01*
X184900000Y-91850000D01*
X184866666Y-91916666D01*
X184800000Y-91983333D01*
X184700000Y-92016666D01*
X184533333Y-92016666D01*
X180533333Y-91816666D02*
X180866666Y-91816666D01*
X180466666Y-92016666D02*
X180700000Y-91316666D01*
X180933333Y-92016666D01*
X181166666Y-92016666D02*
X181166666Y-91316666D01*
X181333333Y-91316666D01*
X181433333Y-91350000D01*
X181500000Y-91416666D01*
X181533333Y-91483333D01*
X181566666Y-91616666D01*
X181566666Y-91716666D01*
X181533333Y-91850000D01*
X181500000Y-91916666D01*
X181433333Y-91983333D01*
X181333333Y-92016666D01*
X181166666Y-92016666D01*
X182266666Y-91950000D02*
X182233333Y-91983333D01*
X182133333Y-92016666D01*
X182066666Y-92016666D01*
X181966666Y-91983333D01*
X181900000Y-91916666D01*
X181866666Y-91850000D01*
X181833333Y-91716666D01*
X181833333Y-91616666D01*
X181866666Y-91483333D01*
X181900000Y-91416666D01*
X181966666Y-91350000D01*
X182066666Y-91316666D01*
X182133333Y-91316666D01*
X182233333Y-91350000D01*
X182266666Y-91383333D01*
X177966666Y-92016666D02*
X177966666Y-91316666D01*
X178133333Y-91316666D01*
X178233333Y-91350000D01*
X178300000Y-91416666D01*
X178333333Y-91483333D01*
X178366666Y-91616666D01*
X178366666Y-91716666D01*
X178333333Y-91850000D01*
X178300000Y-91916666D01*
X178233333Y-91983333D01*
X178133333Y-92016666D01*
X177966666Y-92016666D01*
X178633333Y-91816666D02*
X178966666Y-91816666D01*
X178566666Y-92016666D02*
X178800000Y-91316666D01*
X179033333Y-92016666D01*
X179666666Y-91950000D02*
X179633333Y-91983333D01*
X179533333Y-92016666D01*
X179466666Y-92016666D01*
X179366666Y-91983333D01*
X179300000Y-91916666D01*
X179266666Y-91850000D01*
X179233333Y-91716666D01*
X179233333Y-91616666D01*
X179266666Y-91483333D01*
X179300000Y-91416666D01*
X179366666Y-91350000D01*
X179466666Y-91316666D01*
X179533333Y-91316666D01*
X179633333Y-91350000D01*
X179666666Y-91383333D01*
D11*
X167514285Y-85925000D02*
X167371428Y-85853571D01*
X167157142Y-85853571D01*
X166942857Y-85925000D01*
X166800000Y-86067857D01*
X166728571Y-86210714D01*
X166657142Y-86496428D01*
X166657142Y-86710714D01*
X166728571Y-86996428D01*
X166800000Y-87139285D01*
X166942857Y-87282142D01*
X167157142Y-87353571D01*
X167300000Y-87353571D01*
X167514285Y-87282142D01*
X167585714Y-87210714D01*
X167585714Y-86710714D01*
X167300000Y-86710714D01*
X168871428Y-86353571D02*
X168871428Y-87353571D01*
X168228571Y-86353571D02*
X168228571Y-87139285D01*
X168300000Y-87282142D01*
X168442857Y-87353571D01*
X168657142Y-87353571D01*
X168800000Y-87282142D01*
X168871428Y-87210714D01*
X169585714Y-87353571D02*
X169585714Y-86353571D01*
X169585714Y-85853571D02*
X169514285Y-85925000D01*
X169585714Y-85996428D01*
X169657142Y-85925000D01*
X169585714Y-85853571D01*
X169585714Y-85996428D01*
X170085714Y-86353571D02*
X170657142Y-86353571D01*
X170300000Y-85853571D02*
X170300000Y-87139285D01*
X170371428Y-87282142D01*
X170514285Y-87353571D01*
X170657142Y-87353571D01*
X171800000Y-87353571D02*
X171800000Y-86567857D01*
X171728571Y-86425000D01*
X171585714Y-86353571D01*
X171300000Y-86353571D01*
X171157142Y-86425000D01*
X171800000Y-87282142D02*
X171657142Y-87353571D01*
X171300000Y-87353571D01*
X171157142Y-87282142D01*
X171085714Y-87139285D01*
X171085714Y-86996428D01*
X171157142Y-86853571D01*
X171300000Y-86782142D01*
X171657142Y-86782142D01*
X171800000Y-86710714D01*
X172514285Y-87353571D02*
X172514285Y-86353571D01*
X172514285Y-86639285D02*
X172585714Y-86496428D01*
X172657142Y-86425000D01*
X172800000Y-86353571D01*
X172942857Y-86353571D01*
X174585714Y-87353571D02*
X174585714Y-85853571D01*
X175800000Y-86567857D02*
X175300000Y-86567857D01*
X175300000Y-87353571D02*
X175300000Y-85853571D01*
X176014285Y-85853571D01*
X167335714Y-88403571D02*
X167835714Y-89903571D01*
X168335714Y-88403571D01*
X169407142Y-89832142D02*
X169264285Y-89903571D01*
X168978571Y-89903571D01*
X168835714Y-89832142D01*
X168764285Y-89689285D01*
X168764285Y-89117857D01*
X168835714Y-88975000D01*
X168978571Y-88903571D01*
X169264285Y-88903571D01*
X169407142Y-88975000D01*
X169478571Y-89117857D01*
X169478571Y-89260714D01*
X168764285Y-89403571D01*
X170121428Y-89903571D02*
X170121428Y-88903571D01*
X170121428Y-89189285D02*
X170192857Y-89046428D01*
X170264285Y-88975000D01*
X170407142Y-88903571D01*
X170550000Y-88903571D01*
X172478571Y-88403571D02*
X172621428Y-88403571D01*
X172764285Y-88475000D01*
X172835714Y-88546428D01*
X172907142Y-88689285D01*
X172978571Y-88975000D01*
X172978571Y-89332142D01*
X172907142Y-89617857D01*
X172835714Y-89760714D01*
X172764285Y-89832142D01*
X172621428Y-89903571D01*
X172478571Y-89903571D01*
X172335714Y-89832142D01*
X172264285Y-89760714D01*
X172192857Y-89617857D01*
X172121428Y-89332142D01*
X172121428Y-88975000D01*
X172192857Y-88689285D01*
X172264285Y-88546428D01*
X172335714Y-88475000D01*
X172478571Y-88403571D01*
X173621428Y-89760714D02*
X173692857Y-89832142D01*
X173621428Y-89903571D01*
X173550000Y-89832142D01*
X173621428Y-89760714D01*
X173621428Y-89903571D01*
X175121428Y-89903571D02*
X174264285Y-89903571D01*
X174692857Y-89903571D02*
X174692857Y-88403571D01*
X174550000Y-88617857D01*
X174407142Y-88760714D01*
X174264285Y-88832142D01*
X167014285Y-91667857D02*
X167228571Y-91739285D01*
X167300000Y-91810714D01*
X167371428Y-91953571D01*
X167371428Y-92167857D01*
X167300000Y-92310714D01*
X167228571Y-92382142D01*
X167085714Y-92453571D01*
X166514285Y-92453571D01*
X166514285Y-90953571D01*
X167014285Y-90953571D01*
X167157142Y-91025000D01*
X167228571Y-91096428D01*
X167300000Y-91239285D01*
X167300000Y-91382142D01*
X167228571Y-91525000D01*
X167157142Y-91596428D01*
X167014285Y-91667857D01*
X166514285Y-91667857D01*
X167871428Y-91453571D02*
X168228571Y-92453571D01*
X168585714Y-91453571D02*
X168228571Y-92453571D01*
X168085714Y-92810714D01*
X168014285Y-92882142D01*
X167871428Y-92953571D01*
X170300000Y-92453571D02*
X170300000Y-90953571D01*
X170300000Y-91667857D02*
X171157142Y-91667857D01*
X171157142Y-92453571D02*
X171157142Y-90953571D01*
X171871428Y-92310714D02*
X171942857Y-92382142D01*
X171871428Y-92453571D01*
X171800000Y-92382142D01*
X171871428Y-92310714D01*
X171871428Y-92453571D01*
X172585714Y-92453571D02*
X172585714Y-90953571D01*
X173442857Y-92453571D02*
X172800000Y-91596428D01*
X173442857Y-90953571D02*
X172585714Y-91810714D01*
X174085714Y-92453571D02*
X174085714Y-91453571D01*
X174085714Y-90953571D02*
X174014285Y-91025000D01*
X174085714Y-91096428D01*
X174157142Y-91025000D01*
X174085714Y-90953571D01*
X174085714Y-91096428D01*
X174800000Y-92453571D02*
X174800000Y-91453571D01*
X174800000Y-91596428D02*
X174871428Y-91525000D01*
X175014285Y-91453571D01*
X175228571Y-91453571D01*
X175371428Y-91525000D01*
X175442857Y-91667857D01*
X175442857Y-92453571D01*
X175442857Y-91667857D02*
X175514285Y-91525000D01*
X175657142Y-91453571D01*
X175871428Y-91453571D01*
X176014285Y-91525000D01*
X176085714Y-91667857D01*
X176085714Y-92453571D01*
X165835714Y-95003571D02*
X165835714Y-93503571D01*
X166192857Y-93503571D01*
X166407142Y-93575000D01*
X166550000Y-93717857D01*
X166621428Y-93860714D01*
X166692857Y-94146428D01*
X166692857Y-94360714D01*
X166621428Y-94646428D01*
X166550000Y-94789285D01*
X166407142Y-94932142D01*
X166192857Y-95003571D01*
X165835714Y-95003571D01*
X167907142Y-94932142D02*
X167764285Y-95003571D01*
X167478571Y-95003571D01*
X167335714Y-94932142D01*
X167264285Y-94789285D01*
X167264285Y-94217857D01*
X167335714Y-94075000D01*
X167478571Y-94003571D01*
X167764285Y-94003571D01*
X167907142Y-94075000D01*
X167978571Y-94217857D01*
X167978571Y-94360714D01*
X167264285Y-94503571D01*
X169264285Y-94932142D02*
X169121428Y-95003571D01*
X168835714Y-95003571D01*
X168692857Y-94932142D01*
X168621428Y-94860714D01*
X168550000Y-94717857D01*
X168550000Y-94289285D01*
X168621428Y-94146428D01*
X168692857Y-94075000D01*
X168835714Y-94003571D01*
X169121428Y-94003571D01*
X169264285Y-94075000D01*
X169978571Y-94932142D02*
X169978571Y-95003571D01*
X169907142Y-95146428D01*
X169835714Y-95217857D01*
X171692857Y-93646428D02*
X171764285Y-93575000D01*
X171907142Y-93503571D01*
X172264285Y-93503571D01*
X172407142Y-93575000D01*
X172478571Y-93646428D01*
X172550000Y-93789285D01*
X172550000Y-93932142D01*
X172478571Y-94146428D01*
X171621428Y-95003571D01*
X172550000Y-95003571D01*
X173478571Y-93503571D02*
X173621428Y-93503571D01*
X173764285Y-93575000D01*
X173835714Y-93646428D01*
X173907142Y-93789285D01*
X173978571Y-94075000D01*
X173978571Y-94432142D01*
X173907142Y-94717857D01*
X173835714Y-94860714D01*
X173764285Y-94932142D01*
X173621428Y-95003571D01*
X173478571Y-95003571D01*
X173335714Y-94932142D01*
X173264285Y-94860714D01*
X173192857Y-94717857D01*
X173121428Y-94432142D01*
X173121428Y-94075000D01*
X173192857Y-93789285D01*
X173264285Y-93646428D01*
X173335714Y-93575000D01*
X173478571Y-93503571D01*
X175407142Y-95003571D02*
X174550000Y-95003571D01*
X174978571Y-95003571D02*
X174978571Y-93503571D01*
X174835714Y-93717857D01*
X174692857Y-93860714D01*
X174550000Y-93932142D01*
X176264285Y-94146428D02*
X176121428Y-94075000D01*
X176050000Y-94003571D01*
X175978571Y-93860714D01*
X175978571Y-93789285D01*
X176050000Y-93646428D01*
X176121428Y-93575000D01*
X176264285Y-93503571D01*
X176550000Y-93503571D01*
X176692857Y-93575000D01*
X176764285Y-93646428D01*
X176835714Y-93789285D01*
X176835714Y-93860714D01*
X176764285Y-94003571D01*
X176692857Y-94075000D01*
X176550000Y-94146428D01*
X176264285Y-94146428D01*
X176121428Y-94217857D01*
X176050000Y-94289285D01*
X175978571Y-94432142D01*
X175978571Y-94717857D01*
X176050000Y-94860714D01*
X176121428Y-94932142D01*
X176264285Y-95003571D01*
X176550000Y-95003571D01*
X176692857Y-94932142D01*
X176764285Y-94860714D01*
X176835714Y-94717857D01*
X176835714Y-94432142D01*
X176764285Y-94289285D01*
X176692857Y-94217857D01*
X176550000Y-94146428D01*
D12*
G04 #@! TO.C,C1*
X172050000Y-82050000D02*
X171350000Y-82050000D01*
X171350000Y-80850000D02*
X172050000Y-80850000D01*
G04 #@! TO.C,C2*
X199500000Y-61120000D02*
X198800000Y-61120000D01*
X198800000Y-59920000D02*
X199500000Y-59920000D01*
G04 #@! TO.C,C3*
X189940000Y-78550000D02*
X189940000Y-77250000D01*
X190540000Y-77900000D02*
X189340000Y-77900000D01*
X183009000Y-78146000D02*
X183009000Y-77654000D01*
X183049000Y-78498000D02*
X183049000Y-77302000D01*
X183089000Y-78714000D02*
X183089000Y-77086000D01*
X183129000Y-78883000D02*
X183129000Y-76917000D01*
X183169000Y-79027000D02*
X183169000Y-76773000D01*
X183209000Y-79154000D02*
X183209000Y-76646000D01*
X183249000Y-79269000D02*
X183249000Y-76531000D01*
X183289000Y-79373000D02*
X183289000Y-76427000D01*
X183329000Y-79470000D02*
X183329000Y-76330000D01*
X183369000Y-79560000D02*
X183369000Y-76240000D01*
X183409000Y-79645000D02*
X183409000Y-76155000D01*
X183449000Y-79726000D02*
X183449000Y-76074000D01*
X183489000Y-79802000D02*
X183489000Y-75998000D01*
X183529000Y-79874000D02*
X183529000Y-75926000D01*
X183569000Y-79943000D02*
X183569000Y-75857000D01*
X183609000Y-80009000D02*
X183609000Y-75791000D01*
X183649000Y-80073000D02*
X183649000Y-75727000D01*
X183689000Y-80134000D02*
X183689000Y-75666000D01*
X183729000Y-80193000D02*
X183729000Y-75607000D01*
X183769000Y-80249000D02*
X183769000Y-75551000D01*
X183809000Y-80304000D02*
X183809000Y-75496000D01*
X183849000Y-80357000D02*
X183849000Y-75443000D01*
X183889000Y-80408000D02*
X183889000Y-75392000D01*
X183929000Y-80457000D02*
X183929000Y-75343000D01*
X183969000Y-80505000D02*
X183969000Y-75295000D01*
X184009000Y-80552000D02*
X184009000Y-75248000D01*
X184049000Y-80597000D02*
X184049000Y-75203000D01*
X184089000Y-80640000D02*
X184089000Y-75160000D01*
X184129000Y-80683000D02*
X184129000Y-75117000D01*
X184169000Y-80724000D02*
X184169000Y-75076000D01*
X184209000Y-80765000D02*
X184209000Y-75035000D01*
X184249000Y-80804000D02*
X184249000Y-74996000D01*
X184289000Y-80842000D02*
X184289000Y-74958000D01*
X184329000Y-80879000D02*
X184329000Y-74921000D01*
X184369000Y-80915000D02*
X184369000Y-74885000D01*
X184409000Y-80950000D02*
X184409000Y-74850000D01*
X184449000Y-80984000D02*
X184449000Y-74816000D01*
X184489000Y-81018000D02*
X184489000Y-74782000D01*
X184529000Y-81050000D02*
X184529000Y-74750000D01*
X184569000Y-81082000D02*
X184569000Y-74718000D01*
X184609000Y-81113000D02*
X184609000Y-74687000D01*
X184649000Y-81143000D02*
X184649000Y-74657000D01*
X184689000Y-81172000D02*
X184689000Y-74628000D01*
X184729000Y-81201000D02*
X184729000Y-74599000D01*
X184769000Y-81229000D02*
X184769000Y-74571000D01*
X184809000Y-81256000D02*
X184809000Y-74544000D01*
X184849000Y-81283000D02*
X184849000Y-74517000D01*
X184889000Y-76920000D02*
X184889000Y-74492000D01*
X184889000Y-81308000D02*
X184889000Y-78880000D01*
X184929000Y-76920000D02*
X184929000Y-74466000D01*
X184929000Y-81334000D02*
X184929000Y-78880000D01*
X184969000Y-76920000D02*
X184969000Y-74442000D01*
X184969000Y-81358000D02*
X184969000Y-78880000D01*
X185009000Y-76920000D02*
X185009000Y-74418000D01*
X185009000Y-81382000D02*
X185009000Y-78880000D01*
X185049000Y-76920000D02*
X185049000Y-74395000D01*
X185049000Y-81405000D02*
X185049000Y-78880000D01*
X185089000Y-76920000D02*
X185089000Y-74372000D01*
X185089000Y-81428000D02*
X185089000Y-78880000D01*
X185129000Y-76920000D02*
X185129000Y-74350000D01*
X185129000Y-81450000D02*
X185129000Y-78880000D01*
X185169000Y-76920000D02*
X185169000Y-74328000D01*
X185169000Y-81472000D02*
X185169000Y-78880000D01*
X185209000Y-76920000D02*
X185209000Y-74307000D01*
X185209000Y-81493000D02*
X185209000Y-78880000D01*
X185249000Y-76920000D02*
X185249000Y-74287000D01*
X185249000Y-81513000D02*
X185249000Y-78880000D01*
X185289000Y-76920000D02*
X185289000Y-74267000D01*
X185289000Y-81533000D02*
X185289000Y-78880000D01*
X185329000Y-76920000D02*
X185329000Y-74248000D01*
X185329000Y-81552000D02*
X185329000Y-78880000D01*
X185369000Y-76920000D02*
X185369000Y-74229000D01*
X185369000Y-81571000D02*
X185369000Y-78880000D01*
X185409000Y-76920000D02*
X185409000Y-74210000D01*
X185409000Y-81590000D02*
X185409000Y-78880000D01*
X185449000Y-76920000D02*
X185449000Y-74193000D01*
X185449000Y-81607000D02*
X185449000Y-78880000D01*
X185489000Y-76920000D02*
X185489000Y-74175000D01*
X185489000Y-81625000D02*
X185489000Y-78880000D01*
X185529000Y-76920000D02*
X185529000Y-74159000D01*
X185529000Y-81641000D02*
X185529000Y-78880000D01*
X185569000Y-76920000D02*
X185569000Y-74142000D01*
X185569000Y-81658000D02*
X185569000Y-78880000D01*
X185609000Y-76920000D02*
X185609000Y-74127000D01*
X185609000Y-81673000D02*
X185609000Y-78880000D01*
X185649000Y-76920000D02*
X185649000Y-74111000D01*
X185649000Y-81689000D02*
X185649000Y-78880000D01*
X185689000Y-76920000D02*
X185689000Y-74097000D01*
X185689000Y-81703000D02*
X185689000Y-78880000D01*
X185729000Y-76920000D02*
X185729000Y-74082000D01*
X185729000Y-81718000D02*
X185729000Y-78880000D01*
X185769000Y-76920000D02*
X185769000Y-74068000D01*
X185769000Y-81732000D02*
X185769000Y-78880000D01*
X185809000Y-76920000D02*
X185809000Y-74055000D01*
X185809000Y-81745000D02*
X185809000Y-78880000D01*
X185849000Y-76920000D02*
X185849000Y-74042000D01*
X185849000Y-81758000D02*
X185849000Y-78880000D01*
X185889000Y-76920000D02*
X185889000Y-74030000D01*
X185889000Y-81770000D02*
X185889000Y-78880000D01*
X185929000Y-76920000D02*
X185929000Y-74017000D01*
X185929000Y-81783000D02*
X185929000Y-78880000D01*
X185969000Y-76920000D02*
X185969000Y-74006000D01*
X185969000Y-81794000D02*
X185969000Y-78880000D01*
X186009000Y-76920000D02*
X186009000Y-73995000D01*
X186009000Y-81805000D02*
X186009000Y-78880000D01*
X186049000Y-76920000D02*
X186049000Y-73984000D01*
X186049000Y-81816000D02*
X186049000Y-78880000D01*
X186089000Y-76920000D02*
X186089000Y-73974000D01*
X186089000Y-81826000D02*
X186089000Y-78880000D01*
X186129000Y-76920000D02*
X186129000Y-73964000D01*
X186129000Y-81836000D02*
X186129000Y-78880000D01*
X186169000Y-76920000D02*
X186169000Y-73954000D01*
X186169000Y-81846000D02*
X186169000Y-78880000D01*
X186209000Y-76920000D02*
X186209000Y-73945000D01*
X186209000Y-81855000D02*
X186209000Y-78880000D01*
X186249000Y-76920000D02*
X186249000Y-73937000D01*
X186249000Y-81863000D02*
X186249000Y-78880000D01*
X186289000Y-76920000D02*
X186289000Y-73929000D01*
X186289000Y-81871000D02*
X186289000Y-78880000D01*
X186329000Y-76920000D02*
X186329000Y-73921000D01*
X186329000Y-81879000D02*
X186329000Y-78880000D01*
X186369000Y-76920000D02*
X186369000Y-73913000D01*
X186369000Y-81887000D02*
X186369000Y-78880000D01*
X186410000Y-76920000D02*
X186410000Y-73906000D01*
X186410000Y-81894000D02*
X186410000Y-78880000D01*
X186450000Y-76920000D02*
X186450000Y-73900000D01*
X186450000Y-81900000D02*
X186450000Y-78880000D01*
X186490000Y-76920000D02*
X186490000Y-73894000D01*
X186490000Y-81906000D02*
X186490000Y-78880000D01*
X186530000Y-76920000D02*
X186530000Y-73888000D01*
X186530000Y-81912000D02*
X186530000Y-78880000D01*
X186570000Y-76920000D02*
X186570000Y-73883000D01*
X186570000Y-81917000D02*
X186570000Y-78880000D01*
X186610000Y-76920000D02*
X186610000Y-73878000D01*
X186610000Y-81922000D02*
X186610000Y-78880000D01*
X186650000Y-76920000D02*
X186650000Y-73873000D01*
X186650000Y-81927000D02*
X186650000Y-78880000D01*
X186690000Y-76920000D02*
X186690000Y-73869000D01*
X186690000Y-81931000D02*
X186690000Y-78880000D01*
X186730000Y-76920000D02*
X186730000Y-73865000D01*
X186730000Y-81935000D02*
X186730000Y-78880000D01*
X186770000Y-76920000D02*
X186770000Y-73862000D01*
X186770000Y-81938000D02*
X186770000Y-78880000D01*
X186810000Y-76920000D02*
X186810000Y-73859000D01*
X186810000Y-81941000D02*
X186810000Y-78880000D01*
X186850000Y-81943000D02*
X186850000Y-73857000D01*
X186890000Y-81946000D02*
X186890000Y-73854000D01*
X186930000Y-81947000D02*
X186930000Y-73853000D01*
X186970000Y-81949000D02*
X186970000Y-73851000D01*
X187010000Y-81950000D02*
X187010000Y-73850000D01*
X187050000Y-81950000D02*
X187050000Y-73850000D01*
X187090000Y-81950000D02*
X187090000Y-73850000D01*
X191180000Y-77900000D02*
G75*
G03X191180000Y-77900000I-4090000J0D01*
G01*
G04 #@! TO.C,C4*
X171350000Y-77030000D02*
X172050000Y-77030000D01*
X172050000Y-78230000D02*
X171350000Y-78230000D01*
G04 #@! TO.C,C5*
X180290000Y-72920000D02*
X180290000Y-73620000D01*
X179090000Y-73620000D02*
X179090000Y-72920000D01*
G04 #@! TO.C,C6*
X192550000Y-56800000D02*
X193250000Y-56800000D01*
X193250000Y-58000000D02*
X192550000Y-58000000D01*
G04 #@! TO.C,C7*
X178260000Y-62920000D02*
G75*
G03X178260000Y-62920000I-4090000J0D01*
G01*
X174170000Y-66970000D02*
X174170000Y-58870000D01*
X174130000Y-66970000D02*
X174130000Y-58870000D01*
X174090000Y-66970000D02*
X174090000Y-58870000D01*
X174050000Y-66969000D02*
X174050000Y-58871000D01*
X174010000Y-66967000D02*
X174010000Y-58873000D01*
X173970000Y-66966000D02*
X173970000Y-58874000D01*
X173930000Y-66963000D02*
X173930000Y-58877000D01*
X173890000Y-66961000D02*
X173890000Y-63900000D01*
X173890000Y-61940000D02*
X173890000Y-58879000D01*
X173850000Y-66958000D02*
X173850000Y-63900000D01*
X173850000Y-61940000D02*
X173850000Y-58882000D01*
X173810000Y-66955000D02*
X173810000Y-63900000D01*
X173810000Y-61940000D02*
X173810000Y-58885000D01*
X173770000Y-66951000D02*
X173770000Y-63900000D01*
X173770000Y-61940000D02*
X173770000Y-58889000D01*
X173730000Y-66947000D02*
X173730000Y-63900000D01*
X173730000Y-61940000D02*
X173730000Y-58893000D01*
X173690000Y-66942000D02*
X173690000Y-63900000D01*
X173690000Y-61940000D02*
X173690000Y-58898000D01*
X173650000Y-66937000D02*
X173650000Y-63900000D01*
X173650000Y-61940000D02*
X173650000Y-58903000D01*
X173610000Y-66932000D02*
X173610000Y-63900000D01*
X173610000Y-61940000D02*
X173610000Y-58908000D01*
X173570000Y-66926000D02*
X173570000Y-63900000D01*
X173570000Y-61940000D02*
X173570000Y-58914000D01*
X173530000Y-66920000D02*
X173530000Y-63900000D01*
X173530000Y-61940000D02*
X173530000Y-58920000D01*
X173490000Y-66914000D02*
X173490000Y-63900000D01*
X173490000Y-61940000D02*
X173490000Y-58926000D01*
X173449000Y-66907000D02*
X173449000Y-63900000D01*
X173449000Y-61940000D02*
X173449000Y-58933000D01*
X173409000Y-66899000D02*
X173409000Y-63900000D01*
X173409000Y-61940000D02*
X173409000Y-58941000D01*
X173369000Y-66891000D02*
X173369000Y-63900000D01*
X173369000Y-61940000D02*
X173369000Y-58949000D01*
X173329000Y-66883000D02*
X173329000Y-63900000D01*
X173329000Y-61940000D02*
X173329000Y-58957000D01*
X173289000Y-66875000D02*
X173289000Y-63900000D01*
X173289000Y-61940000D02*
X173289000Y-58965000D01*
X173249000Y-66866000D02*
X173249000Y-63900000D01*
X173249000Y-61940000D02*
X173249000Y-58974000D01*
X173209000Y-66856000D02*
X173209000Y-63900000D01*
X173209000Y-61940000D02*
X173209000Y-58984000D01*
X173169000Y-66846000D02*
X173169000Y-63900000D01*
X173169000Y-61940000D02*
X173169000Y-58994000D01*
X173129000Y-66836000D02*
X173129000Y-63900000D01*
X173129000Y-61940000D02*
X173129000Y-59004000D01*
X173089000Y-66825000D02*
X173089000Y-63900000D01*
X173089000Y-61940000D02*
X173089000Y-59015000D01*
X173049000Y-66814000D02*
X173049000Y-63900000D01*
X173049000Y-61940000D02*
X173049000Y-59026000D01*
X173009000Y-66803000D02*
X173009000Y-63900000D01*
X173009000Y-61940000D02*
X173009000Y-59037000D01*
X172969000Y-66790000D02*
X172969000Y-63900000D01*
X172969000Y-61940000D02*
X172969000Y-59050000D01*
X172929000Y-66778000D02*
X172929000Y-63900000D01*
X172929000Y-61940000D02*
X172929000Y-59062000D01*
X172889000Y-66765000D02*
X172889000Y-63900000D01*
X172889000Y-61940000D02*
X172889000Y-59075000D01*
X172849000Y-66752000D02*
X172849000Y-63900000D01*
X172849000Y-61940000D02*
X172849000Y-59088000D01*
X172809000Y-66738000D02*
X172809000Y-63900000D01*
X172809000Y-61940000D02*
X172809000Y-59102000D01*
X172769000Y-66723000D02*
X172769000Y-63900000D01*
X172769000Y-61940000D02*
X172769000Y-59117000D01*
X172729000Y-66709000D02*
X172729000Y-63900000D01*
X172729000Y-61940000D02*
X172729000Y-59131000D01*
X172689000Y-66693000D02*
X172689000Y-63900000D01*
X172689000Y-61940000D02*
X172689000Y-59147000D01*
X172649000Y-66678000D02*
X172649000Y-63900000D01*
X172649000Y-61940000D02*
X172649000Y-59162000D01*
X172609000Y-66661000D02*
X172609000Y-63900000D01*
X172609000Y-61940000D02*
X172609000Y-59179000D01*
X172569000Y-66645000D02*
X172569000Y-63900000D01*
X172569000Y-61940000D02*
X172569000Y-59195000D01*
X172529000Y-66627000D02*
X172529000Y-63900000D01*
X172529000Y-61940000D02*
X172529000Y-59213000D01*
X172489000Y-66610000D02*
X172489000Y-63900000D01*
X172489000Y-61940000D02*
X172489000Y-59230000D01*
X172449000Y-66591000D02*
X172449000Y-63900000D01*
X172449000Y-61940000D02*
X172449000Y-59249000D01*
X172409000Y-66572000D02*
X172409000Y-63900000D01*
X172409000Y-61940000D02*
X172409000Y-59268000D01*
X172369000Y-66553000D02*
X172369000Y-63900000D01*
X172369000Y-61940000D02*
X172369000Y-59287000D01*
X172329000Y-66533000D02*
X172329000Y-63900000D01*
X172329000Y-61940000D02*
X172329000Y-59307000D01*
X172289000Y-66513000D02*
X172289000Y-63900000D01*
X172289000Y-61940000D02*
X172289000Y-59327000D01*
X172249000Y-66492000D02*
X172249000Y-63900000D01*
X172249000Y-61940000D02*
X172249000Y-59348000D01*
X172209000Y-66470000D02*
X172209000Y-63900000D01*
X172209000Y-61940000D02*
X172209000Y-59370000D01*
X172169000Y-66448000D02*
X172169000Y-63900000D01*
X172169000Y-61940000D02*
X172169000Y-59392000D01*
X172129000Y-66425000D02*
X172129000Y-63900000D01*
X172129000Y-61940000D02*
X172129000Y-59415000D01*
X172089000Y-66402000D02*
X172089000Y-63900000D01*
X172089000Y-61940000D02*
X172089000Y-59438000D01*
X172049000Y-66378000D02*
X172049000Y-63900000D01*
X172049000Y-61940000D02*
X172049000Y-59462000D01*
X172009000Y-66354000D02*
X172009000Y-63900000D01*
X172009000Y-61940000D02*
X172009000Y-59486000D01*
X171969000Y-66328000D02*
X171969000Y-63900000D01*
X171969000Y-61940000D02*
X171969000Y-59512000D01*
X171929000Y-66303000D02*
X171929000Y-59537000D01*
X171889000Y-66276000D02*
X171889000Y-59564000D01*
X171849000Y-66249000D02*
X171849000Y-59591000D01*
X171809000Y-66221000D02*
X171809000Y-59619000D01*
X171769000Y-66192000D02*
X171769000Y-59648000D01*
X171729000Y-66163000D02*
X171729000Y-59677000D01*
X171689000Y-66133000D02*
X171689000Y-59707000D01*
X171649000Y-66102000D02*
X171649000Y-59738000D01*
X171609000Y-66070000D02*
X171609000Y-59770000D01*
X171569000Y-66038000D02*
X171569000Y-59802000D01*
X171529000Y-66004000D02*
X171529000Y-59836000D01*
X171489000Y-65970000D02*
X171489000Y-59870000D01*
X171449000Y-65935000D02*
X171449000Y-59905000D01*
X171409000Y-65899000D02*
X171409000Y-59941000D01*
X171369000Y-65862000D02*
X171369000Y-59978000D01*
X171329000Y-65824000D02*
X171329000Y-60016000D01*
X171289000Y-65785000D02*
X171289000Y-60055000D01*
X171249000Y-65744000D02*
X171249000Y-60096000D01*
X171209000Y-65703000D02*
X171209000Y-60137000D01*
X171169000Y-65660000D02*
X171169000Y-60180000D01*
X171129000Y-65617000D02*
X171129000Y-60223000D01*
X171089000Y-65572000D02*
X171089000Y-60268000D01*
X171049000Y-65525000D02*
X171049000Y-60315000D01*
X171009000Y-65477000D02*
X171009000Y-60363000D01*
X170969000Y-65428000D02*
X170969000Y-60412000D01*
X170929000Y-65377000D02*
X170929000Y-60463000D01*
X170889000Y-65324000D02*
X170889000Y-60516000D01*
X170849000Y-65269000D02*
X170849000Y-60571000D01*
X170809000Y-65213000D02*
X170809000Y-60627000D01*
X170769000Y-65154000D02*
X170769000Y-60686000D01*
X170729000Y-65093000D02*
X170729000Y-60747000D01*
X170689000Y-65029000D02*
X170689000Y-60811000D01*
X170649000Y-64963000D02*
X170649000Y-60877000D01*
X170609000Y-64894000D02*
X170609000Y-60946000D01*
X170569000Y-64822000D02*
X170569000Y-61018000D01*
X170529000Y-64746000D02*
X170529000Y-61094000D01*
X170489000Y-64665000D02*
X170489000Y-61175000D01*
X170449000Y-64580000D02*
X170449000Y-61260000D01*
X170409000Y-64490000D02*
X170409000Y-61350000D01*
X170369000Y-64393000D02*
X170369000Y-61447000D01*
X170329000Y-64289000D02*
X170329000Y-61551000D01*
X170289000Y-64174000D02*
X170289000Y-61666000D01*
X170249000Y-64047000D02*
X170249000Y-61793000D01*
X170209000Y-63903000D02*
X170209000Y-61937000D01*
X170169000Y-63734000D02*
X170169000Y-62106000D01*
X170129000Y-63518000D02*
X170129000Y-62322000D01*
X170089000Y-63166000D02*
X170089000Y-62674000D01*
X177620000Y-62920000D02*
X176420000Y-62920000D01*
X177020000Y-63570000D02*
X177020000Y-62270000D01*
G04 #@! TO.C,C8*
X193020000Y-66650000D02*
X193020000Y-65950000D01*
X194220000Y-65950000D02*
X194220000Y-66650000D01*
G04 #@! TO.C,C9*
X185420000Y-87410000D02*
X185420000Y-88110000D01*
X184220000Y-88110000D02*
X184220000Y-87410000D01*
G04 #@! TO.C,C10*
X195990000Y-70320000D02*
X195990000Y-71020000D01*
X194790000Y-71020000D02*
X194790000Y-70320000D01*
G04 #@! TO.C,C11*
X192370000Y-88270000D02*
X192370000Y-89570000D01*
X191770000Y-88920000D02*
X192970000Y-88920000D01*
X199301000Y-88674000D02*
X199301000Y-89166000D01*
X199261000Y-88322000D02*
X199261000Y-89518000D01*
X199221000Y-88106000D02*
X199221000Y-89734000D01*
X199181000Y-87937000D02*
X199181000Y-89903000D01*
X199141000Y-87793000D02*
X199141000Y-90047000D01*
X199101000Y-87666000D02*
X199101000Y-90174000D01*
X199061000Y-87551000D02*
X199061000Y-90289000D01*
X199021000Y-87447000D02*
X199021000Y-90393000D01*
X198981000Y-87350000D02*
X198981000Y-90490000D01*
X198941000Y-87260000D02*
X198941000Y-90580000D01*
X198901000Y-87175000D02*
X198901000Y-90665000D01*
X198861000Y-87094000D02*
X198861000Y-90746000D01*
X198821000Y-87018000D02*
X198821000Y-90822000D01*
X198781000Y-86946000D02*
X198781000Y-90894000D01*
X198741000Y-86877000D02*
X198741000Y-90963000D01*
X198701000Y-86811000D02*
X198701000Y-91029000D01*
X198661000Y-86747000D02*
X198661000Y-91093000D01*
X198621000Y-86686000D02*
X198621000Y-91154000D01*
X198581000Y-86627000D02*
X198581000Y-91213000D01*
X198541000Y-86571000D02*
X198541000Y-91269000D01*
X198501000Y-86516000D02*
X198501000Y-91324000D01*
X198461000Y-86463000D02*
X198461000Y-91377000D01*
X198421000Y-86412000D02*
X198421000Y-91428000D01*
X198381000Y-86363000D02*
X198381000Y-91477000D01*
X198341000Y-86315000D02*
X198341000Y-91525000D01*
X198301000Y-86268000D02*
X198301000Y-91572000D01*
X198261000Y-86223000D02*
X198261000Y-91617000D01*
X198221000Y-86180000D02*
X198221000Y-91660000D01*
X198181000Y-86137000D02*
X198181000Y-91703000D01*
X198141000Y-86096000D02*
X198141000Y-91744000D01*
X198101000Y-86055000D02*
X198101000Y-91785000D01*
X198061000Y-86016000D02*
X198061000Y-91824000D01*
X198021000Y-85978000D02*
X198021000Y-91862000D01*
X197981000Y-85941000D02*
X197981000Y-91899000D01*
X197941000Y-85905000D02*
X197941000Y-91935000D01*
X197901000Y-85870000D02*
X197901000Y-91970000D01*
X197861000Y-85836000D02*
X197861000Y-92004000D01*
X197821000Y-85802000D02*
X197821000Y-92038000D01*
X197781000Y-85770000D02*
X197781000Y-92070000D01*
X197741000Y-85738000D02*
X197741000Y-92102000D01*
X197701000Y-85707000D02*
X197701000Y-92133000D01*
X197661000Y-85677000D02*
X197661000Y-92163000D01*
X197621000Y-85648000D02*
X197621000Y-92192000D01*
X197581000Y-85619000D02*
X197581000Y-92221000D01*
X197541000Y-85591000D02*
X197541000Y-92249000D01*
X197501000Y-85564000D02*
X197501000Y-92276000D01*
X197461000Y-85537000D02*
X197461000Y-92303000D01*
X197421000Y-89900000D02*
X197421000Y-92328000D01*
X197421000Y-85512000D02*
X197421000Y-87940000D01*
X197381000Y-89900000D02*
X197381000Y-92354000D01*
X197381000Y-85486000D02*
X197381000Y-87940000D01*
X197341000Y-89900000D02*
X197341000Y-92378000D01*
X197341000Y-85462000D02*
X197341000Y-87940000D01*
X197301000Y-89900000D02*
X197301000Y-92402000D01*
X197301000Y-85438000D02*
X197301000Y-87940000D01*
X197261000Y-89900000D02*
X197261000Y-92425000D01*
X197261000Y-85415000D02*
X197261000Y-87940000D01*
X197221000Y-89900000D02*
X197221000Y-92448000D01*
X197221000Y-85392000D02*
X197221000Y-87940000D01*
X197181000Y-89900000D02*
X197181000Y-92470000D01*
X197181000Y-85370000D02*
X197181000Y-87940000D01*
X197141000Y-89900000D02*
X197141000Y-92492000D01*
X197141000Y-85348000D02*
X197141000Y-87940000D01*
X197101000Y-89900000D02*
X197101000Y-92513000D01*
X197101000Y-85327000D02*
X197101000Y-87940000D01*
X197061000Y-89900000D02*
X197061000Y-92533000D01*
X197061000Y-85307000D02*
X197061000Y-87940000D01*
X197021000Y-89900000D02*
X197021000Y-92553000D01*
X197021000Y-85287000D02*
X197021000Y-87940000D01*
X196981000Y-89900000D02*
X196981000Y-92572000D01*
X196981000Y-85268000D02*
X196981000Y-87940000D01*
X196941000Y-89900000D02*
X196941000Y-92591000D01*
X196941000Y-85249000D02*
X196941000Y-87940000D01*
X196901000Y-89900000D02*
X196901000Y-92610000D01*
X196901000Y-85230000D02*
X196901000Y-87940000D01*
X196861000Y-89900000D02*
X196861000Y-92627000D01*
X196861000Y-85213000D02*
X196861000Y-87940000D01*
X196821000Y-89900000D02*
X196821000Y-92645000D01*
X196821000Y-85195000D02*
X196821000Y-87940000D01*
X196781000Y-89900000D02*
X196781000Y-92661000D01*
X196781000Y-85179000D02*
X196781000Y-87940000D01*
X196741000Y-89900000D02*
X196741000Y-92678000D01*
X196741000Y-85162000D02*
X196741000Y-87940000D01*
X196701000Y-89900000D02*
X196701000Y-92693000D01*
X196701000Y-85147000D02*
X196701000Y-87940000D01*
X196661000Y-89900000D02*
X196661000Y-92709000D01*
X196661000Y-85131000D02*
X196661000Y-87940000D01*
X196621000Y-89900000D02*
X196621000Y-92723000D01*
X196621000Y-85117000D02*
X196621000Y-87940000D01*
X196581000Y-89900000D02*
X196581000Y-92738000D01*
X196581000Y-85102000D02*
X196581000Y-87940000D01*
X196541000Y-89900000D02*
X196541000Y-92752000D01*
X196541000Y-85088000D02*
X196541000Y-87940000D01*
X196501000Y-89900000D02*
X196501000Y-92765000D01*
X196501000Y-85075000D02*
X196501000Y-87940000D01*
X196461000Y-89900000D02*
X196461000Y-92778000D01*
X196461000Y-85062000D02*
X196461000Y-87940000D01*
X196421000Y-89900000D02*
X196421000Y-92790000D01*
X196421000Y-85050000D02*
X196421000Y-87940000D01*
X196381000Y-89900000D02*
X196381000Y-92803000D01*
X196381000Y-85037000D02*
X196381000Y-87940000D01*
X196341000Y-89900000D02*
X196341000Y-92814000D01*
X196341000Y-85026000D02*
X196341000Y-87940000D01*
X196301000Y-89900000D02*
X196301000Y-92825000D01*
X196301000Y-85015000D02*
X196301000Y-87940000D01*
X196261000Y-89900000D02*
X196261000Y-92836000D01*
X196261000Y-85004000D02*
X196261000Y-87940000D01*
X196221000Y-89900000D02*
X196221000Y-92846000D01*
X196221000Y-84994000D02*
X196221000Y-87940000D01*
X196181000Y-89900000D02*
X196181000Y-92856000D01*
X196181000Y-84984000D02*
X196181000Y-87940000D01*
X196141000Y-89900000D02*
X196141000Y-92866000D01*
X196141000Y-84974000D02*
X196141000Y-87940000D01*
X196101000Y-89900000D02*
X196101000Y-92875000D01*
X196101000Y-84965000D02*
X196101000Y-87940000D01*
X196061000Y-89900000D02*
X196061000Y-92883000D01*
X196061000Y-84957000D02*
X196061000Y-87940000D01*
X196021000Y-89900000D02*
X196021000Y-92891000D01*
X196021000Y-84949000D02*
X196021000Y-87940000D01*
X195981000Y-89900000D02*
X195981000Y-92899000D01*
X195981000Y-84941000D02*
X195981000Y-87940000D01*
X195941000Y-89900000D02*
X195941000Y-92907000D01*
X195941000Y-84933000D02*
X195941000Y-87940000D01*
X195900000Y-89900000D02*
X195900000Y-92914000D01*
X195900000Y-84926000D02*
X195900000Y-87940000D01*
X195860000Y-89900000D02*
X195860000Y-92920000D01*
X195860000Y-84920000D02*
X195860000Y-87940000D01*
X195820000Y-89900000D02*
X195820000Y-92926000D01*
X195820000Y-84914000D02*
X195820000Y-87940000D01*
X195780000Y-89900000D02*
X195780000Y-92932000D01*
X195780000Y-84908000D02*
X195780000Y-87940000D01*
X195740000Y-89900000D02*
X195740000Y-92937000D01*
X195740000Y-84903000D02*
X195740000Y-87940000D01*
X195700000Y-89900000D02*
X195700000Y-92942000D01*
X195700000Y-84898000D02*
X195700000Y-87940000D01*
X195660000Y-89900000D02*
X195660000Y-92947000D01*
X195660000Y-84893000D02*
X195660000Y-87940000D01*
X195620000Y-89900000D02*
X195620000Y-92951000D01*
X195620000Y-84889000D02*
X195620000Y-87940000D01*
X195580000Y-89900000D02*
X195580000Y-92955000D01*
X195580000Y-84885000D02*
X195580000Y-87940000D01*
X195540000Y-89900000D02*
X195540000Y-92958000D01*
X195540000Y-84882000D02*
X195540000Y-87940000D01*
X195500000Y-89900000D02*
X195500000Y-92961000D01*
X195500000Y-84879000D02*
X195500000Y-87940000D01*
X195460000Y-84877000D02*
X195460000Y-92963000D01*
X195420000Y-84874000D02*
X195420000Y-92966000D01*
X195380000Y-84873000D02*
X195380000Y-92967000D01*
X195340000Y-84871000D02*
X195340000Y-92969000D01*
X195300000Y-84870000D02*
X195300000Y-92970000D01*
X195260000Y-84870000D02*
X195260000Y-92970000D01*
X195220000Y-84870000D02*
X195220000Y-92970000D01*
X199310000Y-88920000D02*
G75*
G03X199310000Y-88920000I-4090000J0D01*
G01*
G04 #@! TO.C,J1*
X203920000Y-59170000D02*
X205250000Y-59170000D01*
X203920000Y-60500000D02*
X203920000Y-59170000D01*
X203920000Y-61770000D02*
X206580000Y-61770000D01*
X206580000Y-61770000D02*
X206580000Y-66910000D01*
X203920000Y-61770000D02*
X203920000Y-66910000D01*
X203920000Y-66910000D02*
X206580000Y-66910000D01*
G04 #@! TO.C,J2*
X166010000Y-66890000D02*
X168670000Y-66890000D01*
X166010000Y-61750000D02*
X166010000Y-66890000D01*
X168670000Y-61750000D02*
X168670000Y-66890000D01*
X166010000Y-61750000D02*
X168670000Y-61750000D01*
X166010000Y-60480000D02*
X166010000Y-59150000D01*
X166010000Y-59150000D02*
X167340000Y-59150000D01*
G04 #@! TO.C,J3*
X187830000Y-93060000D02*
X187830000Y-94390000D01*
X186500000Y-93060000D02*
X187830000Y-93060000D01*
X185230000Y-93060000D02*
X185230000Y-95720000D01*
X185230000Y-95720000D02*
X177550000Y-95720000D01*
X185230000Y-93060000D02*
X177550000Y-93060000D01*
X177550000Y-93060000D02*
X177550000Y-95720000D01*
G04 #@! TO.C,R1*
X177260000Y-80790000D02*
X178260000Y-80790000D01*
X178260000Y-82150000D02*
X177260000Y-82150000D01*
G04 #@! TO.C,R2*
X200780000Y-63530000D02*
X200780000Y-64530000D01*
X199420000Y-64530000D02*
X199420000Y-63530000D01*
G04 #@! TO.C,R3*
X177260000Y-78910000D02*
X178260000Y-78910000D01*
X178260000Y-80270000D02*
X177260000Y-80270000D01*
G04 #@! TO.C,R4*
X197570000Y-64460000D02*
X197570000Y-63460000D01*
X198930000Y-63460000D02*
X198930000Y-64460000D01*
G04 #@! TO.C,R5*
X177320000Y-76960000D02*
X178320000Y-76960000D01*
X178320000Y-78320000D02*
X177320000Y-78320000D01*
G04 #@! TO.C,R6*
X194080000Y-77250000D02*
X195080000Y-77250000D01*
X195080000Y-78610000D02*
X194080000Y-78610000D01*
G04 #@! TO.C,R7*
X194490000Y-59850000D02*
X195490000Y-59850000D01*
X195490000Y-61210000D02*
X194490000Y-61210000D01*
G04 #@! TO.C,R8*
X194760000Y-66950000D02*
X194760000Y-65950000D01*
X196120000Y-65950000D02*
X196120000Y-66950000D01*
G04 #@! TO.C,R9*
X194300000Y-70220000D02*
X194300000Y-71220000D01*
X192940000Y-71220000D02*
X192940000Y-70220000D01*
G04 #@! TO.C,R10*
X186120000Y-88470000D02*
X186120000Y-87470000D01*
X187480000Y-87470000D02*
X187480000Y-88470000D01*
G04 #@! TO.C,R11*
X187800000Y-88420000D02*
X187800000Y-87420000D01*
X189160000Y-87420000D02*
X189160000Y-88420000D01*
G04 #@! TO.C,RV1*
X204080000Y-78880000D02*
X204080000Y-72280000D01*
X206780000Y-78880000D02*
X204080000Y-78880000D01*
X206780000Y-72280000D02*
X206780000Y-78880000D01*
X204080000Y-72280000D02*
X206780000Y-72280000D01*
X204080000Y-75630000D02*
X203130000Y-74630000D01*
X204080000Y-75580000D02*
X203080000Y-76530000D01*
X205480000Y-70530000D02*
X201880000Y-70530000D01*
X205480000Y-72280000D02*
X205480000Y-70530000D01*
X205480000Y-78880000D02*
X205480000Y-80630000D01*
X205480000Y-80630000D02*
X201930000Y-80630000D01*
X204030000Y-75580000D02*
X201680000Y-75580000D01*
G04 #@! TO.C,U1*
X183170000Y-69370000D02*
X184820000Y-69370000D01*
X183170000Y-59090000D02*
X183170000Y-69370000D01*
X188470000Y-59090000D02*
X183170000Y-59090000D01*
X188470000Y-69370000D02*
X188470000Y-59090000D01*
X186820000Y-69370000D02*
X188470000Y-69370000D01*
X184820000Y-69370000D02*
G75*
G02X186820000Y-69370000I1000000J0D01*
G01*
D13*
G04 #@! TO.C,REF\002A\002A\002A*
G36*
X200499744Y-94219918D02*
X200555201Y-94247568D01*
X200604148Y-94298480D01*
X200617629Y-94317338D01*
X200632314Y-94342015D01*
X200641842Y-94368816D01*
X200647293Y-94404587D01*
X200649747Y-94456169D01*
X200650286Y-94524267D01*
X200647852Y-94617588D01*
X200639394Y-94687657D01*
X200623174Y-94739931D01*
X200597454Y-94779869D01*
X200560497Y-94812929D01*
X200557782Y-94814886D01*
X200521360Y-94834908D01*
X200477502Y-94844815D01*
X200421724Y-94847257D01*
X200331048Y-94847257D01*
X200331010Y-94935283D01*
X200330166Y-94984308D01*
X200325024Y-95013065D01*
X200311587Y-95030311D01*
X200285858Y-95044808D01*
X200279679Y-95047769D01*
X200250764Y-95061648D01*
X200228376Y-95070414D01*
X200211729Y-95071171D01*
X200200036Y-95061023D01*
X200192510Y-95037073D01*
X200188366Y-94996426D01*
X200186815Y-94936186D01*
X200187071Y-94853455D01*
X200188349Y-94745339D01*
X200188748Y-94713000D01*
X200190185Y-94601524D01*
X200191472Y-94528603D01*
X200330971Y-94528603D01*
X200331755Y-94590499D01*
X200335240Y-94630997D01*
X200343124Y-94657708D01*
X200357105Y-94678244D01*
X200366597Y-94688260D01*
X200405404Y-94717567D01*
X200439763Y-94719952D01*
X200475216Y-94695750D01*
X200476114Y-94694857D01*
X200490539Y-94676153D01*
X200499313Y-94650732D01*
X200503739Y-94611584D01*
X200505118Y-94551697D01*
X200505143Y-94538430D01*
X200501812Y-94455901D01*
X200490969Y-94398691D01*
X200471340Y-94363766D01*
X200441650Y-94348094D01*
X200424491Y-94346514D01*
X200383766Y-94353926D01*
X200355832Y-94378330D01*
X200339017Y-94422980D01*
X200331650Y-94491130D01*
X200330971Y-94528603D01*
X200191472Y-94528603D01*
X200191708Y-94515245D01*
X200193677Y-94450333D01*
X200196450Y-94402958D01*
X200200388Y-94369290D01*
X200205849Y-94345498D01*
X200213192Y-94327753D01*
X200222777Y-94312224D01*
X200226887Y-94306381D01*
X200281405Y-94251185D01*
X200350336Y-94219890D01*
X200430072Y-94211165D01*
X200499744Y-94219918D01*
X200499744Y-94219918D01*
G37*
X200499744Y-94219918D02*
X200555201Y-94247568D01*
X200604148Y-94298480D01*
X200617629Y-94317338D01*
X200632314Y-94342015D01*
X200641842Y-94368816D01*
X200647293Y-94404587D01*
X200649747Y-94456169D01*
X200650286Y-94524267D01*
X200647852Y-94617588D01*
X200639394Y-94687657D01*
X200623174Y-94739931D01*
X200597454Y-94779869D01*
X200560497Y-94812929D01*
X200557782Y-94814886D01*
X200521360Y-94834908D01*
X200477502Y-94844815D01*
X200421724Y-94847257D01*
X200331048Y-94847257D01*
X200331010Y-94935283D01*
X200330166Y-94984308D01*
X200325024Y-95013065D01*
X200311587Y-95030311D01*
X200285858Y-95044808D01*
X200279679Y-95047769D01*
X200250764Y-95061648D01*
X200228376Y-95070414D01*
X200211729Y-95071171D01*
X200200036Y-95061023D01*
X200192510Y-95037073D01*
X200188366Y-94996426D01*
X200186815Y-94936186D01*
X200187071Y-94853455D01*
X200188349Y-94745339D01*
X200188748Y-94713000D01*
X200190185Y-94601524D01*
X200191472Y-94528603D01*
X200330971Y-94528603D01*
X200331755Y-94590499D01*
X200335240Y-94630997D01*
X200343124Y-94657708D01*
X200357105Y-94678244D01*
X200366597Y-94688260D01*
X200405404Y-94717567D01*
X200439763Y-94719952D01*
X200475216Y-94695750D01*
X200476114Y-94694857D01*
X200490539Y-94676153D01*
X200499313Y-94650732D01*
X200503739Y-94611584D01*
X200505118Y-94551697D01*
X200505143Y-94538430D01*
X200501812Y-94455901D01*
X200490969Y-94398691D01*
X200471340Y-94363766D01*
X200441650Y-94348094D01*
X200424491Y-94346514D01*
X200383766Y-94353926D01*
X200355832Y-94378330D01*
X200339017Y-94422980D01*
X200331650Y-94491130D01*
X200330971Y-94528603D01*
X200191472Y-94528603D01*
X200191708Y-94515245D01*
X200193677Y-94450333D01*
X200196450Y-94402958D01*
X200200388Y-94369290D01*
X200205849Y-94345498D01*
X200213192Y-94327753D01*
X200222777Y-94312224D01*
X200226887Y-94306381D01*
X200281405Y-94251185D01*
X200350336Y-94219890D01*
X200430072Y-94211165D01*
X200499744Y-94219918D01*
G36*
X201616093Y-94227780D02*
X201662672Y-94254723D01*
X201695057Y-94281466D01*
X201718742Y-94309484D01*
X201735059Y-94343748D01*
X201745339Y-94389227D01*
X201750914Y-94450892D01*
X201753116Y-94533711D01*
X201753371Y-94593246D01*
X201753371Y-94812391D01*
X201691686Y-94840044D01*
X201630000Y-94867697D01*
X201622743Y-94627670D01*
X201619744Y-94538028D01*
X201616598Y-94472962D01*
X201612701Y-94428026D01*
X201607447Y-94398770D01*
X201600231Y-94380748D01*
X201590450Y-94369511D01*
X201587312Y-94367079D01*
X201539761Y-94348083D01*
X201491697Y-94355600D01*
X201463086Y-94375543D01*
X201451447Y-94389675D01*
X201443391Y-94408220D01*
X201438271Y-94436334D01*
X201435441Y-94479173D01*
X201434256Y-94541895D01*
X201434057Y-94607261D01*
X201434018Y-94689268D01*
X201432614Y-94747316D01*
X201427914Y-94786465D01*
X201417987Y-94811780D01*
X201400903Y-94828323D01*
X201374732Y-94841156D01*
X201339775Y-94854491D01*
X201301596Y-94869007D01*
X201306141Y-94611389D01*
X201307971Y-94518519D01*
X201310112Y-94449889D01*
X201313181Y-94400711D01*
X201317794Y-94366198D01*
X201324568Y-94341562D01*
X201334119Y-94322016D01*
X201345634Y-94304770D01*
X201401190Y-94249680D01*
X201468980Y-94217822D01*
X201542713Y-94210191D01*
X201616093Y-94227780D01*
X201616093Y-94227780D01*
G37*
X201616093Y-94227780D02*
X201662672Y-94254723D01*
X201695057Y-94281466D01*
X201718742Y-94309484D01*
X201735059Y-94343748D01*
X201745339Y-94389227D01*
X201750914Y-94450892D01*
X201753116Y-94533711D01*
X201753371Y-94593246D01*
X201753371Y-94812391D01*
X201691686Y-94840044D01*
X201630000Y-94867697D01*
X201622743Y-94627670D01*
X201619744Y-94538028D01*
X201616598Y-94472962D01*
X201612701Y-94428026D01*
X201607447Y-94398770D01*
X201600231Y-94380748D01*
X201590450Y-94369511D01*
X201587312Y-94367079D01*
X201539761Y-94348083D01*
X201491697Y-94355600D01*
X201463086Y-94375543D01*
X201451447Y-94389675D01*
X201443391Y-94408220D01*
X201438271Y-94436334D01*
X201435441Y-94479173D01*
X201434256Y-94541895D01*
X201434057Y-94607261D01*
X201434018Y-94689268D01*
X201432614Y-94747316D01*
X201427914Y-94786465D01*
X201417987Y-94811780D01*
X201400903Y-94828323D01*
X201374732Y-94841156D01*
X201339775Y-94854491D01*
X201301596Y-94869007D01*
X201306141Y-94611389D01*
X201307971Y-94518519D01*
X201310112Y-94449889D01*
X201313181Y-94400711D01*
X201317794Y-94366198D01*
X201324568Y-94341562D01*
X201334119Y-94322016D01*
X201345634Y-94304770D01*
X201401190Y-94249680D01*
X201468980Y-94217822D01*
X201542713Y-94210191D01*
X201616093Y-94227780D01*
G36*
X199941115Y-94221962D02*
X200009145Y-94257733D01*
X200059351Y-94315301D01*
X200077185Y-94352312D01*
X200091063Y-94407882D01*
X200098167Y-94478096D01*
X200098840Y-94554727D01*
X200093427Y-94629552D01*
X200082270Y-94694342D01*
X200065714Y-94740873D01*
X200060626Y-94748887D01*
X200000355Y-94808707D01*
X199928769Y-94844535D01*
X199851092Y-94855020D01*
X199772548Y-94838810D01*
X199750689Y-94829092D01*
X199708122Y-94799143D01*
X199670763Y-94759433D01*
X199667232Y-94754397D01*
X199652881Y-94730124D01*
X199643394Y-94704178D01*
X199637790Y-94670022D01*
X199635086Y-94621119D01*
X199634299Y-94550935D01*
X199634286Y-94535200D01*
X199634322Y-94530192D01*
X199779429Y-94530192D01*
X199780273Y-94596430D01*
X199783596Y-94640386D01*
X199790583Y-94668779D01*
X199802416Y-94688325D01*
X199808457Y-94694857D01*
X199843186Y-94719680D01*
X199876903Y-94718548D01*
X199910995Y-94697016D01*
X199931329Y-94674029D01*
X199943371Y-94640478D01*
X199950134Y-94587569D01*
X199950598Y-94581399D01*
X199951752Y-94485513D01*
X199939688Y-94414299D01*
X199914570Y-94368194D01*
X199876560Y-94347635D01*
X199862992Y-94346514D01*
X199827364Y-94352152D01*
X199802994Y-94371686D01*
X199788093Y-94409042D01*
X199780875Y-94468150D01*
X199779429Y-94530192D01*
X199634322Y-94530192D01*
X199634826Y-94460413D01*
X199637096Y-94408159D01*
X199642068Y-94371949D01*
X199650713Y-94345299D01*
X199664005Y-94321722D01*
X199666943Y-94317338D01*
X199716313Y-94258249D01*
X199770109Y-94223947D01*
X199835602Y-94210331D01*
X199857842Y-94209665D01*
X199941115Y-94221962D01*
X199941115Y-94221962D01*
G37*
X199941115Y-94221962D02*
X200009145Y-94257733D01*
X200059351Y-94315301D01*
X200077185Y-94352312D01*
X200091063Y-94407882D01*
X200098167Y-94478096D01*
X200098840Y-94554727D01*
X200093427Y-94629552D01*
X200082270Y-94694342D01*
X200065714Y-94740873D01*
X200060626Y-94748887D01*
X200000355Y-94808707D01*
X199928769Y-94844535D01*
X199851092Y-94855020D01*
X199772548Y-94838810D01*
X199750689Y-94829092D01*
X199708122Y-94799143D01*
X199670763Y-94759433D01*
X199667232Y-94754397D01*
X199652881Y-94730124D01*
X199643394Y-94704178D01*
X199637790Y-94670022D01*
X199635086Y-94621119D01*
X199634299Y-94550935D01*
X199634286Y-94535200D01*
X199634322Y-94530192D01*
X199779429Y-94530192D01*
X199780273Y-94596430D01*
X199783596Y-94640386D01*
X199790583Y-94668779D01*
X199802416Y-94688325D01*
X199808457Y-94694857D01*
X199843186Y-94719680D01*
X199876903Y-94718548D01*
X199910995Y-94697016D01*
X199931329Y-94674029D01*
X199943371Y-94640478D01*
X199950134Y-94587569D01*
X199950598Y-94581399D01*
X199951752Y-94485513D01*
X199939688Y-94414299D01*
X199914570Y-94368194D01*
X199876560Y-94347635D01*
X199862992Y-94346514D01*
X199827364Y-94352152D01*
X199802994Y-94371686D01*
X199788093Y-94409042D01*
X199780875Y-94468150D01*
X199779429Y-94530192D01*
X199634322Y-94530192D01*
X199634826Y-94460413D01*
X199637096Y-94408159D01*
X199642068Y-94371949D01*
X199650713Y-94345299D01*
X199664005Y-94321722D01*
X199666943Y-94317338D01*
X199716313Y-94258249D01*
X199770109Y-94223947D01*
X199835602Y-94210331D01*
X199857842Y-94209665D01*
X199941115Y-94221962D01*
G36*
X201068303Y-94231239D02*
X201125527Y-94269735D01*
X201169749Y-94325335D01*
X201196167Y-94396086D01*
X201201510Y-94448162D01*
X201200903Y-94469893D01*
X201195822Y-94486531D01*
X201181855Y-94501437D01*
X201154589Y-94517973D01*
X201109612Y-94539498D01*
X201042511Y-94569374D01*
X201042171Y-94569524D01*
X200980407Y-94597813D01*
X200929759Y-94622933D01*
X200895404Y-94642179D01*
X200882518Y-94652848D01*
X200882514Y-94652934D01*
X200893872Y-94676166D01*
X200920431Y-94701774D01*
X200950923Y-94720221D01*
X200966370Y-94723886D01*
X201008515Y-94711212D01*
X201044808Y-94679471D01*
X201062517Y-94644572D01*
X201079552Y-94618845D01*
X201112922Y-94589546D01*
X201152149Y-94564235D01*
X201186756Y-94550471D01*
X201193993Y-94549714D01*
X201202139Y-94562160D01*
X201202630Y-94593972D01*
X201196643Y-94636866D01*
X201185357Y-94682558D01*
X201169950Y-94722761D01*
X201169171Y-94724322D01*
X201122804Y-94789062D01*
X201062711Y-94833097D01*
X200994465Y-94854711D01*
X200923638Y-94852185D01*
X200855804Y-94823804D01*
X200852788Y-94821808D01*
X200799427Y-94773448D01*
X200764340Y-94710352D01*
X200744922Y-94627387D01*
X200742316Y-94604078D01*
X200737701Y-94494055D01*
X200743233Y-94442748D01*
X200882514Y-94442748D01*
X200884324Y-94474753D01*
X200894222Y-94484093D01*
X200918898Y-94477105D01*
X200957795Y-94460587D01*
X201001275Y-94439881D01*
X201002356Y-94439333D01*
X201039209Y-94419949D01*
X201054000Y-94407013D01*
X201050353Y-94393451D01*
X201034995Y-94375632D01*
X200995923Y-94349845D01*
X200953846Y-94347950D01*
X200916103Y-94366717D01*
X200890034Y-94402915D01*
X200882514Y-94442748D01*
X200743233Y-94442748D01*
X200747194Y-94406027D01*
X200771550Y-94336212D01*
X200805456Y-94287302D01*
X200866653Y-94237878D01*
X200934063Y-94213359D01*
X201002880Y-94211797D01*
X201068303Y-94231239D01*
X201068303Y-94231239D01*
G37*
X201068303Y-94231239D02*
X201125527Y-94269735D01*
X201169749Y-94325335D01*
X201196167Y-94396086D01*
X201201510Y-94448162D01*
X201200903Y-94469893D01*
X201195822Y-94486531D01*
X201181855Y-94501437D01*
X201154589Y-94517973D01*
X201109612Y-94539498D01*
X201042511Y-94569374D01*
X201042171Y-94569524D01*
X200980407Y-94597813D01*
X200929759Y-94622933D01*
X200895404Y-94642179D01*
X200882518Y-94652848D01*
X200882514Y-94652934D01*
X200893872Y-94676166D01*
X200920431Y-94701774D01*
X200950923Y-94720221D01*
X200966370Y-94723886D01*
X201008515Y-94711212D01*
X201044808Y-94679471D01*
X201062517Y-94644572D01*
X201079552Y-94618845D01*
X201112922Y-94589546D01*
X201152149Y-94564235D01*
X201186756Y-94550471D01*
X201193993Y-94549714D01*
X201202139Y-94562160D01*
X201202630Y-94593972D01*
X201196643Y-94636866D01*
X201185357Y-94682558D01*
X201169950Y-94722761D01*
X201169171Y-94724322D01*
X201122804Y-94789062D01*
X201062711Y-94833097D01*
X200994465Y-94854711D01*
X200923638Y-94852185D01*
X200855804Y-94823804D01*
X200852788Y-94821808D01*
X200799427Y-94773448D01*
X200764340Y-94710352D01*
X200744922Y-94627387D01*
X200742316Y-94604078D01*
X200737701Y-94494055D01*
X200743233Y-94442748D01*
X200882514Y-94442748D01*
X200884324Y-94474753D01*
X200894222Y-94484093D01*
X200918898Y-94477105D01*
X200957795Y-94460587D01*
X201001275Y-94439881D01*
X201002356Y-94439333D01*
X201039209Y-94419949D01*
X201054000Y-94407013D01*
X201050353Y-94393451D01*
X201034995Y-94375632D01*
X200995923Y-94349845D01*
X200953846Y-94347950D01*
X200916103Y-94366717D01*
X200890034Y-94402915D01*
X200882514Y-94442748D01*
X200743233Y-94442748D01*
X200747194Y-94406027D01*
X200771550Y-94336212D01*
X200805456Y-94287302D01*
X200866653Y-94237878D01*
X200934063Y-94213359D01*
X201002880Y-94211797D01*
X201068303Y-94231239D01*
G36*
X202275886Y-94151289D02*
X202280139Y-94210613D01*
X202285025Y-94245572D01*
X202291795Y-94260820D01*
X202301702Y-94261015D01*
X202304914Y-94259195D01*
X202347644Y-94246015D01*
X202403227Y-94246785D01*
X202459737Y-94260333D01*
X202495082Y-94277861D01*
X202531321Y-94305861D01*
X202557813Y-94337549D01*
X202575999Y-94377813D01*
X202587322Y-94431543D01*
X202593222Y-94503626D01*
X202595143Y-94598951D01*
X202595177Y-94617237D01*
X202595200Y-94822646D01*
X202549491Y-94838580D01*
X202517027Y-94849420D01*
X202499215Y-94854468D01*
X202498691Y-94854514D01*
X202496937Y-94840828D01*
X202495444Y-94803076D01*
X202494326Y-94746224D01*
X202493697Y-94675234D01*
X202493600Y-94632073D01*
X202493398Y-94546973D01*
X202492358Y-94485981D01*
X202489831Y-94444177D01*
X202485164Y-94416642D01*
X202477707Y-94398456D01*
X202466811Y-94384698D01*
X202460007Y-94378073D01*
X202413272Y-94351375D01*
X202362272Y-94349375D01*
X202316001Y-94371955D01*
X202307444Y-94380107D01*
X202294893Y-94395436D01*
X202286188Y-94413618D01*
X202280631Y-94439909D01*
X202277526Y-94479562D01*
X202276176Y-94537832D01*
X202275886Y-94618173D01*
X202275886Y-94822646D01*
X202230177Y-94838580D01*
X202197713Y-94849420D01*
X202179901Y-94854468D01*
X202179377Y-94854514D01*
X202178037Y-94840623D01*
X202176828Y-94801439D01*
X202175801Y-94740700D01*
X202175002Y-94662141D01*
X202174481Y-94569498D01*
X202174286Y-94466509D01*
X202174286Y-94069342D01*
X202221457Y-94049444D01*
X202268629Y-94029547D01*
X202275886Y-94151289D01*
X202275886Y-94151289D01*
G37*
X202275886Y-94151289D02*
X202280139Y-94210613D01*
X202285025Y-94245572D01*
X202291795Y-94260820D01*
X202301702Y-94261015D01*
X202304914Y-94259195D01*
X202347644Y-94246015D01*
X202403227Y-94246785D01*
X202459737Y-94260333D01*
X202495082Y-94277861D01*
X202531321Y-94305861D01*
X202557813Y-94337549D01*
X202575999Y-94377813D01*
X202587322Y-94431543D01*
X202593222Y-94503626D01*
X202595143Y-94598951D01*
X202595177Y-94617237D01*
X202595200Y-94822646D01*
X202549491Y-94838580D01*
X202517027Y-94849420D01*
X202499215Y-94854468D01*
X202498691Y-94854514D01*
X202496937Y-94840828D01*
X202495444Y-94803076D01*
X202494326Y-94746224D01*
X202493697Y-94675234D01*
X202493600Y-94632073D01*
X202493398Y-94546973D01*
X202492358Y-94485981D01*
X202489831Y-94444177D01*
X202485164Y-94416642D01*
X202477707Y-94398456D01*
X202466811Y-94384698D01*
X202460007Y-94378073D01*
X202413272Y-94351375D01*
X202362272Y-94349375D01*
X202316001Y-94371955D01*
X202307444Y-94380107D01*
X202294893Y-94395436D01*
X202286188Y-94413618D01*
X202280631Y-94439909D01*
X202277526Y-94479562D01*
X202276176Y-94537832D01*
X202275886Y-94618173D01*
X202275886Y-94822646D01*
X202230177Y-94838580D01*
X202197713Y-94849420D01*
X202179901Y-94854468D01*
X202179377Y-94854514D01*
X202178037Y-94840623D01*
X202176828Y-94801439D01*
X202175801Y-94740700D01*
X202175002Y-94662141D01*
X202174481Y-94569498D01*
X202174286Y-94466509D01*
X202174286Y-94069342D01*
X202221457Y-94049444D01*
X202268629Y-94029547D01*
X202275886Y-94151289D01*
G36*
X202939744Y-94250968D02*
X202996616Y-94272087D01*
X202997267Y-94272493D01*
X203032440Y-94298380D01*
X203058407Y-94328633D01*
X203076670Y-94368058D01*
X203088732Y-94421462D01*
X203096096Y-94493651D01*
X203100264Y-94589432D01*
X203100629Y-94603078D01*
X203105876Y-94808842D01*
X203061716Y-94831678D01*
X203029763Y-94847110D01*
X203010470Y-94854423D01*
X203009578Y-94854514D01*
X203006239Y-94841022D01*
X203003587Y-94804626D01*
X203001956Y-94751452D01*
X203001600Y-94708393D01*
X203001592Y-94638641D01*
X202998403Y-94594837D01*
X202987288Y-94573944D01*
X202963501Y-94572925D01*
X202922296Y-94588741D01*
X202860086Y-94617815D01*
X202814341Y-94641963D01*
X202790813Y-94662913D01*
X202783896Y-94685747D01*
X202783886Y-94686877D01*
X202795299Y-94726212D01*
X202829092Y-94747462D01*
X202880809Y-94750539D01*
X202918061Y-94750006D01*
X202937703Y-94760735D01*
X202949952Y-94786505D01*
X202957002Y-94819337D01*
X202946842Y-94837966D01*
X202943017Y-94840632D01*
X202907001Y-94851340D01*
X202856566Y-94852856D01*
X202804626Y-94845759D01*
X202767822Y-94832788D01*
X202716938Y-94789585D01*
X202688014Y-94729446D01*
X202682286Y-94682462D01*
X202686657Y-94640082D01*
X202702475Y-94605488D01*
X202733797Y-94574763D01*
X202784678Y-94543990D01*
X202859176Y-94509252D01*
X202863714Y-94507288D01*
X202930821Y-94476287D01*
X202972232Y-94450862D01*
X202989981Y-94428014D01*
X202986107Y-94404745D01*
X202962643Y-94378056D01*
X202955627Y-94371914D01*
X202908630Y-94348100D01*
X202859933Y-94349103D01*
X202817522Y-94372451D01*
X202789384Y-94415675D01*
X202786769Y-94424160D01*
X202761308Y-94465308D01*
X202729001Y-94485128D01*
X202682286Y-94504770D01*
X202682286Y-94453950D01*
X202696496Y-94380082D01*
X202738675Y-94312327D01*
X202760624Y-94289661D01*
X202810517Y-94260569D01*
X202873967Y-94247400D01*
X202939744Y-94250968D01*
X202939744Y-94250968D01*
G37*
X202939744Y-94250968D02*
X202996616Y-94272087D01*
X202997267Y-94272493D01*
X203032440Y-94298380D01*
X203058407Y-94328633D01*
X203076670Y-94368058D01*
X203088732Y-94421462D01*
X203096096Y-94493651D01*
X203100264Y-94589432D01*
X203100629Y-94603078D01*
X203105876Y-94808842D01*
X203061716Y-94831678D01*
X203029763Y-94847110D01*
X203010470Y-94854423D01*
X203009578Y-94854514D01*
X203006239Y-94841022D01*
X203003587Y-94804626D01*
X203001956Y-94751452D01*
X203001600Y-94708393D01*
X203001592Y-94638641D01*
X202998403Y-94594837D01*
X202987288Y-94573944D01*
X202963501Y-94572925D01*
X202922296Y-94588741D01*
X202860086Y-94617815D01*
X202814341Y-94641963D01*
X202790813Y-94662913D01*
X202783896Y-94685747D01*
X202783886Y-94686877D01*
X202795299Y-94726212D01*
X202829092Y-94747462D01*
X202880809Y-94750539D01*
X202918061Y-94750006D01*
X202937703Y-94760735D01*
X202949952Y-94786505D01*
X202957002Y-94819337D01*
X202946842Y-94837966D01*
X202943017Y-94840632D01*
X202907001Y-94851340D01*
X202856566Y-94852856D01*
X202804626Y-94845759D01*
X202767822Y-94832788D01*
X202716938Y-94789585D01*
X202688014Y-94729446D01*
X202682286Y-94682462D01*
X202686657Y-94640082D01*
X202702475Y-94605488D01*
X202733797Y-94574763D01*
X202784678Y-94543990D01*
X202859176Y-94509252D01*
X202863714Y-94507288D01*
X202930821Y-94476287D01*
X202972232Y-94450862D01*
X202989981Y-94428014D01*
X202986107Y-94404745D01*
X202962643Y-94378056D01*
X202955627Y-94371914D01*
X202908630Y-94348100D01*
X202859933Y-94349103D01*
X202817522Y-94372451D01*
X202789384Y-94415675D01*
X202786769Y-94424160D01*
X202761308Y-94465308D01*
X202729001Y-94485128D01*
X202682286Y-94504770D01*
X202682286Y-94453950D01*
X202696496Y-94380082D01*
X202738675Y-94312327D01*
X202760624Y-94289661D01*
X202810517Y-94260569D01*
X202873967Y-94247400D01*
X202939744Y-94250968D01*
G36*
X203429926Y-94249755D02*
X203495858Y-94274084D01*
X203549273Y-94317117D01*
X203570164Y-94347409D01*
X203592939Y-94402994D01*
X203592466Y-94443186D01*
X203568562Y-94470217D01*
X203559717Y-94474813D01*
X203521530Y-94489144D01*
X203502028Y-94485472D01*
X203495422Y-94461407D01*
X203495086Y-94448114D01*
X203482992Y-94399210D01*
X203451471Y-94364999D01*
X203407659Y-94348476D01*
X203358695Y-94352634D01*
X203318894Y-94374227D01*
X203305450Y-94386544D01*
X203295921Y-94401487D01*
X203289485Y-94424075D01*
X203285317Y-94459328D01*
X203282597Y-94512266D01*
X203280502Y-94587907D01*
X203279960Y-94611857D01*
X203277981Y-94693790D01*
X203275731Y-94751455D01*
X203272357Y-94789608D01*
X203267006Y-94813004D01*
X203258824Y-94826398D01*
X203246959Y-94834545D01*
X203239362Y-94838144D01*
X203207102Y-94850452D01*
X203188111Y-94854514D01*
X203181836Y-94840948D01*
X203178006Y-94799934D01*
X203176600Y-94730999D01*
X203177598Y-94633669D01*
X203177908Y-94618657D01*
X203180101Y-94529859D01*
X203182693Y-94465019D01*
X203186382Y-94419067D01*
X203191864Y-94386935D01*
X203199835Y-94363553D01*
X203210993Y-94343852D01*
X203216830Y-94335410D01*
X203250296Y-94298057D01*
X203287727Y-94269003D01*
X203292309Y-94266467D01*
X203359426Y-94246443D01*
X203429926Y-94249755D01*
X203429926Y-94249755D01*
G37*
X203429926Y-94249755D02*
X203495858Y-94274084D01*
X203549273Y-94317117D01*
X203570164Y-94347409D01*
X203592939Y-94402994D01*
X203592466Y-94443186D01*
X203568562Y-94470217D01*
X203559717Y-94474813D01*
X203521530Y-94489144D01*
X203502028Y-94485472D01*
X203495422Y-94461407D01*
X203495086Y-94448114D01*
X203482992Y-94399210D01*
X203451471Y-94364999D01*
X203407659Y-94348476D01*
X203358695Y-94352634D01*
X203318894Y-94374227D01*
X203305450Y-94386544D01*
X203295921Y-94401487D01*
X203289485Y-94424075D01*
X203285317Y-94459328D01*
X203282597Y-94512266D01*
X203280502Y-94587907D01*
X203279960Y-94611857D01*
X203277981Y-94693790D01*
X203275731Y-94751455D01*
X203272357Y-94789608D01*
X203267006Y-94813004D01*
X203258824Y-94826398D01*
X203246959Y-94834545D01*
X203239362Y-94838144D01*
X203207102Y-94850452D01*
X203188111Y-94854514D01*
X203181836Y-94840948D01*
X203178006Y-94799934D01*
X203176600Y-94730999D01*
X203177598Y-94633669D01*
X203177908Y-94618657D01*
X203180101Y-94529859D01*
X203182693Y-94465019D01*
X203186382Y-94419067D01*
X203191864Y-94386935D01*
X203199835Y-94363553D01*
X203210993Y-94343852D01*
X203216830Y-94335410D01*
X203250296Y-94298057D01*
X203287727Y-94269003D01*
X203292309Y-94266467D01*
X203359426Y-94246443D01*
X203429926Y-94249755D01*
G36*
X204090117Y-94365358D02*
X204089933Y-94473837D01*
X204089219Y-94557287D01*
X204087675Y-94619704D01*
X204085001Y-94665085D01*
X204080894Y-94697429D01*
X204075055Y-94720733D01*
X204067182Y-94738995D01*
X204061221Y-94749418D01*
X204011855Y-94805945D01*
X203949264Y-94841377D01*
X203880013Y-94854090D01*
X203810668Y-94842463D01*
X203769375Y-94821568D01*
X203726025Y-94785422D01*
X203696481Y-94741276D01*
X203678655Y-94683462D01*
X203670463Y-94606313D01*
X203669302Y-94549714D01*
X203669458Y-94545647D01*
X203770857Y-94545647D01*
X203771476Y-94610550D01*
X203774314Y-94653514D01*
X203780840Y-94681622D01*
X203792523Y-94701953D01*
X203806483Y-94717288D01*
X203853365Y-94746890D01*
X203903701Y-94749419D01*
X203951276Y-94724705D01*
X203954979Y-94721356D01*
X203970783Y-94703935D01*
X203980693Y-94683209D01*
X203986058Y-94652362D01*
X203988228Y-94604577D01*
X203988571Y-94551748D01*
X203987827Y-94485381D01*
X203984748Y-94441106D01*
X203978061Y-94412009D01*
X203966496Y-94391173D01*
X203957013Y-94380107D01*
X203912960Y-94352198D01*
X203862224Y-94348843D01*
X203813796Y-94370159D01*
X203804450Y-94378073D01*
X203788540Y-94395647D01*
X203778610Y-94416587D01*
X203773278Y-94447782D01*
X203771163Y-94496122D01*
X203770857Y-94545647D01*
X203669458Y-94545647D01*
X203672810Y-94458568D01*
X203684726Y-94390086D01*
X203707135Y-94338600D01*
X203742124Y-94298443D01*
X203769375Y-94277861D01*
X203818907Y-94255625D01*
X203876316Y-94245304D01*
X203929682Y-94248067D01*
X203959543Y-94259212D01*
X203971261Y-94262383D01*
X203979037Y-94250557D01*
X203984465Y-94218866D01*
X203988571Y-94170593D01*
X203993067Y-94116829D01*
X203999313Y-94084482D01*
X204010676Y-94065985D01*
X204030528Y-94053770D01*
X204043000Y-94048362D01*
X204090171Y-94028601D01*
X204090117Y-94365358D01*
X204090117Y-94365358D01*
G37*
X204090117Y-94365358D02*
X204089933Y-94473837D01*
X204089219Y-94557287D01*
X204087675Y-94619704D01*
X204085001Y-94665085D01*
X204080894Y-94697429D01*
X204075055Y-94720733D01*
X204067182Y-94738995D01*
X204061221Y-94749418D01*
X204011855Y-94805945D01*
X203949264Y-94841377D01*
X203880013Y-94854090D01*
X203810668Y-94842463D01*
X203769375Y-94821568D01*
X203726025Y-94785422D01*
X203696481Y-94741276D01*
X203678655Y-94683462D01*
X203670463Y-94606313D01*
X203669302Y-94549714D01*
X203669458Y-94545647D01*
X203770857Y-94545647D01*
X203771476Y-94610550D01*
X203774314Y-94653514D01*
X203780840Y-94681622D01*
X203792523Y-94701953D01*
X203806483Y-94717288D01*
X203853365Y-94746890D01*
X203903701Y-94749419D01*
X203951276Y-94724705D01*
X203954979Y-94721356D01*
X203970783Y-94703935D01*
X203980693Y-94683209D01*
X203986058Y-94652362D01*
X203988228Y-94604577D01*
X203988571Y-94551748D01*
X203987827Y-94485381D01*
X203984748Y-94441106D01*
X203978061Y-94412009D01*
X203966496Y-94391173D01*
X203957013Y-94380107D01*
X203912960Y-94352198D01*
X203862224Y-94348843D01*
X203813796Y-94370159D01*
X203804450Y-94378073D01*
X203788540Y-94395647D01*
X203778610Y-94416587D01*
X203773278Y-94447782D01*
X203771163Y-94496122D01*
X203770857Y-94545647D01*
X203669458Y-94545647D01*
X203672810Y-94458568D01*
X203684726Y-94390086D01*
X203707135Y-94338600D01*
X203742124Y-94298443D01*
X203769375Y-94277861D01*
X203818907Y-94255625D01*
X203876316Y-94245304D01*
X203929682Y-94248067D01*
X203959543Y-94259212D01*
X203971261Y-94262383D01*
X203979037Y-94250557D01*
X203984465Y-94218866D01*
X203988571Y-94170593D01*
X203993067Y-94116829D01*
X203999313Y-94084482D01*
X204010676Y-94065985D01*
X204030528Y-94053770D01*
X204043000Y-94048362D01*
X204090171Y-94028601D01*
X204090117Y-94365358D01*
G36*
X204679833Y-94258663D02*
X204682048Y-94296850D01*
X204683784Y-94354886D01*
X204684899Y-94428180D01*
X204685257Y-94505055D01*
X204685257Y-94765196D01*
X204639326Y-94811127D01*
X204607675Y-94839429D01*
X204579890Y-94850893D01*
X204541915Y-94850168D01*
X204526840Y-94848321D01*
X204479726Y-94842948D01*
X204440756Y-94839869D01*
X204431257Y-94839585D01*
X204399233Y-94841445D01*
X204353432Y-94846114D01*
X204335674Y-94848321D01*
X204292057Y-94851735D01*
X204262745Y-94844320D01*
X204233680Y-94821427D01*
X204223188Y-94811127D01*
X204177257Y-94765196D01*
X204177257Y-94278602D01*
X204214226Y-94261758D01*
X204246059Y-94249282D01*
X204264683Y-94244914D01*
X204269458Y-94258718D01*
X204273921Y-94297286D01*
X204277775Y-94356356D01*
X204280722Y-94431663D01*
X204282143Y-94495286D01*
X204286114Y-94745657D01*
X204320759Y-94750556D01*
X204352268Y-94747131D01*
X204367708Y-94736041D01*
X204372023Y-94715308D01*
X204375708Y-94671145D01*
X204378469Y-94609146D01*
X204380012Y-94534909D01*
X204380235Y-94496706D01*
X204380457Y-94276783D01*
X204426166Y-94260849D01*
X204458518Y-94250015D01*
X204476115Y-94244962D01*
X204476623Y-94244914D01*
X204478388Y-94258648D01*
X204480329Y-94296730D01*
X204482282Y-94354482D01*
X204484084Y-94427227D01*
X204485343Y-94495286D01*
X204489314Y-94745657D01*
X204576400Y-94745657D01*
X204580396Y-94517240D01*
X204584392Y-94288822D01*
X204626847Y-94266868D01*
X204658192Y-94251793D01*
X204676744Y-94244951D01*
X204677279Y-94244914D01*
X204679833Y-94258663D01*
X204679833Y-94258663D01*
G37*
X204679833Y-94258663D02*
X204682048Y-94296850D01*
X204683784Y-94354886D01*
X204684899Y-94428180D01*
X204685257Y-94505055D01*
X204685257Y-94765196D01*
X204639326Y-94811127D01*
X204607675Y-94839429D01*
X204579890Y-94850893D01*
X204541915Y-94850168D01*
X204526840Y-94848321D01*
X204479726Y-94842948D01*
X204440756Y-94839869D01*
X204431257Y-94839585D01*
X204399233Y-94841445D01*
X204353432Y-94846114D01*
X204335674Y-94848321D01*
X204292057Y-94851735D01*
X204262745Y-94844320D01*
X204233680Y-94821427D01*
X204223188Y-94811127D01*
X204177257Y-94765196D01*
X204177257Y-94278602D01*
X204214226Y-94261758D01*
X204246059Y-94249282D01*
X204264683Y-94244914D01*
X204269458Y-94258718D01*
X204273921Y-94297286D01*
X204277775Y-94356356D01*
X204280722Y-94431663D01*
X204282143Y-94495286D01*
X204286114Y-94745657D01*
X204320759Y-94750556D01*
X204352268Y-94747131D01*
X204367708Y-94736041D01*
X204372023Y-94715308D01*
X204375708Y-94671145D01*
X204378469Y-94609146D01*
X204380012Y-94534909D01*
X204380235Y-94496706D01*
X204380457Y-94276783D01*
X204426166Y-94260849D01*
X204458518Y-94250015D01*
X204476115Y-94244962D01*
X204476623Y-94244914D01*
X204478388Y-94258648D01*
X204480329Y-94296730D01*
X204482282Y-94354482D01*
X204484084Y-94427227D01*
X204485343Y-94495286D01*
X204489314Y-94745657D01*
X204576400Y-94745657D01*
X204580396Y-94517240D01*
X204584392Y-94288822D01*
X204626847Y-94266868D01*
X204658192Y-94251793D01*
X204676744Y-94244951D01*
X204677279Y-94244914D01*
X204679833Y-94258663D01*
G36*
X205044876Y-94256335D02*
X205086667Y-94275344D01*
X205119469Y-94298378D01*
X205143503Y-94324133D01*
X205160097Y-94357358D01*
X205170577Y-94402800D01*
X205176271Y-94465207D01*
X205178507Y-94549327D01*
X205178743Y-94604721D01*
X205178743Y-94820826D01*
X205141774Y-94837670D01*
X205112656Y-94849981D01*
X205098231Y-94854514D01*
X205095472Y-94841025D01*
X205093282Y-94804653D01*
X205091942Y-94751542D01*
X205091657Y-94709372D01*
X205090434Y-94648447D01*
X205087136Y-94600115D01*
X205082321Y-94570518D01*
X205078496Y-94564229D01*
X205052783Y-94570652D01*
X205012418Y-94587125D01*
X204965679Y-94609458D01*
X204920845Y-94633457D01*
X204886193Y-94654930D01*
X204870002Y-94669685D01*
X204869938Y-94669845D01*
X204871330Y-94697152D01*
X204883818Y-94723219D01*
X204905743Y-94744392D01*
X204937743Y-94751474D01*
X204965092Y-94750649D01*
X205003826Y-94750042D01*
X205024158Y-94759116D01*
X205036369Y-94783092D01*
X205037909Y-94787613D01*
X205043203Y-94821806D01*
X205029047Y-94842568D01*
X204992148Y-94852462D01*
X204952289Y-94854292D01*
X204880562Y-94840727D01*
X204843432Y-94821355D01*
X204797576Y-94775845D01*
X204773256Y-94719983D01*
X204771073Y-94660957D01*
X204791629Y-94605953D01*
X204822549Y-94571486D01*
X204853420Y-94552189D01*
X204901942Y-94527759D01*
X204958485Y-94502985D01*
X204967910Y-94499199D01*
X205030019Y-94471791D01*
X205065822Y-94447634D01*
X205077337Y-94423619D01*
X205066580Y-94396635D01*
X205048114Y-94375543D01*
X205004469Y-94349572D01*
X204956446Y-94347624D01*
X204912406Y-94367637D01*
X204880709Y-94407551D01*
X204876549Y-94417848D01*
X204852327Y-94455724D01*
X204816965Y-94483842D01*
X204772343Y-94506917D01*
X204772343Y-94441485D01*
X204774969Y-94401506D01*
X204786230Y-94369997D01*
X204811199Y-94336378D01*
X204835169Y-94310484D01*
X204872441Y-94273817D01*
X204901401Y-94254121D01*
X204932505Y-94246220D01*
X204967713Y-94244914D01*
X205044876Y-94256335D01*
X205044876Y-94256335D01*
G37*
X205044876Y-94256335D02*
X205086667Y-94275344D01*
X205119469Y-94298378D01*
X205143503Y-94324133D01*
X205160097Y-94357358D01*
X205170577Y-94402800D01*
X205176271Y-94465207D01*
X205178507Y-94549327D01*
X205178743Y-94604721D01*
X205178743Y-94820826D01*
X205141774Y-94837670D01*
X205112656Y-94849981D01*
X205098231Y-94854514D01*
X205095472Y-94841025D01*
X205093282Y-94804653D01*
X205091942Y-94751542D01*
X205091657Y-94709372D01*
X205090434Y-94648447D01*
X205087136Y-94600115D01*
X205082321Y-94570518D01*
X205078496Y-94564229D01*
X205052783Y-94570652D01*
X205012418Y-94587125D01*
X204965679Y-94609458D01*
X204920845Y-94633457D01*
X204886193Y-94654930D01*
X204870002Y-94669685D01*
X204869938Y-94669845D01*
X204871330Y-94697152D01*
X204883818Y-94723219D01*
X204905743Y-94744392D01*
X204937743Y-94751474D01*
X204965092Y-94750649D01*
X205003826Y-94750042D01*
X205024158Y-94759116D01*
X205036369Y-94783092D01*
X205037909Y-94787613D01*
X205043203Y-94821806D01*
X205029047Y-94842568D01*
X204992148Y-94852462D01*
X204952289Y-94854292D01*
X204880562Y-94840727D01*
X204843432Y-94821355D01*
X204797576Y-94775845D01*
X204773256Y-94719983D01*
X204771073Y-94660957D01*
X204791629Y-94605953D01*
X204822549Y-94571486D01*
X204853420Y-94552189D01*
X204901942Y-94527759D01*
X204958485Y-94502985D01*
X204967910Y-94499199D01*
X205030019Y-94471791D01*
X205065822Y-94447634D01*
X205077337Y-94423619D01*
X205066580Y-94396635D01*
X205048114Y-94375543D01*
X205004469Y-94349572D01*
X204956446Y-94347624D01*
X204912406Y-94367637D01*
X204880709Y-94407551D01*
X204876549Y-94417848D01*
X204852327Y-94455724D01*
X204816965Y-94483842D01*
X204772343Y-94506917D01*
X204772343Y-94441485D01*
X204774969Y-94401506D01*
X204786230Y-94369997D01*
X204811199Y-94336378D01*
X204835169Y-94310484D01*
X204872441Y-94273817D01*
X204901401Y-94254121D01*
X204932505Y-94246220D01*
X204967713Y-94244914D01*
X205044876Y-94256335D01*
G36*
X205552600Y-94258752D02*
X205569948Y-94266334D01*
X205611356Y-94299128D01*
X205646765Y-94346547D01*
X205668664Y-94397151D01*
X205672229Y-94422098D01*
X205660279Y-94456927D01*
X205634067Y-94475357D01*
X205605964Y-94486516D01*
X205593095Y-94488572D01*
X205586829Y-94473649D01*
X205574456Y-94441175D01*
X205569028Y-94426502D01*
X205538590Y-94375744D01*
X205494520Y-94350427D01*
X205438010Y-94351206D01*
X205433825Y-94352203D01*
X205403655Y-94366507D01*
X205381476Y-94394393D01*
X205366327Y-94439287D01*
X205357250Y-94504615D01*
X205353286Y-94593804D01*
X205352914Y-94641261D01*
X205352730Y-94716071D01*
X205351522Y-94767069D01*
X205348309Y-94799471D01*
X205342109Y-94818495D01*
X205331940Y-94829356D01*
X205316819Y-94837272D01*
X205315946Y-94837670D01*
X205286828Y-94849981D01*
X205272403Y-94854514D01*
X205270186Y-94840809D01*
X205268289Y-94802925D01*
X205266847Y-94745715D01*
X205265998Y-94674027D01*
X205265829Y-94621565D01*
X205266692Y-94520047D01*
X205270070Y-94443032D01*
X205277142Y-94386023D01*
X205289088Y-94344526D01*
X205307090Y-94314043D01*
X205332327Y-94290080D01*
X205357247Y-94273355D01*
X205417171Y-94251097D01*
X205486911Y-94246076D01*
X205552600Y-94258752D01*
X205552600Y-94258752D01*
G37*
X205552600Y-94258752D02*
X205569948Y-94266334D01*
X205611356Y-94299128D01*
X205646765Y-94346547D01*
X205668664Y-94397151D01*
X205672229Y-94422098D01*
X205660279Y-94456927D01*
X205634067Y-94475357D01*
X205605964Y-94486516D01*
X205593095Y-94488572D01*
X205586829Y-94473649D01*
X205574456Y-94441175D01*
X205569028Y-94426502D01*
X205538590Y-94375744D01*
X205494520Y-94350427D01*
X205438010Y-94351206D01*
X205433825Y-94352203D01*
X205403655Y-94366507D01*
X205381476Y-94394393D01*
X205366327Y-94439287D01*
X205357250Y-94504615D01*
X205353286Y-94593804D01*
X205352914Y-94641261D01*
X205352730Y-94716071D01*
X205351522Y-94767069D01*
X205348309Y-94799471D01*
X205342109Y-94818495D01*
X205331940Y-94829356D01*
X205316819Y-94837272D01*
X205315946Y-94837670D01*
X205286828Y-94849981D01*
X205272403Y-94854514D01*
X205270186Y-94840809D01*
X205268289Y-94802925D01*
X205266847Y-94745715D01*
X205265998Y-94674027D01*
X205265829Y-94621565D01*
X205266692Y-94520047D01*
X205270070Y-94443032D01*
X205277142Y-94386023D01*
X205289088Y-94344526D01*
X205307090Y-94314043D01*
X205332327Y-94290080D01*
X205357247Y-94273355D01*
X205417171Y-94251097D01*
X205486911Y-94246076D01*
X205552600Y-94258752D01*
G36*
X206053595Y-94266966D02*
X206111021Y-94304497D01*
X206138719Y-94338096D01*
X206160662Y-94399064D01*
X206162405Y-94447308D01*
X206158457Y-94511816D01*
X206009686Y-94576934D01*
X205937349Y-94610202D01*
X205890084Y-94636964D01*
X205865507Y-94660144D01*
X205861237Y-94682667D01*
X205874889Y-94707455D01*
X205889943Y-94723886D01*
X205933746Y-94750235D01*
X205981389Y-94752081D01*
X206025145Y-94731546D01*
X206057289Y-94690752D01*
X206063038Y-94676347D01*
X206090576Y-94631356D01*
X206122258Y-94612182D01*
X206165714Y-94595779D01*
X206165714Y-94657966D01*
X206161872Y-94700283D01*
X206146823Y-94735969D01*
X206115280Y-94776943D01*
X206110592Y-94782267D01*
X206075506Y-94818720D01*
X206045347Y-94838283D01*
X206007615Y-94847283D01*
X205976335Y-94850230D01*
X205920385Y-94850965D01*
X205880555Y-94841660D01*
X205855708Y-94827846D01*
X205816656Y-94797467D01*
X205789625Y-94764613D01*
X205772517Y-94723294D01*
X205763238Y-94667521D01*
X205759693Y-94591305D01*
X205759410Y-94552622D01*
X205760372Y-94506247D01*
X205848007Y-94506247D01*
X205849023Y-94531126D01*
X205851556Y-94535200D01*
X205868274Y-94529665D01*
X205904249Y-94515017D01*
X205952331Y-94494190D01*
X205962386Y-94489714D01*
X206023152Y-94458814D01*
X206056632Y-94431657D01*
X206063990Y-94406220D01*
X206046391Y-94380481D01*
X206031856Y-94369109D01*
X205979410Y-94346364D01*
X205930322Y-94350122D01*
X205889227Y-94377884D01*
X205860758Y-94427152D01*
X205851631Y-94466257D01*
X205848007Y-94506247D01*
X205760372Y-94506247D01*
X205761285Y-94462249D01*
X205768196Y-94395384D01*
X205781884Y-94346695D01*
X205804096Y-94310849D01*
X205836574Y-94282513D01*
X205850733Y-94273355D01*
X205915053Y-94249507D01*
X205985473Y-94248006D01*
X206053595Y-94266966D01*
X206053595Y-94266966D01*
G37*
X206053595Y-94266966D02*
X206111021Y-94304497D01*
X206138719Y-94338096D01*
X206160662Y-94399064D01*
X206162405Y-94447308D01*
X206158457Y-94511816D01*
X206009686Y-94576934D01*
X205937349Y-94610202D01*
X205890084Y-94636964D01*
X205865507Y-94660144D01*
X205861237Y-94682667D01*
X205874889Y-94707455D01*
X205889943Y-94723886D01*
X205933746Y-94750235D01*
X205981389Y-94752081D01*
X206025145Y-94731546D01*
X206057289Y-94690752D01*
X206063038Y-94676347D01*
X206090576Y-94631356D01*
X206122258Y-94612182D01*
X206165714Y-94595779D01*
X206165714Y-94657966D01*
X206161872Y-94700283D01*
X206146823Y-94735969D01*
X206115280Y-94776943D01*
X206110592Y-94782267D01*
X206075506Y-94818720D01*
X206045347Y-94838283D01*
X206007615Y-94847283D01*
X205976335Y-94850230D01*
X205920385Y-94850965D01*
X205880555Y-94841660D01*
X205855708Y-94827846D01*
X205816656Y-94797467D01*
X205789625Y-94764613D01*
X205772517Y-94723294D01*
X205763238Y-94667521D01*
X205759693Y-94591305D01*
X205759410Y-94552622D01*
X205760372Y-94506247D01*
X205848007Y-94506247D01*
X205849023Y-94531126D01*
X205851556Y-94535200D01*
X205868274Y-94529665D01*
X205904249Y-94515017D01*
X205952331Y-94494190D01*
X205962386Y-94489714D01*
X206023152Y-94458814D01*
X206056632Y-94431657D01*
X206063990Y-94406220D01*
X206046391Y-94380481D01*
X206031856Y-94369109D01*
X205979410Y-94346364D01*
X205930322Y-94350122D01*
X205889227Y-94377884D01*
X205860758Y-94427152D01*
X205851631Y-94466257D01*
X205848007Y-94506247D01*
X205760372Y-94506247D01*
X205761285Y-94462249D01*
X205768196Y-94395384D01*
X205781884Y-94346695D01*
X205804096Y-94310849D01*
X205836574Y-94282513D01*
X205850733Y-94273355D01*
X205915053Y-94249507D01*
X205985473Y-94248006D01*
X206053595Y-94266966D01*
G36*
X203003910Y-89542348D02*
X203082454Y-89542778D01*
X203139298Y-89543942D01*
X203178105Y-89546207D01*
X203202538Y-89549940D01*
X203216262Y-89555506D01*
X203222940Y-89563273D01*
X203226236Y-89573605D01*
X203226556Y-89574943D01*
X203231562Y-89599079D01*
X203240829Y-89646701D01*
X203253392Y-89712741D01*
X203268287Y-89792128D01*
X203284551Y-89879796D01*
X203285119Y-89882875D01*
X203301410Y-89968789D01*
X203316652Y-90044696D01*
X203329861Y-90106045D01*
X203340054Y-90148282D01*
X203346248Y-90166855D01*
X203346543Y-90167184D01*
X203364788Y-90176253D01*
X203402405Y-90191367D01*
X203451271Y-90209262D01*
X203451543Y-90209358D01*
X203513093Y-90232493D01*
X203585657Y-90261965D01*
X203654057Y-90291597D01*
X203657294Y-90293062D01*
X203768702Y-90343626D01*
X204015399Y-90175160D01*
X204091077Y-90123803D01*
X204159631Y-90077889D01*
X204217088Y-90040030D01*
X204259476Y-90012837D01*
X204282825Y-89998921D01*
X204285042Y-89997889D01*
X204302010Y-90002484D01*
X204333701Y-90024655D01*
X204381352Y-90065447D01*
X204446198Y-90125905D01*
X204512397Y-90190227D01*
X204576214Y-90253612D01*
X204633329Y-90311451D01*
X204680305Y-90360175D01*
X204713703Y-90396210D01*
X204730085Y-90415984D01*
X204730694Y-90417002D01*
X204732505Y-90430572D01*
X204725683Y-90452733D01*
X204708540Y-90486478D01*
X204679393Y-90534800D01*
X204636555Y-90600692D01*
X204579448Y-90685517D01*
X204528766Y-90760177D01*
X204483461Y-90827140D01*
X204446150Y-90882516D01*
X204419452Y-90922420D01*
X204405985Y-90942962D01*
X204405137Y-90944356D01*
X204406781Y-90964038D01*
X204419245Y-91002293D01*
X204440048Y-91051889D01*
X204447462Y-91067728D01*
X204479814Y-91138290D01*
X204514328Y-91218353D01*
X204542365Y-91287629D01*
X204562568Y-91339045D01*
X204578615Y-91378119D01*
X204587888Y-91398541D01*
X204589041Y-91400114D01*
X204606096Y-91402721D01*
X204646298Y-91409863D01*
X204704302Y-91420523D01*
X204774763Y-91433685D01*
X204852335Y-91448333D01*
X204931672Y-91463449D01*
X205007431Y-91478018D01*
X205074264Y-91491022D01*
X205126828Y-91501445D01*
X205159776Y-91508270D01*
X205167857Y-91510199D01*
X205176205Y-91514962D01*
X205182506Y-91525718D01*
X205187045Y-91546098D01*
X205190104Y-91579734D01*
X205191967Y-91630255D01*
X205192918Y-91701292D01*
X205193240Y-91796476D01*
X205193257Y-91835492D01*
X205193257Y-92152799D01*
X205117057Y-92167839D01*
X205074663Y-92175995D01*
X205011400Y-92187899D01*
X204934962Y-92202116D01*
X204853043Y-92217210D01*
X204830400Y-92221355D01*
X204754806Y-92236053D01*
X204688953Y-92250505D01*
X204638366Y-92263375D01*
X204608574Y-92273322D01*
X204603612Y-92276287D01*
X204591426Y-92297283D01*
X204573953Y-92337967D01*
X204554577Y-92390322D01*
X204550734Y-92401600D01*
X204525339Y-92471523D01*
X204493817Y-92550418D01*
X204462969Y-92621266D01*
X204462817Y-92621595D01*
X204411447Y-92732733D01*
X204580399Y-92981253D01*
X204749352Y-93229772D01*
X204532429Y-93447058D01*
X204466819Y-93511726D01*
X204406979Y-93568733D01*
X204356267Y-93615033D01*
X204318046Y-93647584D01*
X204295675Y-93663343D01*
X204292466Y-93664343D01*
X204273626Y-93656469D01*
X204235180Y-93634578D01*
X204181330Y-93601267D01*
X204116276Y-93559131D01*
X204045940Y-93511943D01*
X203974555Y-93463810D01*
X203910908Y-93421928D01*
X203859041Y-93388871D01*
X203822995Y-93367218D01*
X203806867Y-93359543D01*
X203787189Y-93366037D01*
X203749875Y-93383150D01*
X203702621Y-93407326D01*
X203697612Y-93410013D01*
X203633977Y-93441927D01*
X203590341Y-93457579D01*
X203563202Y-93457745D01*
X203549057Y-93443204D01*
X203548975Y-93443000D01*
X203541905Y-93425779D01*
X203525042Y-93384899D01*
X203499695Y-93323525D01*
X203467171Y-93244819D01*
X203428778Y-93151947D01*
X203385822Y-93048072D01*
X203344222Y-92947502D01*
X203298504Y-92836516D01*
X203256526Y-92733703D01*
X203219548Y-92642215D01*
X203188827Y-92565201D01*
X203165622Y-92505815D01*
X203151190Y-92467209D01*
X203146743Y-92452800D01*
X203157896Y-92436272D01*
X203187069Y-92409930D01*
X203225971Y-92380887D01*
X203336757Y-92289039D01*
X203423351Y-92183759D01*
X203484716Y-92067266D01*
X203519815Y-91941776D01*
X203527608Y-91809507D01*
X203521943Y-91748457D01*
X203491078Y-91621795D01*
X203437920Y-91509941D01*
X203365767Y-91414001D01*
X203277917Y-91335076D01*
X203177665Y-91274270D01*
X203068310Y-91232687D01*
X202953147Y-91211428D01*
X202835475Y-91211599D01*
X202718590Y-91234301D01*
X202605789Y-91280638D01*
X202500369Y-91351713D01*
X202456368Y-91391911D01*
X202371979Y-91495129D01*
X202313222Y-91607925D01*
X202279704Y-91727010D01*
X202271035Y-91849095D01*
X202286823Y-91970893D01*
X202326678Y-92089116D01*
X202390207Y-92200475D01*
X202477021Y-92301684D01*
X202574029Y-92380887D01*
X202614437Y-92411162D01*
X202642982Y-92437219D01*
X202653257Y-92452825D01*
X202647877Y-92469843D01*
X202632575Y-92510500D01*
X202608612Y-92571642D01*
X202577244Y-92650119D01*
X202539732Y-92742780D01*
X202497333Y-92846472D01*
X202455663Y-92947526D01*
X202409690Y-93058607D01*
X202367107Y-93161541D01*
X202329221Y-93253165D01*
X202297340Y-93330316D01*
X202272771Y-93389831D01*
X202256820Y-93428544D01*
X202250910Y-93443000D01*
X202236948Y-93457685D01*
X202209940Y-93457642D01*
X202166413Y-93442099D01*
X202102890Y-93410284D01*
X202102388Y-93410013D01*
X202054560Y-93385323D01*
X202015897Y-93367338D01*
X201994095Y-93359614D01*
X201993133Y-93359543D01*
X201976721Y-93367378D01*
X201940487Y-93389165D01*
X201888474Y-93422328D01*
X201824725Y-93464291D01*
X201754060Y-93511943D01*
X201682116Y-93560191D01*
X201617274Y-93602151D01*
X201563735Y-93635227D01*
X201525697Y-93656821D01*
X201507533Y-93664343D01*
X201490808Y-93654457D01*
X201457180Y-93626826D01*
X201410010Y-93584495D01*
X201352658Y-93530505D01*
X201288484Y-93467899D01*
X201267497Y-93446983D01*
X201050499Y-93229623D01*
X201215668Y-92987220D01*
X201265864Y-92912781D01*
X201309919Y-92845972D01*
X201345362Y-92790665D01*
X201369719Y-92750729D01*
X201380522Y-92730036D01*
X201380838Y-92728563D01*
X201375143Y-92709058D01*
X201359826Y-92669822D01*
X201337537Y-92617430D01*
X201321893Y-92582355D01*
X201292641Y-92515201D01*
X201265094Y-92447358D01*
X201243737Y-92390034D01*
X201237935Y-92372572D01*
X201221452Y-92325938D01*
X201205340Y-92289905D01*
X201196490Y-92276287D01*
X201176960Y-92267952D01*
X201134334Y-92256137D01*
X201074145Y-92242181D01*
X201001922Y-92227422D01*
X200969600Y-92221355D01*
X200887522Y-92206273D01*
X200808795Y-92191669D01*
X200741109Y-92178980D01*
X200692160Y-92169642D01*
X200682943Y-92167839D01*
X200606743Y-92152799D01*
X200606743Y-91835492D01*
X200606914Y-91731154D01*
X200607616Y-91652213D01*
X200609134Y-91595038D01*
X200611749Y-91555999D01*
X200615746Y-91531465D01*
X200621409Y-91517805D01*
X200629020Y-91511389D01*
X200632143Y-91510199D01*
X200650978Y-91505980D01*
X200692588Y-91497562D01*
X200751630Y-91485961D01*
X200822757Y-91472195D01*
X200900625Y-91457280D01*
X200979887Y-91442232D01*
X201055198Y-91428069D01*
X201121213Y-91415806D01*
X201172587Y-91406461D01*
X201203975Y-91401050D01*
X201210959Y-91400114D01*
X201217285Y-91387596D01*
X201231290Y-91354246D01*
X201250355Y-91306377D01*
X201257634Y-91287629D01*
X201286996Y-91215195D01*
X201321571Y-91135170D01*
X201352537Y-91067728D01*
X201375323Y-91016159D01*
X201390482Y-90973785D01*
X201395542Y-90947834D01*
X201394736Y-90944356D01*
X201384041Y-90927936D01*
X201359620Y-90891417D01*
X201324095Y-90838687D01*
X201280087Y-90773635D01*
X201230217Y-90700151D01*
X201220356Y-90685645D01*
X201162492Y-90599704D01*
X201119956Y-90534261D01*
X201091054Y-90486304D01*
X201074090Y-90452820D01*
X201067367Y-90430795D01*
X201069190Y-90417217D01*
X201069236Y-90417131D01*
X201083586Y-90399297D01*
X201115323Y-90364817D01*
X201161010Y-90317268D01*
X201217204Y-90260222D01*
X201280468Y-90197255D01*
X201287602Y-90190227D01*
X201367330Y-90113020D01*
X201428857Y-90056330D01*
X201473421Y-90019110D01*
X201502257Y-90000315D01*
X201514958Y-89997889D01*
X201533494Y-90008471D01*
X201571961Y-90032916D01*
X201626386Y-90068612D01*
X201692798Y-90112947D01*
X201767225Y-90163311D01*
X201784601Y-90175160D01*
X202031297Y-90343626D01*
X202142706Y-90293062D01*
X202210457Y-90263595D01*
X202283183Y-90233959D01*
X202345703Y-90210330D01*
X202348457Y-90209358D01*
X202397360Y-90191457D01*
X202435057Y-90176320D01*
X202453425Y-90167210D01*
X202453456Y-90167184D01*
X202459285Y-90150717D01*
X202469192Y-90110219D01*
X202482195Y-90050242D01*
X202497309Y-89975340D01*
X202513552Y-89890064D01*
X202514881Y-89882875D01*
X202531175Y-89795014D01*
X202546133Y-89715260D01*
X202558791Y-89648681D01*
X202568186Y-89600347D01*
X202573354Y-89575325D01*
X202573444Y-89574943D01*
X202576589Y-89564299D01*
X202582704Y-89556262D01*
X202595453Y-89550467D01*
X202618500Y-89546547D01*
X202655509Y-89544135D01*
X202710144Y-89542865D01*
X202786067Y-89542371D01*
X202886944Y-89542286D01*
X202900000Y-89542286D01*
X203003910Y-89542348D01*
X203003910Y-89542348D01*
G37*
X203003910Y-89542348D02*
X203082454Y-89542778D01*
X203139298Y-89543942D01*
X203178105Y-89546207D01*
X203202538Y-89549940D01*
X203216262Y-89555506D01*
X203222940Y-89563273D01*
X203226236Y-89573605D01*
X203226556Y-89574943D01*
X203231562Y-89599079D01*
X203240829Y-89646701D01*
X203253392Y-89712741D01*
X203268287Y-89792128D01*
X203284551Y-89879796D01*
X203285119Y-89882875D01*
X203301410Y-89968789D01*
X203316652Y-90044696D01*
X203329861Y-90106045D01*
X203340054Y-90148282D01*
X203346248Y-90166855D01*
X203346543Y-90167184D01*
X203364788Y-90176253D01*
X203402405Y-90191367D01*
X203451271Y-90209262D01*
X203451543Y-90209358D01*
X203513093Y-90232493D01*
X203585657Y-90261965D01*
X203654057Y-90291597D01*
X203657294Y-90293062D01*
X203768702Y-90343626D01*
X204015399Y-90175160D01*
X204091077Y-90123803D01*
X204159631Y-90077889D01*
X204217088Y-90040030D01*
X204259476Y-90012837D01*
X204282825Y-89998921D01*
X204285042Y-89997889D01*
X204302010Y-90002484D01*
X204333701Y-90024655D01*
X204381352Y-90065447D01*
X204446198Y-90125905D01*
X204512397Y-90190227D01*
X204576214Y-90253612D01*
X204633329Y-90311451D01*
X204680305Y-90360175D01*
X204713703Y-90396210D01*
X204730085Y-90415984D01*
X204730694Y-90417002D01*
X204732505Y-90430572D01*
X204725683Y-90452733D01*
X204708540Y-90486478D01*
X204679393Y-90534800D01*
X204636555Y-90600692D01*
X204579448Y-90685517D01*
X204528766Y-90760177D01*
X204483461Y-90827140D01*
X204446150Y-90882516D01*
X204419452Y-90922420D01*
X204405985Y-90942962D01*
X204405137Y-90944356D01*
X204406781Y-90964038D01*
X204419245Y-91002293D01*
X204440048Y-91051889D01*
X204447462Y-91067728D01*
X204479814Y-91138290D01*
X204514328Y-91218353D01*
X204542365Y-91287629D01*
X204562568Y-91339045D01*
X204578615Y-91378119D01*
X204587888Y-91398541D01*
X204589041Y-91400114D01*
X204606096Y-91402721D01*
X204646298Y-91409863D01*
X204704302Y-91420523D01*
X204774763Y-91433685D01*
X204852335Y-91448333D01*
X204931672Y-91463449D01*
X205007431Y-91478018D01*
X205074264Y-91491022D01*
X205126828Y-91501445D01*
X205159776Y-91508270D01*
X205167857Y-91510199D01*
X205176205Y-91514962D01*
X205182506Y-91525718D01*
X205187045Y-91546098D01*
X205190104Y-91579734D01*
X205191967Y-91630255D01*
X205192918Y-91701292D01*
X205193240Y-91796476D01*
X205193257Y-91835492D01*
X205193257Y-92152799D01*
X205117057Y-92167839D01*
X205074663Y-92175995D01*
X205011400Y-92187899D01*
X204934962Y-92202116D01*
X204853043Y-92217210D01*
X204830400Y-92221355D01*
X204754806Y-92236053D01*
X204688953Y-92250505D01*
X204638366Y-92263375D01*
X204608574Y-92273322D01*
X204603612Y-92276287D01*
X204591426Y-92297283D01*
X204573953Y-92337967D01*
X204554577Y-92390322D01*
X204550734Y-92401600D01*
X204525339Y-92471523D01*
X204493817Y-92550418D01*
X204462969Y-92621266D01*
X204462817Y-92621595D01*
X204411447Y-92732733D01*
X204580399Y-92981253D01*
X204749352Y-93229772D01*
X204532429Y-93447058D01*
X204466819Y-93511726D01*
X204406979Y-93568733D01*
X204356267Y-93615033D01*
X204318046Y-93647584D01*
X204295675Y-93663343D01*
X204292466Y-93664343D01*
X204273626Y-93656469D01*
X204235180Y-93634578D01*
X204181330Y-93601267D01*
X204116276Y-93559131D01*
X204045940Y-93511943D01*
X203974555Y-93463810D01*
X203910908Y-93421928D01*
X203859041Y-93388871D01*
X203822995Y-93367218D01*
X203806867Y-93359543D01*
X203787189Y-93366037D01*
X203749875Y-93383150D01*
X203702621Y-93407326D01*
X203697612Y-93410013D01*
X203633977Y-93441927D01*
X203590341Y-93457579D01*
X203563202Y-93457745D01*
X203549057Y-93443204D01*
X203548975Y-93443000D01*
X203541905Y-93425779D01*
X203525042Y-93384899D01*
X203499695Y-93323525D01*
X203467171Y-93244819D01*
X203428778Y-93151947D01*
X203385822Y-93048072D01*
X203344222Y-92947502D01*
X203298504Y-92836516D01*
X203256526Y-92733703D01*
X203219548Y-92642215D01*
X203188827Y-92565201D01*
X203165622Y-92505815D01*
X203151190Y-92467209D01*
X203146743Y-92452800D01*
X203157896Y-92436272D01*
X203187069Y-92409930D01*
X203225971Y-92380887D01*
X203336757Y-92289039D01*
X203423351Y-92183759D01*
X203484716Y-92067266D01*
X203519815Y-91941776D01*
X203527608Y-91809507D01*
X203521943Y-91748457D01*
X203491078Y-91621795D01*
X203437920Y-91509941D01*
X203365767Y-91414001D01*
X203277917Y-91335076D01*
X203177665Y-91274270D01*
X203068310Y-91232687D01*
X202953147Y-91211428D01*
X202835475Y-91211599D01*
X202718590Y-91234301D01*
X202605789Y-91280638D01*
X202500369Y-91351713D01*
X202456368Y-91391911D01*
X202371979Y-91495129D01*
X202313222Y-91607925D01*
X202279704Y-91727010D01*
X202271035Y-91849095D01*
X202286823Y-91970893D01*
X202326678Y-92089116D01*
X202390207Y-92200475D01*
X202477021Y-92301684D01*
X202574029Y-92380887D01*
X202614437Y-92411162D01*
X202642982Y-92437219D01*
X202653257Y-92452825D01*
X202647877Y-92469843D01*
X202632575Y-92510500D01*
X202608612Y-92571642D01*
X202577244Y-92650119D01*
X202539732Y-92742780D01*
X202497333Y-92846472D01*
X202455663Y-92947526D01*
X202409690Y-93058607D01*
X202367107Y-93161541D01*
X202329221Y-93253165D01*
X202297340Y-93330316D01*
X202272771Y-93389831D01*
X202256820Y-93428544D01*
X202250910Y-93443000D01*
X202236948Y-93457685D01*
X202209940Y-93457642D01*
X202166413Y-93442099D01*
X202102890Y-93410284D01*
X202102388Y-93410013D01*
X202054560Y-93385323D01*
X202015897Y-93367338D01*
X201994095Y-93359614D01*
X201993133Y-93359543D01*
X201976721Y-93367378D01*
X201940487Y-93389165D01*
X201888474Y-93422328D01*
X201824725Y-93464291D01*
X201754060Y-93511943D01*
X201682116Y-93560191D01*
X201617274Y-93602151D01*
X201563735Y-93635227D01*
X201525697Y-93656821D01*
X201507533Y-93664343D01*
X201490808Y-93654457D01*
X201457180Y-93626826D01*
X201410010Y-93584495D01*
X201352658Y-93530505D01*
X201288484Y-93467899D01*
X201267497Y-93446983D01*
X201050499Y-93229623D01*
X201215668Y-92987220D01*
X201265864Y-92912781D01*
X201309919Y-92845972D01*
X201345362Y-92790665D01*
X201369719Y-92750729D01*
X201380522Y-92730036D01*
X201380838Y-92728563D01*
X201375143Y-92709058D01*
X201359826Y-92669822D01*
X201337537Y-92617430D01*
X201321893Y-92582355D01*
X201292641Y-92515201D01*
X201265094Y-92447358D01*
X201243737Y-92390034D01*
X201237935Y-92372572D01*
X201221452Y-92325938D01*
X201205340Y-92289905D01*
X201196490Y-92276287D01*
X201176960Y-92267952D01*
X201134334Y-92256137D01*
X201074145Y-92242181D01*
X201001922Y-92227422D01*
X200969600Y-92221355D01*
X200887522Y-92206273D01*
X200808795Y-92191669D01*
X200741109Y-92178980D01*
X200692160Y-92169642D01*
X200682943Y-92167839D01*
X200606743Y-92152799D01*
X200606743Y-91835492D01*
X200606914Y-91731154D01*
X200607616Y-91652213D01*
X200609134Y-91595038D01*
X200611749Y-91555999D01*
X200615746Y-91531465D01*
X200621409Y-91517805D01*
X200629020Y-91511389D01*
X200632143Y-91510199D01*
X200650978Y-91505980D01*
X200692588Y-91497562D01*
X200751630Y-91485961D01*
X200822757Y-91472195D01*
X200900625Y-91457280D01*
X200979887Y-91442232D01*
X201055198Y-91428069D01*
X201121213Y-91415806D01*
X201172587Y-91406461D01*
X201203975Y-91401050D01*
X201210959Y-91400114D01*
X201217285Y-91387596D01*
X201231290Y-91354246D01*
X201250355Y-91306377D01*
X201257634Y-91287629D01*
X201286996Y-91215195D01*
X201321571Y-91135170D01*
X201352537Y-91067728D01*
X201375323Y-91016159D01*
X201390482Y-90973785D01*
X201395542Y-90947834D01*
X201394736Y-90944356D01*
X201384041Y-90927936D01*
X201359620Y-90891417D01*
X201324095Y-90838687D01*
X201280087Y-90773635D01*
X201230217Y-90700151D01*
X201220356Y-90685645D01*
X201162492Y-90599704D01*
X201119956Y-90534261D01*
X201091054Y-90486304D01*
X201074090Y-90452820D01*
X201067367Y-90430795D01*
X201069190Y-90417217D01*
X201069236Y-90417131D01*
X201083586Y-90399297D01*
X201115323Y-90364817D01*
X201161010Y-90317268D01*
X201217204Y-90260222D01*
X201280468Y-90197255D01*
X201287602Y-90190227D01*
X201367330Y-90113020D01*
X201428857Y-90056330D01*
X201473421Y-90019110D01*
X201502257Y-90000315D01*
X201514958Y-89997889D01*
X201533494Y-90008471D01*
X201571961Y-90032916D01*
X201626386Y-90068612D01*
X201692798Y-90112947D01*
X201767225Y-90163311D01*
X201784601Y-90175160D01*
X202031297Y-90343626D01*
X202142706Y-90293062D01*
X202210457Y-90263595D01*
X202283183Y-90233959D01*
X202345703Y-90210330D01*
X202348457Y-90209358D01*
X202397360Y-90191457D01*
X202435057Y-90176320D01*
X202453425Y-90167210D01*
X202453456Y-90167184D01*
X202459285Y-90150717D01*
X202469192Y-90110219D01*
X202482195Y-90050242D01*
X202497309Y-89975340D01*
X202513552Y-89890064D01*
X202514881Y-89882875D01*
X202531175Y-89795014D01*
X202546133Y-89715260D01*
X202558791Y-89648681D01*
X202568186Y-89600347D01*
X202573354Y-89575325D01*
X202573444Y-89574943D01*
X202576589Y-89564299D01*
X202582704Y-89556262D01*
X202595453Y-89550467D01*
X202618500Y-89546547D01*
X202655509Y-89544135D01*
X202710144Y-89542865D01*
X202786067Y-89542371D01*
X202886944Y-89542286D01*
X202900000Y-89542286D01*
X203003910Y-89542348D01*
G04 #@! TO.C,C1*
D14*
X168673333Y-81797142D02*
X168625714Y-81844761D01*
X168482857Y-81892380D01*
X168387619Y-81892380D01*
X168244761Y-81844761D01*
X168149523Y-81749523D01*
X168101904Y-81654285D01*
X168054285Y-81463809D01*
X168054285Y-81320952D01*
X168101904Y-81130476D01*
X168149523Y-81035238D01*
X168244761Y-80940000D01*
X168387619Y-80892380D01*
X168482857Y-80892380D01*
X168625714Y-80940000D01*
X168673333Y-80987619D01*
X169625714Y-81892380D02*
X169054285Y-81892380D01*
X169340000Y-81892380D02*
X169340000Y-80892380D01*
X169244761Y-81035238D01*
X169149523Y-81130476D01*
X169054285Y-81178095D01*
G04 #@! TO.C,C2*
X198983333Y-59627142D02*
X198935714Y-59674761D01*
X198792857Y-59722380D01*
X198697619Y-59722380D01*
X198554761Y-59674761D01*
X198459523Y-59579523D01*
X198411904Y-59484285D01*
X198364285Y-59293809D01*
X198364285Y-59150952D01*
X198411904Y-58960476D01*
X198459523Y-58865238D01*
X198554761Y-58770000D01*
X198697619Y-58722380D01*
X198792857Y-58722380D01*
X198935714Y-58770000D01*
X198983333Y-58817619D01*
X199364285Y-58817619D02*
X199411904Y-58770000D01*
X199507142Y-58722380D01*
X199745238Y-58722380D01*
X199840476Y-58770000D01*
X199888095Y-58817619D01*
X199935714Y-58912857D01*
X199935714Y-59008095D01*
X199888095Y-59150952D01*
X199316666Y-59722380D01*
X199935714Y-59722380D01*
G04 #@! TO.C,C3*
X183733333Y-83357142D02*
X183685714Y-83404761D01*
X183542857Y-83452380D01*
X183447619Y-83452380D01*
X183304761Y-83404761D01*
X183209523Y-83309523D01*
X183161904Y-83214285D01*
X183114285Y-83023809D01*
X183114285Y-82880952D01*
X183161904Y-82690476D01*
X183209523Y-82595238D01*
X183304761Y-82500000D01*
X183447619Y-82452380D01*
X183542857Y-82452380D01*
X183685714Y-82500000D01*
X183733333Y-82547619D01*
X184066666Y-82452380D02*
X184685714Y-82452380D01*
X184352380Y-82833333D01*
X184495238Y-82833333D01*
X184590476Y-82880952D01*
X184638095Y-82928571D01*
X184685714Y-83023809D01*
X184685714Y-83261904D01*
X184638095Y-83357142D01*
X184590476Y-83404761D01*
X184495238Y-83452380D01*
X184209523Y-83452380D01*
X184114285Y-83404761D01*
X184066666Y-83357142D01*
G04 #@! TO.C,C4*
X168673333Y-78027142D02*
X168625714Y-78074761D01*
X168482857Y-78122380D01*
X168387619Y-78122380D01*
X168244761Y-78074761D01*
X168149523Y-77979523D01*
X168101904Y-77884285D01*
X168054285Y-77693809D01*
X168054285Y-77550952D01*
X168101904Y-77360476D01*
X168149523Y-77265238D01*
X168244761Y-77170000D01*
X168387619Y-77122380D01*
X168482857Y-77122380D01*
X168625714Y-77170000D01*
X168673333Y-77217619D01*
X169530476Y-77455714D02*
X169530476Y-78122380D01*
X169292380Y-77074761D02*
X169054285Y-77789047D01*
X169673333Y-77789047D01*
G04 #@! TO.C,C5*
X178797142Y-73436666D02*
X178844761Y-73484285D01*
X178892380Y-73627142D01*
X178892380Y-73722380D01*
X178844761Y-73865238D01*
X178749523Y-73960476D01*
X178654285Y-74008095D01*
X178463809Y-74055714D01*
X178320952Y-74055714D01*
X178130476Y-74008095D01*
X178035238Y-73960476D01*
X177940000Y-73865238D01*
X177892380Y-73722380D01*
X177892380Y-73627142D01*
X177940000Y-73484285D01*
X177987619Y-73436666D01*
X177892380Y-72531904D02*
X177892380Y-73008095D01*
X178368571Y-73055714D01*
X178320952Y-73008095D01*
X178273333Y-72912857D01*
X178273333Y-72674761D01*
X178320952Y-72579523D01*
X178368571Y-72531904D01*
X178463809Y-72484285D01*
X178701904Y-72484285D01*
X178797142Y-72531904D01*
X178844761Y-72579523D01*
X178892380Y-72674761D01*
X178892380Y-72912857D01*
X178844761Y-73008095D01*
X178797142Y-73055714D01*
G04 #@! TO.C,C6*
X192733333Y-56507142D02*
X192685714Y-56554761D01*
X192542857Y-56602380D01*
X192447619Y-56602380D01*
X192304761Y-56554761D01*
X192209523Y-56459523D01*
X192161904Y-56364285D01*
X192114285Y-56173809D01*
X192114285Y-56030952D01*
X192161904Y-55840476D01*
X192209523Y-55745238D01*
X192304761Y-55650000D01*
X192447619Y-55602380D01*
X192542857Y-55602380D01*
X192685714Y-55650000D01*
X192733333Y-55697619D01*
X193590476Y-55602380D02*
X193400000Y-55602380D01*
X193304761Y-55650000D01*
X193257142Y-55697619D01*
X193161904Y-55840476D01*
X193114285Y-56030952D01*
X193114285Y-56411904D01*
X193161904Y-56507142D01*
X193209523Y-56554761D01*
X193304761Y-56602380D01*
X193495238Y-56602380D01*
X193590476Y-56554761D01*
X193638095Y-56507142D01*
X193685714Y-56411904D01*
X193685714Y-56173809D01*
X193638095Y-56078571D01*
X193590476Y-56030952D01*
X193495238Y-55983333D01*
X193304761Y-55983333D01*
X193209523Y-56030952D01*
X193161904Y-56078571D01*
X193114285Y-56173809D01*
G04 #@! TO.C,C7*
X174003333Y-68587142D02*
X173955714Y-68634761D01*
X173812857Y-68682380D01*
X173717619Y-68682380D01*
X173574761Y-68634761D01*
X173479523Y-68539523D01*
X173431904Y-68444285D01*
X173384285Y-68253809D01*
X173384285Y-68110952D01*
X173431904Y-67920476D01*
X173479523Y-67825238D01*
X173574761Y-67730000D01*
X173717619Y-67682380D01*
X173812857Y-67682380D01*
X173955714Y-67730000D01*
X174003333Y-67777619D01*
X174336666Y-67682380D02*
X175003333Y-67682380D01*
X174574761Y-68682380D01*
G04 #@! TO.C,C8*
X193977142Y-63666666D02*
X194024761Y-63714285D01*
X194072380Y-63857142D01*
X194072380Y-63952380D01*
X194024761Y-64095238D01*
X193929523Y-64190476D01*
X193834285Y-64238095D01*
X193643809Y-64285714D01*
X193500952Y-64285714D01*
X193310476Y-64238095D01*
X193215238Y-64190476D01*
X193120000Y-64095238D01*
X193072380Y-63952380D01*
X193072380Y-63857142D01*
X193120000Y-63714285D01*
X193167619Y-63666666D01*
X193500952Y-63095238D02*
X193453333Y-63190476D01*
X193405714Y-63238095D01*
X193310476Y-63285714D01*
X193262857Y-63285714D01*
X193167619Y-63238095D01*
X193120000Y-63190476D01*
X193072380Y-63095238D01*
X193072380Y-62904761D01*
X193120000Y-62809523D01*
X193167619Y-62761904D01*
X193262857Y-62714285D01*
X193310476Y-62714285D01*
X193405714Y-62761904D01*
X193453333Y-62809523D01*
X193500952Y-62904761D01*
X193500952Y-63095238D01*
X193548571Y-63190476D01*
X193596190Y-63238095D01*
X193691428Y-63285714D01*
X193881904Y-63285714D01*
X193977142Y-63238095D01*
X194024761Y-63190476D01*
X194072380Y-63095238D01*
X194072380Y-62904761D01*
X194024761Y-62809523D01*
X193977142Y-62761904D01*
X193881904Y-62714285D01*
X193691428Y-62714285D01*
X193596190Y-62761904D01*
X193548571Y-62809523D01*
X193500952Y-62904761D01*
G04 #@! TO.C,C9*
X185157142Y-85166666D02*
X185204761Y-85214285D01*
X185252380Y-85357142D01*
X185252380Y-85452380D01*
X185204761Y-85595238D01*
X185109523Y-85690476D01*
X185014285Y-85738095D01*
X184823809Y-85785714D01*
X184680952Y-85785714D01*
X184490476Y-85738095D01*
X184395238Y-85690476D01*
X184300000Y-85595238D01*
X184252380Y-85452380D01*
X184252380Y-85357142D01*
X184300000Y-85214285D01*
X184347619Y-85166666D01*
X185252380Y-84690476D02*
X185252380Y-84500000D01*
X185204761Y-84404761D01*
X185157142Y-84357142D01*
X185014285Y-84261904D01*
X184823809Y-84214285D01*
X184442857Y-84214285D01*
X184347619Y-84261904D01*
X184300000Y-84309523D01*
X184252380Y-84404761D01*
X184252380Y-84595238D01*
X184300000Y-84690476D01*
X184347619Y-84738095D01*
X184442857Y-84785714D01*
X184680952Y-84785714D01*
X184776190Y-84738095D01*
X184823809Y-84690476D01*
X184871428Y-84595238D01*
X184871428Y-84404761D01*
X184823809Y-84309523D01*
X184776190Y-84261904D01*
X184680952Y-84214285D01*
G04 #@! TO.C,C10*
X195847142Y-74672857D02*
X195894761Y-74720476D01*
X195942380Y-74863333D01*
X195942380Y-74958571D01*
X195894761Y-75101428D01*
X195799523Y-75196666D01*
X195704285Y-75244285D01*
X195513809Y-75291904D01*
X195370952Y-75291904D01*
X195180476Y-75244285D01*
X195085238Y-75196666D01*
X194990000Y-75101428D01*
X194942380Y-74958571D01*
X194942380Y-74863333D01*
X194990000Y-74720476D01*
X195037619Y-74672857D01*
X195942380Y-73720476D02*
X195942380Y-74291904D01*
X195942380Y-74006190D02*
X194942380Y-74006190D01*
X195085238Y-74101428D01*
X195180476Y-74196666D01*
X195228095Y-74291904D01*
X194942380Y-73101428D02*
X194942380Y-73006190D01*
X194990000Y-72910952D01*
X195037619Y-72863333D01*
X195132857Y-72815714D01*
X195323333Y-72768095D01*
X195561428Y-72768095D01*
X195751904Y-72815714D01*
X195847142Y-72863333D01*
X195894761Y-72910952D01*
X195942380Y-73006190D01*
X195942380Y-73101428D01*
X195894761Y-73196666D01*
X195847142Y-73244285D01*
X195751904Y-73291904D01*
X195561428Y-73339523D01*
X195323333Y-73339523D01*
X195132857Y-73291904D01*
X195037619Y-73244285D01*
X194990000Y-73196666D01*
X194942380Y-73101428D01*
G04 #@! TO.C,C11*
X194577142Y-83967142D02*
X194529523Y-84014761D01*
X194386666Y-84062380D01*
X194291428Y-84062380D01*
X194148571Y-84014761D01*
X194053333Y-83919523D01*
X194005714Y-83824285D01*
X193958095Y-83633809D01*
X193958095Y-83490952D01*
X194005714Y-83300476D01*
X194053333Y-83205238D01*
X194148571Y-83110000D01*
X194291428Y-83062380D01*
X194386666Y-83062380D01*
X194529523Y-83110000D01*
X194577142Y-83157619D01*
X195529523Y-84062380D02*
X194958095Y-84062380D01*
X195243809Y-84062380D02*
X195243809Y-83062380D01*
X195148571Y-83205238D01*
X195053333Y-83300476D01*
X194958095Y-83348095D01*
X196481904Y-84062380D02*
X195910476Y-84062380D01*
X196196190Y-84062380D02*
X196196190Y-83062380D01*
X196100952Y-83205238D01*
X196005714Y-83300476D01*
X195910476Y-83348095D01*
G04 #@! TO.C,J1*
X204916666Y-57622380D02*
X204916666Y-58336666D01*
X204869047Y-58479523D01*
X204773809Y-58574761D01*
X204630952Y-58622380D01*
X204535714Y-58622380D01*
X205916666Y-58622380D02*
X205345238Y-58622380D01*
X205630952Y-58622380D02*
X205630952Y-57622380D01*
X205535714Y-57765238D01*
X205440476Y-57860476D01*
X205345238Y-57908095D01*
G04 #@! TO.C,J2*
X167006666Y-57602380D02*
X167006666Y-58316666D01*
X166959047Y-58459523D01*
X166863809Y-58554761D01*
X166720952Y-58602380D01*
X166625714Y-58602380D01*
X167435238Y-57697619D02*
X167482857Y-57650000D01*
X167578095Y-57602380D01*
X167816190Y-57602380D01*
X167911428Y-57650000D01*
X167959047Y-57697619D01*
X168006666Y-57792857D01*
X168006666Y-57888095D01*
X167959047Y-58030952D01*
X167387619Y-58602380D01*
X168006666Y-58602380D01*
G04 #@! TO.C,J3*
X188866666Y-93952380D02*
X188866666Y-94666666D01*
X188819047Y-94809523D01*
X188723809Y-94904761D01*
X188580952Y-94952380D01*
X188485714Y-94952380D01*
X189247619Y-93952380D02*
X189866666Y-93952380D01*
X189533333Y-94333333D01*
X189676190Y-94333333D01*
X189771428Y-94380952D01*
X189819047Y-94428571D01*
X189866666Y-94523809D01*
X189866666Y-94761904D01*
X189819047Y-94857142D01*
X189771428Y-94904761D01*
X189676190Y-94952380D01*
X189390476Y-94952380D01*
X189295238Y-94904761D01*
X189247619Y-94857142D01*
G04 #@! TO.C,R1*
X174753333Y-81922380D02*
X174420000Y-81446190D01*
X174181904Y-81922380D02*
X174181904Y-80922380D01*
X174562857Y-80922380D01*
X174658095Y-80970000D01*
X174705714Y-81017619D01*
X174753333Y-81112857D01*
X174753333Y-81255714D01*
X174705714Y-81350952D01*
X174658095Y-81398571D01*
X174562857Y-81446190D01*
X174181904Y-81446190D01*
X175705714Y-81922380D02*
X175134285Y-81922380D01*
X175420000Y-81922380D02*
X175420000Y-80922380D01*
X175324761Y-81065238D01*
X175229523Y-81160476D01*
X175134285Y-81208095D01*
G04 #@! TO.C,R2*
X200602380Y-67096666D02*
X200126190Y-67430000D01*
X200602380Y-67668095D02*
X199602380Y-67668095D01*
X199602380Y-67287142D01*
X199650000Y-67191904D01*
X199697619Y-67144285D01*
X199792857Y-67096666D01*
X199935714Y-67096666D01*
X200030952Y-67144285D01*
X200078571Y-67191904D01*
X200126190Y-67287142D01*
X200126190Y-67668095D01*
X199697619Y-66715714D02*
X199650000Y-66668095D01*
X199602380Y-66572857D01*
X199602380Y-66334761D01*
X199650000Y-66239523D01*
X199697619Y-66191904D01*
X199792857Y-66144285D01*
X199888095Y-66144285D01*
X200030952Y-66191904D01*
X200602380Y-66763333D01*
X200602380Y-66144285D01*
G04 #@! TO.C,R3*
X174663333Y-79952380D02*
X174330000Y-79476190D01*
X174091904Y-79952380D02*
X174091904Y-78952380D01*
X174472857Y-78952380D01*
X174568095Y-79000000D01*
X174615714Y-79047619D01*
X174663333Y-79142857D01*
X174663333Y-79285714D01*
X174615714Y-79380952D01*
X174568095Y-79428571D01*
X174472857Y-79476190D01*
X174091904Y-79476190D01*
X174996666Y-78952380D02*
X175615714Y-78952380D01*
X175282380Y-79333333D01*
X175425238Y-79333333D01*
X175520476Y-79380952D01*
X175568095Y-79428571D01*
X175615714Y-79523809D01*
X175615714Y-79761904D01*
X175568095Y-79857142D01*
X175520476Y-79904761D01*
X175425238Y-79952380D01*
X175139523Y-79952380D01*
X175044285Y-79904761D01*
X174996666Y-79857142D01*
G04 #@! TO.C,R4*
X198702380Y-67176666D02*
X198226190Y-67510000D01*
X198702380Y-67748095D02*
X197702380Y-67748095D01*
X197702380Y-67367142D01*
X197750000Y-67271904D01*
X197797619Y-67224285D01*
X197892857Y-67176666D01*
X198035714Y-67176666D01*
X198130952Y-67224285D01*
X198178571Y-67271904D01*
X198226190Y-67367142D01*
X198226190Y-67748095D01*
X198035714Y-66319523D02*
X198702380Y-66319523D01*
X197654761Y-66557619D02*
X198369047Y-66795714D01*
X198369047Y-66176666D01*
G04 #@! TO.C,R5*
X174713333Y-78002380D02*
X174380000Y-77526190D01*
X174141904Y-78002380D02*
X174141904Y-77002380D01*
X174522857Y-77002380D01*
X174618095Y-77050000D01*
X174665714Y-77097619D01*
X174713333Y-77192857D01*
X174713333Y-77335714D01*
X174665714Y-77430952D01*
X174618095Y-77478571D01*
X174522857Y-77526190D01*
X174141904Y-77526190D01*
X175618095Y-77002380D02*
X175141904Y-77002380D01*
X175094285Y-77478571D01*
X175141904Y-77430952D01*
X175237142Y-77383333D01*
X175475238Y-77383333D01*
X175570476Y-77430952D01*
X175618095Y-77478571D01*
X175665714Y-77573809D01*
X175665714Y-77811904D01*
X175618095Y-77907142D01*
X175570476Y-77954761D01*
X175475238Y-78002380D01*
X175237142Y-78002380D01*
X175141904Y-77954761D01*
X175094285Y-77907142D01*
G04 #@! TO.C,R6*
X194413333Y-79832380D02*
X194080000Y-79356190D01*
X193841904Y-79832380D02*
X193841904Y-78832380D01*
X194222857Y-78832380D01*
X194318095Y-78880000D01*
X194365714Y-78927619D01*
X194413333Y-79022857D01*
X194413333Y-79165714D01*
X194365714Y-79260952D01*
X194318095Y-79308571D01*
X194222857Y-79356190D01*
X193841904Y-79356190D01*
X195270476Y-78832380D02*
X195080000Y-78832380D01*
X194984761Y-78880000D01*
X194937142Y-78927619D01*
X194841904Y-79070476D01*
X194794285Y-79260952D01*
X194794285Y-79641904D01*
X194841904Y-79737142D01*
X194889523Y-79784761D01*
X194984761Y-79832380D01*
X195175238Y-79832380D01*
X195270476Y-79784761D01*
X195318095Y-79737142D01*
X195365714Y-79641904D01*
X195365714Y-79403809D01*
X195318095Y-79308571D01*
X195270476Y-79260952D01*
X195175238Y-79213333D01*
X194984761Y-79213333D01*
X194889523Y-79260952D01*
X194841904Y-79308571D01*
X194794285Y-79403809D01*
G04 #@! TO.C,R7*
X194823333Y-59532380D02*
X194490000Y-59056190D01*
X194251904Y-59532380D02*
X194251904Y-58532380D01*
X194632857Y-58532380D01*
X194728095Y-58580000D01*
X194775714Y-58627619D01*
X194823333Y-58722857D01*
X194823333Y-58865714D01*
X194775714Y-58960952D01*
X194728095Y-59008571D01*
X194632857Y-59056190D01*
X194251904Y-59056190D01*
X195156666Y-58532380D02*
X195823333Y-58532380D01*
X195394761Y-59532380D01*
G04 #@! TO.C,R8*
X195942380Y-63716666D02*
X195466190Y-64050000D01*
X195942380Y-64288095D02*
X194942380Y-64288095D01*
X194942380Y-63907142D01*
X194990000Y-63811904D01*
X195037619Y-63764285D01*
X195132857Y-63716666D01*
X195275714Y-63716666D01*
X195370952Y-63764285D01*
X195418571Y-63811904D01*
X195466190Y-63907142D01*
X195466190Y-64288095D01*
X195370952Y-63145238D02*
X195323333Y-63240476D01*
X195275714Y-63288095D01*
X195180476Y-63335714D01*
X195132857Y-63335714D01*
X195037619Y-63288095D01*
X194990000Y-63240476D01*
X194942380Y-63145238D01*
X194942380Y-62954761D01*
X194990000Y-62859523D01*
X195037619Y-62811904D01*
X195132857Y-62764285D01*
X195180476Y-62764285D01*
X195275714Y-62811904D01*
X195323333Y-62859523D01*
X195370952Y-62954761D01*
X195370952Y-63145238D01*
X195418571Y-63240476D01*
X195466190Y-63288095D01*
X195561428Y-63335714D01*
X195751904Y-63335714D01*
X195847142Y-63288095D01*
X195894761Y-63240476D01*
X195942380Y-63145238D01*
X195942380Y-62954761D01*
X195894761Y-62859523D01*
X195847142Y-62811904D01*
X195751904Y-62764285D01*
X195561428Y-62764285D01*
X195466190Y-62811904D01*
X195418571Y-62859523D01*
X195370952Y-62954761D01*
G04 #@! TO.C,R9*
X194032380Y-73986666D02*
X193556190Y-74320000D01*
X194032380Y-74558095D02*
X193032380Y-74558095D01*
X193032380Y-74177142D01*
X193080000Y-74081904D01*
X193127619Y-74034285D01*
X193222857Y-73986666D01*
X193365714Y-73986666D01*
X193460952Y-74034285D01*
X193508571Y-74081904D01*
X193556190Y-74177142D01*
X193556190Y-74558095D01*
X194032380Y-73510476D02*
X194032380Y-73320000D01*
X193984761Y-73224761D01*
X193937142Y-73177142D01*
X193794285Y-73081904D01*
X193603809Y-73034285D01*
X193222857Y-73034285D01*
X193127619Y-73081904D01*
X193080000Y-73129523D01*
X193032380Y-73224761D01*
X193032380Y-73415238D01*
X193080000Y-73510476D01*
X193127619Y-73558095D01*
X193222857Y-73605714D01*
X193460952Y-73605714D01*
X193556190Y-73558095D01*
X193603809Y-73510476D01*
X193651428Y-73415238D01*
X193651428Y-73224761D01*
X193603809Y-73129523D01*
X193556190Y-73081904D01*
X193460952Y-73034285D01*
G04 #@! TO.C,R10*
X187252380Y-85242857D02*
X186776190Y-85576190D01*
X187252380Y-85814285D02*
X186252380Y-85814285D01*
X186252380Y-85433333D01*
X186300000Y-85338095D01*
X186347619Y-85290476D01*
X186442857Y-85242857D01*
X186585714Y-85242857D01*
X186680952Y-85290476D01*
X186728571Y-85338095D01*
X186776190Y-85433333D01*
X186776190Y-85814285D01*
X187252380Y-84290476D02*
X187252380Y-84861904D01*
X187252380Y-84576190D02*
X186252380Y-84576190D01*
X186395238Y-84671428D01*
X186490476Y-84766666D01*
X186538095Y-84861904D01*
X186252380Y-83671428D02*
X186252380Y-83576190D01*
X186300000Y-83480952D01*
X186347619Y-83433333D01*
X186442857Y-83385714D01*
X186633333Y-83338095D01*
X186871428Y-83338095D01*
X187061904Y-83385714D01*
X187157142Y-83433333D01*
X187204761Y-83480952D01*
X187252380Y-83576190D01*
X187252380Y-83671428D01*
X187204761Y-83766666D01*
X187157142Y-83814285D01*
X187061904Y-83861904D01*
X186871428Y-83909523D01*
X186633333Y-83909523D01*
X186442857Y-83861904D01*
X186347619Y-83814285D01*
X186300000Y-83766666D01*
X186252380Y-83671428D01*
G04 #@! TO.C,R11*
X188952380Y-85242857D02*
X188476190Y-85576190D01*
X188952380Y-85814285D02*
X187952380Y-85814285D01*
X187952380Y-85433333D01*
X188000000Y-85338095D01*
X188047619Y-85290476D01*
X188142857Y-85242857D01*
X188285714Y-85242857D01*
X188380952Y-85290476D01*
X188428571Y-85338095D01*
X188476190Y-85433333D01*
X188476190Y-85814285D01*
X188952380Y-84290476D02*
X188952380Y-84861904D01*
X188952380Y-84576190D02*
X187952380Y-84576190D01*
X188095238Y-84671428D01*
X188190476Y-84766666D01*
X188238095Y-84861904D01*
X188952380Y-83338095D02*
X188952380Y-83909523D01*
X188952380Y-83623809D02*
X187952380Y-83623809D01*
X188095238Y-83719047D01*
X188190476Y-83814285D01*
X188238095Y-83909523D01*
G04 #@! TO.C,RV1*
X201284761Y-68882380D02*
X200951428Y-68406190D01*
X200713333Y-68882380D02*
X200713333Y-67882380D01*
X201094285Y-67882380D01*
X201189523Y-67930000D01*
X201237142Y-67977619D01*
X201284761Y-68072857D01*
X201284761Y-68215714D01*
X201237142Y-68310952D01*
X201189523Y-68358571D01*
X201094285Y-68406190D01*
X200713333Y-68406190D01*
X201570476Y-67882380D02*
X201903809Y-68882380D01*
X202237142Y-67882380D01*
X203094285Y-68882380D02*
X202522857Y-68882380D01*
X202808571Y-68882380D02*
X202808571Y-67882380D01*
X202713333Y-68025238D01*
X202618095Y-68120476D01*
X202522857Y-68168095D01*
G04 #@! TO.C,U1*
X185058095Y-69822380D02*
X185058095Y-70631904D01*
X185105714Y-70727142D01*
X185153333Y-70774761D01*
X185248571Y-70822380D01*
X185439047Y-70822380D01*
X185534285Y-70774761D01*
X185581904Y-70727142D01*
X185629523Y-70631904D01*
X185629523Y-69822380D01*
X186629523Y-70822380D02*
X186058095Y-70822380D01*
X186343809Y-70822380D02*
X186343809Y-69822380D01*
X186248571Y-69965238D01*
X186153333Y-70060476D01*
X186058095Y-70108095D01*
G04 #@! TD*
M02*
