M48
METRIC,TZ
T1C0.400
T2C0.800
T3C1.000
T4C1.200
%
G90
G05
T1
X198950Y-67060
T2
X172920Y-62920
X175420Y-62920
X185840Y-77900
X188340Y-77900
X182010Y-60420
X182010Y-62960
X182010Y-65500
X182010Y-68040
X189630Y-60420
X189630Y-62960
X189630Y-65500
X189630Y-68040
X193970Y-88920
X196470Y-88920
T3
X167340Y-60480
X167340Y-63020
X167340Y-65560
X205250Y-60500
X205250Y-63040
X205250Y-65580
X178880Y-94390
X181420Y-94390
X183960Y-94390
X186500Y-94390
T4
X199980Y-70580
X199980Y-75580
X199980Y-80580
T0
M30
