G04 #@! TF.GenerationSoftware,KiCad,Pcbnew,(5.0.1-3-g963ef8bb5)*
G04 #@! TF.CreationDate,2018-12-13T09:38:25+09:00*
G04 #@! TF.ProjectId,guitarif,67756974617269662E6B696361645F70,rev?*
G04 #@! TF.SameCoordinates,Original*
G04 #@! TF.FileFunction,Soldermask,Bot*
G04 #@! TF.FilePolarity,Negative*
%FSLAX46Y46*%
G04 Gerber Fmt 4.6, Leading zero omitted, Abs format (unit mm)*
G04 Created by KiCad (PCBNEW (5.0.1-3-g963ef8bb5)) date 2018 December 13, Thursday 09:38:25*
%MOMM*%
%LPD*%
G01*
G04 APERTURE LIST*
%ADD10C,0.100000*%
G04 APERTURE END LIST*
D10*
G36*
X187401000Y-95291000D02*
X185599000Y-95291000D01*
X185599000Y-93489000D01*
X187401000Y-93489000D01*
X187401000Y-95291000D01*
X187401000Y-95291000D01*
G37*
G36*
X184070443Y-93495519D02*
X184136627Y-93502037D01*
X184249853Y-93536384D01*
X184306467Y-93553557D01*
X184445087Y-93627652D01*
X184462991Y-93637222D01*
X184498729Y-93666552D01*
X184600186Y-93749814D01*
X184683448Y-93851271D01*
X184712778Y-93887009D01*
X184712779Y-93887011D01*
X184796443Y-94043533D01*
X184796443Y-94043534D01*
X184847963Y-94213373D01*
X184865359Y-94390000D01*
X184847963Y-94566627D01*
X184813616Y-94679853D01*
X184796443Y-94736467D01*
X184722348Y-94875087D01*
X184712778Y-94892991D01*
X184683448Y-94928729D01*
X184600186Y-95030186D01*
X184498729Y-95113448D01*
X184462991Y-95142778D01*
X184462989Y-95142779D01*
X184306467Y-95226443D01*
X184249853Y-95243616D01*
X184136627Y-95277963D01*
X184070442Y-95284482D01*
X184004260Y-95291000D01*
X183915740Y-95291000D01*
X183849558Y-95284482D01*
X183783373Y-95277963D01*
X183670147Y-95243616D01*
X183613533Y-95226443D01*
X183457011Y-95142779D01*
X183457009Y-95142778D01*
X183421271Y-95113448D01*
X183319814Y-95030186D01*
X183236552Y-94928729D01*
X183207222Y-94892991D01*
X183197652Y-94875087D01*
X183123557Y-94736467D01*
X183106384Y-94679853D01*
X183072037Y-94566627D01*
X183054641Y-94390000D01*
X183072037Y-94213373D01*
X183123557Y-94043534D01*
X183123557Y-94043533D01*
X183207221Y-93887011D01*
X183207222Y-93887009D01*
X183236552Y-93851271D01*
X183319814Y-93749814D01*
X183421271Y-93666552D01*
X183457009Y-93637222D01*
X183474913Y-93627652D01*
X183613533Y-93553557D01*
X183670147Y-93536384D01*
X183783373Y-93502037D01*
X183849557Y-93495519D01*
X183915740Y-93489000D01*
X184004260Y-93489000D01*
X184070443Y-93495519D01*
X184070443Y-93495519D01*
G37*
G36*
X181530443Y-93495519D02*
X181596627Y-93502037D01*
X181709853Y-93536384D01*
X181766467Y-93553557D01*
X181905087Y-93627652D01*
X181922991Y-93637222D01*
X181958729Y-93666552D01*
X182060186Y-93749814D01*
X182143448Y-93851271D01*
X182172778Y-93887009D01*
X182172779Y-93887011D01*
X182256443Y-94043533D01*
X182256443Y-94043534D01*
X182307963Y-94213373D01*
X182325359Y-94390000D01*
X182307963Y-94566627D01*
X182273616Y-94679853D01*
X182256443Y-94736467D01*
X182182348Y-94875087D01*
X182172778Y-94892991D01*
X182143448Y-94928729D01*
X182060186Y-95030186D01*
X181958729Y-95113448D01*
X181922991Y-95142778D01*
X181922989Y-95142779D01*
X181766467Y-95226443D01*
X181709853Y-95243616D01*
X181596627Y-95277963D01*
X181530442Y-95284482D01*
X181464260Y-95291000D01*
X181375740Y-95291000D01*
X181309558Y-95284482D01*
X181243373Y-95277963D01*
X181130147Y-95243616D01*
X181073533Y-95226443D01*
X180917011Y-95142779D01*
X180917009Y-95142778D01*
X180881271Y-95113448D01*
X180779814Y-95030186D01*
X180696552Y-94928729D01*
X180667222Y-94892991D01*
X180657652Y-94875087D01*
X180583557Y-94736467D01*
X180566384Y-94679853D01*
X180532037Y-94566627D01*
X180514641Y-94390000D01*
X180532037Y-94213373D01*
X180583557Y-94043534D01*
X180583557Y-94043533D01*
X180667221Y-93887011D01*
X180667222Y-93887009D01*
X180696552Y-93851271D01*
X180779814Y-93749814D01*
X180881271Y-93666552D01*
X180917009Y-93637222D01*
X180934913Y-93627652D01*
X181073533Y-93553557D01*
X181130147Y-93536384D01*
X181243373Y-93502037D01*
X181309557Y-93495519D01*
X181375740Y-93489000D01*
X181464260Y-93489000D01*
X181530443Y-93495519D01*
X181530443Y-93495519D01*
G37*
G36*
X178990443Y-93495519D02*
X179056627Y-93502037D01*
X179169853Y-93536384D01*
X179226467Y-93553557D01*
X179365087Y-93627652D01*
X179382991Y-93637222D01*
X179418729Y-93666552D01*
X179520186Y-93749814D01*
X179603448Y-93851271D01*
X179632778Y-93887009D01*
X179632779Y-93887011D01*
X179716443Y-94043533D01*
X179716443Y-94043534D01*
X179767963Y-94213373D01*
X179785359Y-94390000D01*
X179767963Y-94566627D01*
X179733616Y-94679853D01*
X179716443Y-94736467D01*
X179642348Y-94875087D01*
X179632778Y-94892991D01*
X179603448Y-94928729D01*
X179520186Y-95030186D01*
X179418729Y-95113448D01*
X179382991Y-95142778D01*
X179382989Y-95142779D01*
X179226467Y-95226443D01*
X179169853Y-95243616D01*
X179056627Y-95277963D01*
X178990442Y-95284482D01*
X178924260Y-95291000D01*
X178835740Y-95291000D01*
X178769558Y-95284482D01*
X178703373Y-95277963D01*
X178590147Y-95243616D01*
X178533533Y-95226443D01*
X178377011Y-95142779D01*
X178377009Y-95142778D01*
X178341271Y-95113448D01*
X178239814Y-95030186D01*
X178156552Y-94928729D01*
X178127222Y-94892991D01*
X178117652Y-94875087D01*
X178043557Y-94736467D01*
X178026384Y-94679853D01*
X177992037Y-94566627D01*
X177974641Y-94390000D01*
X177992037Y-94213373D01*
X178043557Y-94043534D01*
X178043557Y-94043533D01*
X178127221Y-93887011D01*
X178127222Y-93887009D01*
X178156552Y-93851271D01*
X178239814Y-93749814D01*
X178341271Y-93666552D01*
X178377009Y-93637222D01*
X178394913Y-93627652D01*
X178533533Y-93553557D01*
X178590147Y-93536384D01*
X178703373Y-93502037D01*
X178769557Y-93495519D01*
X178835740Y-93489000D01*
X178924260Y-93489000D01*
X178990443Y-93495519D01*
X178990443Y-93495519D01*
G37*
G36*
X196718228Y-88101703D02*
X196873100Y-88165853D01*
X197012481Y-88258985D01*
X197131015Y-88377519D01*
X197224147Y-88516900D01*
X197288297Y-88671772D01*
X197321000Y-88836184D01*
X197321000Y-89003816D01*
X197288297Y-89168228D01*
X197224147Y-89323100D01*
X197131015Y-89462481D01*
X197012481Y-89581015D01*
X196873100Y-89674147D01*
X196718228Y-89738297D01*
X196553816Y-89771000D01*
X196386184Y-89771000D01*
X196221772Y-89738297D01*
X196066900Y-89674147D01*
X195927519Y-89581015D01*
X195808985Y-89462481D01*
X195715853Y-89323100D01*
X195651703Y-89168228D01*
X195619000Y-89003816D01*
X195619000Y-88836184D01*
X195651703Y-88671772D01*
X195715853Y-88516900D01*
X195808985Y-88377519D01*
X195927519Y-88258985D01*
X196066900Y-88165853D01*
X196221772Y-88101703D01*
X196386184Y-88069000D01*
X196553816Y-88069000D01*
X196718228Y-88101703D01*
X196718228Y-88101703D01*
G37*
G36*
X194821000Y-89771000D02*
X193119000Y-89771000D01*
X193119000Y-88069000D01*
X194821000Y-88069000D01*
X194821000Y-89771000D01*
X194821000Y-89771000D01*
G37*
G36*
X200359485Y-79328996D02*
X200359487Y-79328997D01*
X200359488Y-79328997D01*
X200596255Y-79427069D01*
X200809342Y-79569449D01*
X200990551Y-79750658D01*
X201132931Y-79963745D01*
X201231004Y-80200515D01*
X201281000Y-80451861D01*
X201281000Y-80708139D01*
X201231004Y-80959485D01*
X201132931Y-81196255D01*
X200990551Y-81409342D01*
X200809342Y-81590551D01*
X200809339Y-81590553D01*
X200596255Y-81732931D01*
X200359488Y-81831003D01*
X200359487Y-81831003D01*
X200359485Y-81831004D01*
X200108139Y-81881000D01*
X199851861Y-81881000D01*
X199600515Y-81831004D01*
X199600513Y-81831003D01*
X199600512Y-81831003D01*
X199363745Y-81732931D01*
X199150661Y-81590553D01*
X199150658Y-81590551D01*
X198969449Y-81409342D01*
X198827069Y-81196255D01*
X198728996Y-80959485D01*
X198679000Y-80708139D01*
X198679000Y-80451861D01*
X198728996Y-80200515D01*
X198827069Y-79963745D01*
X198969449Y-79750658D01*
X199150658Y-79569449D01*
X199363745Y-79427069D01*
X199600512Y-79328997D01*
X199600513Y-79328997D01*
X199600515Y-79328996D01*
X199851861Y-79279000D01*
X200108139Y-79279000D01*
X200359485Y-79328996D01*
X200359485Y-79328996D01*
G37*
G36*
X186088228Y-77081703D02*
X186243100Y-77145853D01*
X186382481Y-77238985D01*
X186501015Y-77357519D01*
X186594147Y-77496900D01*
X186658297Y-77651772D01*
X186691000Y-77816184D01*
X186691000Y-77983816D01*
X186658297Y-78148228D01*
X186594147Y-78303100D01*
X186501015Y-78442481D01*
X186382481Y-78561015D01*
X186243100Y-78654147D01*
X186088228Y-78718297D01*
X185923816Y-78751000D01*
X185756184Y-78751000D01*
X185591772Y-78718297D01*
X185436900Y-78654147D01*
X185297519Y-78561015D01*
X185178985Y-78442481D01*
X185085853Y-78303100D01*
X185021703Y-78148228D01*
X184989000Y-77983816D01*
X184989000Y-77816184D01*
X185021703Y-77651772D01*
X185085853Y-77496900D01*
X185178985Y-77357519D01*
X185297519Y-77238985D01*
X185436900Y-77145853D01*
X185591772Y-77081703D01*
X185756184Y-77049000D01*
X185923816Y-77049000D01*
X186088228Y-77081703D01*
X186088228Y-77081703D01*
G37*
G36*
X189191000Y-78751000D02*
X187489000Y-78751000D01*
X187489000Y-77049000D01*
X189191000Y-77049000D01*
X189191000Y-78751000D01*
X189191000Y-78751000D01*
G37*
G36*
X200359485Y-74328996D02*
X200359487Y-74328997D01*
X200359488Y-74328997D01*
X200596255Y-74427069D01*
X200809342Y-74569449D01*
X200990551Y-74750658D01*
X201132931Y-74963745D01*
X201231004Y-75200515D01*
X201281000Y-75451861D01*
X201281000Y-75708139D01*
X201231004Y-75959485D01*
X201132931Y-76196255D01*
X200990551Y-76409342D01*
X200809342Y-76590551D01*
X200809339Y-76590553D01*
X200596255Y-76732931D01*
X200359488Y-76831003D01*
X200359487Y-76831003D01*
X200359485Y-76831004D01*
X200108139Y-76881000D01*
X199851861Y-76881000D01*
X199600515Y-76831004D01*
X199600513Y-76831003D01*
X199600512Y-76831003D01*
X199363745Y-76732931D01*
X199150661Y-76590553D01*
X199150658Y-76590551D01*
X198969449Y-76409342D01*
X198827069Y-76196255D01*
X198728996Y-75959485D01*
X198679000Y-75708139D01*
X198679000Y-75451861D01*
X198728996Y-75200515D01*
X198827069Y-74963745D01*
X198969449Y-74750658D01*
X199150658Y-74569449D01*
X199363745Y-74427069D01*
X199600512Y-74328997D01*
X199600513Y-74328997D01*
X199600515Y-74328996D01*
X199851861Y-74279000D01*
X200108139Y-74279000D01*
X200359485Y-74328996D01*
X200359485Y-74328996D01*
G37*
G36*
X200359485Y-69328996D02*
X200359487Y-69328997D01*
X200359488Y-69328997D01*
X200596255Y-69427069D01*
X200809342Y-69569449D01*
X200990551Y-69750658D01*
X201132931Y-69963745D01*
X201231004Y-70200515D01*
X201281000Y-70451861D01*
X201281000Y-70708139D01*
X201231004Y-70959485D01*
X201132931Y-71196255D01*
X200990551Y-71409342D01*
X200809342Y-71590551D01*
X200809339Y-71590553D01*
X200596255Y-71732931D01*
X200359488Y-71831003D01*
X200359487Y-71831003D01*
X200359485Y-71831004D01*
X200108139Y-71881000D01*
X199851861Y-71881000D01*
X199600515Y-71831004D01*
X199600513Y-71831003D01*
X199600512Y-71831003D01*
X199363745Y-71732931D01*
X199150661Y-71590553D01*
X199150658Y-71590551D01*
X198969449Y-71409342D01*
X198827069Y-71196255D01*
X198728996Y-70959485D01*
X198679000Y-70708139D01*
X198679000Y-70451861D01*
X198728996Y-70200515D01*
X198827069Y-69963745D01*
X198969449Y-69750658D01*
X199150658Y-69569449D01*
X199363745Y-69427069D01*
X199600512Y-69328997D01*
X199600513Y-69328997D01*
X199600515Y-69328996D01*
X199851861Y-69279000D01*
X200108139Y-69279000D01*
X200359485Y-69328996D01*
X200359485Y-69328996D01*
G37*
G36*
X190481000Y-68891000D02*
X188779000Y-68891000D01*
X188779000Y-67189000D01*
X190481000Y-67189000D01*
X190481000Y-68891000D01*
X190481000Y-68891000D01*
G37*
G36*
X182176821Y-67201313D02*
X182176824Y-67201314D01*
X182176825Y-67201314D01*
X182337239Y-67249975D01*
X182337241Y-67249976D01*
X182337244Y-67249977D01*
X182485078Y-67328995D01*
X182614659Y-67435341D01*
X182721005Y-67564922D01*
X182800023Y-67712756D01*
X182848687Y-67873179D01*
X182865117Y-68040000D01*
X182848687Y-68206821D01*
X182800023Y-68367244D01*
X182721005Y-68515078D01*
X182614659Y-68644659D01*
X182485078Y-68751005D01*
X182337244Y-68830023D01*
X182337241Y-68830024D01*
X182337239Y-68830025D01*
X182176825Y-68878686D01*
X182176824Y-68878686D01*
X182176821Y-68878687D01*
X182051804Y-68891000D01*
X181968196Y-68891000D01*
X181843179Y-68878687D01*
X181843176Y-68878686D01*
X181843175Y-68878686D01*
X181682761Y-68830025D01*
X181682759Y-68830024D01*
X181682756Y-68830023D01*
X181534922Y-68751005D01*
X181405341Y-68644659D01*
X181298995Y-68515078D01*
X181219977Y-68367244D01*
X181171313Y-68206821D01*
X181154883Y-68040000D01*
X181171313Y-67873179D01*
X181219977Y-67712756D01*
X181298995Y-67564922D01*
X181405341Y-67435341D01*
X181534922Y-67328995D01*
X181682756Y-67249977D01*
X181682759Y-67249976D01*
X181682761Y-67249975D01*
X181843175Y-67201314D01*
X181843176Y-67201314D01*
X181843179Y-67201313D01*
X181968196Y-67189000D01*
X182051804Y-67189000D01*
X182176821Y-67201313D01*
X182176821Y-67201313D01*
G37*
G36*
X205360443Y-64685519D02*
X205426627Y-64692037D01*
X205530535Y-64723557D01*
X205596467Y-64743557D01*
X205681474Y-64788995D01*
X205752991Y-64827222D01*
X205788729Y-64856552D01*
X205890186Y-64939814D01*
X205960031Y-65024922D01*
X206002778Y-65077009D01*
X206002779Y-65077011D01*
X206086443Y-65233533D01*
X206086443Y-65233534D01*
X206137963Y-65403373D01*
X206155359Y-65580000D01*
X206137963Y-65756627D01*
X206103616Y-65869853D01*
X206086443Y-65926467D01*
X206060459Y-65975078D01*
X206002778Y-66082991D01*
X205984995Y-66104659D01*
X205890186Y-66220186D01*
X205788729Y-66303448D01*
X205752991Y-66332778D01*
X205752989Y-66332779D01*
X205596467Y-66416443D01*
X205539853Y-66433616D01*
X205426627Y-66467963D01*
X205360443Y-66474481D01*
X205294260Y-66481000D01*
X205205740Y-66481000D01*
X205139557Y-66474481D01*
X205073373Y-66467963D01*
X204960147Y-66433616D01*
X204903533Y-66416443D01*
X204747011Y-66332779D01*
X204747009Y-66332778D01*
X204711271Y-66303448D01*
X204609814Y-66220186D01*
X204515005Y-66104659D01*
X204497222Y-66082991D01*
X204439541Y-65975078D01*
X204413557Y-65926467D01*
X204396384Y-65869853D01*
X204362037Y-65756627D01*
X204344641Y-65580000D01*
X204362037Y-65403373D01*
X204413557Y-65233534D01*
X204413557Y-65233533D01*
X204497221Y-65077011D01*
X204497222Y-65077009D01*
X204539969Y-65024922D01*
X204609814Y-64939814D01*
X204711271Y-64856552D01*
X204747009Y-64827222D01*
X204818526Y-64788995D01*
X204903533Y-64743557D01*
X204969465Y-64723557D01*
X205073373Y-64692037D01*
X205139557Y-64685519D01*
X205205740Y-64679000D01*
X205294260Y-64679000D01*
X205360443Y-64685519D01*
X205360443Y-64685519D01*
G37*
G36*
X167450443Y-64665519D02*
X167516627Y-64672037D01*
X167629853Y-64706384D01*
X167686467Y-64723557D01*
X167808891Y-64788995D01*
X167842991Y-64807222D01*
X167867361Y-64827222D01*
X167980186Y-64919814D01*
X168063448Y-65021271D01*
X168092778Y-65057009D01*
X168092779Y-65057011D01*
X168176443Y-65213533D01*
X168176443Y-65213534D01*
X168227963Y-65383373D01*
X168245359Y-65560000D01*
X168227963Y-65736627D01*
X168221896Y-65756627D01*
X168176443Y-65906467D01*
X168139769Y-65975078D01*
X168092778Y-66062991D01*
X168076366Y-66082989D01*
X167980186Y-66200186D01*
X167878729Y-66283448D01*
X167842991Y-66312778D01*
X167842989Y-66312779D01*
X167686467Y-66396443D01*
X167629853Y-66413616D01*
X167516627Y-66447963D01*
X167450443Y-66454481D01*
X167384260Y-66461000D01*
X167295740Y-66461000D01*
X167229557Y-66454481D01*
X167163373Y-66447963D01*
X167050147Y-66413616D01*
X166993533Y-66396443D01*
X166837011Y-66312779D01*
X166837009Y-66312778D01*
X166801271Y-66283448D01*
X166699814Y-66200186D01*
X166603634Y-66082989D01*
X166587222Y-66062991D01*
X166540231Y-65975078D01*
X166503557Y-65906467D01*
X166458104Y-65756627D01*
X166452037Y-65736627D01*
X166434641Y-65560000D01*
X166452037Y-65383373D01*
X166503557Y-65213534D01*
X166503557Y-65213533D01*
X166587221Y-65057011D01*
X166587222Y-65057009D01*
X166616552Y-65021271D01*
X166699814Y-64919814D01*
X166812639Y-64827222D01*
X166837009Y-64807222D01*
X166871109Y-64788995D01*
X166993533Y-64723557D01*
X167050147Y-64706384D01*
X167163373Y-64672037D01*
X167229557Y-64665519D01*
X167295740Y-64659000D01*
X167384260Y-64659000D01*
X167450443Y-64665519D01*
X167450443Y-64665519D01*
G37*
G36*
X189796821Y-64661313D02*
X189796824Y-64661314D01*
X189796825Y-64661314D01*
X189957239Y-64709975D01*
X189957241Y-64709976D01*
X189957244Y-64709977D01*
X190105078Y-64788995D01*
X190234659Y-64895341D01*
X190341005Y-65024922D01*
X190420023Y-65172756D01*
X190468687Y-65333179D01*
X190485117Y-65500000D01*
X190468687Y-65666821D01*
X190468686Y-65666824D01*
X190468686Y-65666825D01*
X190447512Y-65736627D01*
X190420023Y-65827244D01*
X190341005Y-65975078D01*
X190234659Y-66104659D01*
X190105078Y-66211005D01*
X189957244Y-66290023D01*
X189957241Y-66290024D01*
X189957239Y-66290025D01*
X189796825Y-66338686D01*
X189796824Y-66338686D01*
X189796821Y-66338687D01*
X189671804Y-66351000D01*
X189588196Y-66351000D01*
X189463179Y-66338687D01*
X189463176Y-66338686D01*
X189463175Y-66338686D01*
X189302761Y-66290025D01*
X189302759Y-66290024D01*
X189302756Y-66290023D01*
X189154922Y-66211005D01*
X189025341Y-66104659D01*
X188918995Y-65975078D01*
X188839977Y-65827244D01*
X188812489Y-65736627D01*
X188791314Y-65666825D01*
X188791314Y-65666824D01*
X188791313Y-65666821D01*
X188774883Y-65500000D01*
X188791313Y-65333179D01*
X188839977Y-65172756D01*
X188918995Y-65024922D01*
X189025341Y-64895341D01*
X189154922Y-64788995D01*
X189302756Y-64709977D01*
X189302759Y-64709976D01*
X189302761Y-64709975D01*
X189463175Y-64661314D01*
X189463176Y-64661314D01*
X189463179Y-64661313D01*
X189588196Y-64649000D01*
X189671804Y-64649000D01*
X189796821Y-64661313D01*
X189796821Y-64661313D01*
G37*
G36*
X182176821Y-64661313D02*
X182176824Y-64661314D01*
X182176825Y-64661314D01*
X182337239Y-64709975D01*
X182337241Y-64709976D01*
X182337244Y-64709977D01*
X182485078Y-64788995D01*
X182614659Y-64895341D01*
X182721005Y-65024922D01*
X182800023Y-65172756D01*
X182848687Y-65333179D01*
X182865117Y-65500000D01*
X182848687Y-65666821D01*
X182848686Y-65666824D01*
X182848686Y-65666825D01*
X182827512Y-65736627D01*
X182800023Y-65827244D01*
X182721005Y-65975078D01*
X182614659Y-66104659D01*
X182485078Y-66211005D01*
X182337244Y-66290023D01*
X182337241Y-66290024D01*
X182337239Y-66290025D01*
X182176825Y-66338686D01*
X182176824Y-66338686D01*
X182176821Y-66338687D01*
X182051804Y-66351000D01*
X181968196Y-66351000D01*
X181843179Y-66338687D01*
X181843176Y-66338686D01*
X181843175Y-66338686D01*
X181682761Y-66290025D01*
X181682759Y-66290024D01*
X181682756Y-66290023D01*
X181534922Y-66211005D01*
X181405341Y-66104659D01*
X181298995Y-65975078D01*
X181219977Y-65827244D01*
X181192489Y-65736627D01*
X181171314Y-65666825D01*
X181171314Y-65666824D01*
X181171313Y-65666821D01*
X181154883Y-65500000D01*
X181171313Y-65333179D01*
X181219977Y-65172756D01*
X181298995Y-65024922D01*
X181405341Y-64895341D01*
X181534922Y-64788995D01*
X181682756Y-64709977D01*
X181682759Y-64709976D01*
X181682761Y-64709975D01*
X181843175Y-64661314D01*
X181843176Y-64661314D01*
X181843179Y-64661313D01*
X181968196Y-64649000D01*
X182051804Y-64649000D01*
X182176821Y-64661313D01*
X182176821Y-64661313D01*
G37*
G36*
X205360442Y-62145518D02*
X205426627Y-62152037D01*
X205530535Y-62183557D01*
X205596467Y-62203557D01*
X205681474Y-62248995D01*
X205752991Y-62287222D01*
X205788729Y-62316552D01*
X205890186Y-62399814D01*
X205960031Y-62484922D01*
X206002778Y-62537009D01*
X206002779Y-62537011D01*
X206086443Y-62693533D01*
X206086443Y-62693534D01*
X206137963Y-62863373D01*
X206155359Y-63040000D01*
X206137963Y-63216627D01*
X206105665Y-63323100D01*
X206086443Y-63386467D01*
X206060459Y-63435078D01*
X206002778Y-63542991D01*
X205984995Y-63564659D01*
X205890186Y-63680186D01*
X205788729Y-63763448D01*
X205752991Y-63792778D01*
X205752989Y-63792779D01*
X205596467Y-63876443D01*
X205539853Y-63893616D01*
X205426627Y-63927963D01*
X205360442Y-63934482D01*
X205294260Y-63941000D01*
X205205740Y-63941000D01*
X205139558Y-63934482D01*
X205073373Y-63927963D01*
X204960147Y-63893616D01*
X204903533Y-63876443D01*
X204747011Y-63792779D01*
X204747009Y-63792778D01*
X204711271Y-63763448D01*
X204609814Y-63680186D01*
X204515005Y-63564659D01*
X204497222Y-63542991D01*
X204439541Y-63435078D01*
X204413557Y-63386467D01*
X204394335Y-63323100D01*
X204362037Y-63216627D01*
X204344641Y-63040000D01*
X204362037Y-62863373D01*
X204413557Y-62693534D01*
X204413557Y-62693533D01*
X204497221Y-62537011D01*
X204497222Y-62537009D01*
X204539969Y-62484922D01*
X204609814Y-62399814D01*
X204711271Y-62316552D01*
X204747009Y-62287222D01*
X204818526Y-62248995D01*
X204903533Y-62203557D01*
X204969465Y-62183557D01*
X205073373Y-62152037D01*
X205139558Y-62145518D01*
X205205740Y-62139000D01*
X205294260Y-62139000D01*
X205360442Y-62145518D01*
X205360442Y-62145518D01*
G37*
G36*
X167450443Y-62125519D02*
X167516627Y-62132037D01*
X167628104Y-62165853D01*
X167686467Y-62183557D01*
X167808891Y-62248995D01*
X167842991Y-62267222D01*
X167867361Y-62287222D01*
X167980186Y-62379814D01*
X168063448Y-62481271D01*
X168092778Y-62517009D01*
X168092779Y-62517011D01*
X168176443Y-62673533D01*
X168176443Y-62673534D01*
X168227963Y-62843373D01*
X168245359Y-63020000D01*
X168227963Y-63196627D01*
X168221896Y-63216627D01*
X168176443Y-63366467D01*
X168139769Y-63435078D01*
X168092778Y-63522991D01*
X168076366Y-63542989D01*
X167980186Y-63660186D01*
X167885007Y-63738296D01*
X167842991Y-63772778D01*
X167842989Y-63772779D01*
X167686467Y-63856443D01*
X167629853Y-63873616D01*
X167516627Y-63907963D01*
X167450442Y-63914482D01*
X167384260Y-63921000D01*
X167295740Y-63921000D01*
X167229558Y-63914482D01*
X167163373Y-63907963D01*
X167050147Y-63873616D01*
X166993533Y-63856443D01*
X166837011Y-63772779D01*
X166837009Y-63772778D01*
X166794993Y-63738296D01*
X166699814Y-63660186D01*
X166603634Y-63542989D01*
X166587222Y-63522991D01*
X166540231Y-63435078D01*
X166503557Y-63366467D01*
X166458104Y-63216627D01*
X166452037Y-63196627D01*
X166434641Y-63020000D01*
X166452037Y-62843373D01*
X166503557Y-62673534D01*
X166503557Y-62673533D01*
X166587221Y-62517011D01*
X166587222Y-62517009D01*
X166616552Y-62481271D01*
X166699814Y-62379814D01*
X166812639Y-62287222D01*
X166837009Y-62267222D01*
X166871109Y-62248995D01*
X166993533Y-62183557D01*
X167051896Y-62165853D01*
X167163373Y-62132037D01*
X167229557Y-62125519D01*
X167295740Y-62119000D01*
X167384260Y-62119000D01*
X167450443Y-62125519D01*
X167450443Y-62125519D01*
G37*
G36*
X182176821Y-62121313D02*
X182176824Y-62121314D01*
X182176825Y-62121314D01*
X182337239Y-62169975D01*
X182337241Y-62169976D01*
X182337244Y-62169977D01*
X182485078Y-62248995D01*
X182614659Y-62355341D01*
X182721005Y-62484922D01*
X182800023Y-62632756D01*
X182800024Y-62632759D01*
X182800025Y-62632761D01*
X182812393Y-62673533D01*
X182848687Y-62793179D01*
X182865117Y-62960000D01*
X182848687Y-63126821D01*
X182848686Y-63126824D01*
X182848686Y-63126825D01*
X182827512Y-63196627D01*
X182800023Y-63287244D01*
X182721005Y-63435078D01*
X182614659Y-63564659D01*
X182485078Y-63671005D01*
X182337244Y-63750023D01*
X182337241Y-63750024D01*
X182337239Y-63750025D01*
X182176825Y-63798686D01*
X182176824Y-63798686D01*
X182176821Y-63798687D01*
X182051804Y-63811000D01*
X181968196Y-63811000D01*
X181843179Y-63798687D01*
X181843176Y-63798686D01*
X181843175Y-63798686D01*
X181682761Y-63750025D01*
X181682759Y-63750024D01*
X181682756Y-63750023D01*
X181534922Y-63671005D01*
X181405341Y-63564659D01*
X181298995Y-63435078D01*
X181219977Y-63287244D01*
X181192489Y-63196627D01*
X181171314Y-63126825D01*
X181171314Y-63126824D01*
X181171313Y-63126821D01*
X181154883Y-62960000D01*
X181171313Y-62793179D01*
X181207607Y-62673533D01*
X181219975Y-62632761D01*
X181219976Y-62632759D01*
X181219977Y-62632756D01*
X181298995Y-62484922D01*
X181405341Y-62355341D01*
X181534922Y-62248995D01*
X181682756Y-62169977D01*
X181682759Y-62169976D01*
X181682761Y-62169975D01*
X181843175Y-62121314D01*
X181843176Y-62121314D01*
X181843179Y-62121313D01*
X181968196Y-62109000D01*
X182051804Y-62109000D01*
X182176821Y-62121313D01*
X182176821Y-62121313D01*
G37*
G36*
X189796821Y-62121313D02*
X189796824Y-62121314D01*
X189796825Y-62121314D01*
X189957239Y-62169975D01*
X189957241Y-62169976D01*
X189957244Y-62169977D01*
X190105078Y-62248995D01*
X190234659Y-62355341D01*
X190341005Y-62484922D01*
X190420023Y-62632756D01*
X190420024Y-62632759D01*
X190420025Y-62632761D01*
X190432393Y-62673533D01*
X190468687Y-62793179D01*
X190485117Y-62960000D01*
X190468687Y-63126821D01*
X190468686Y-63126824D01*
X190468686Y-63126825D01*
X190447512Y-63196627D01*
X190420023Y-63287244D01*
X190341005Y-63435078D01*
X190234659Y-63564659D01*
X190105078Y-63671005D01*
X189957244Y-63750023D01*
X189957241Y-63750024D01*
X189957239Y-63750025D01*
X189796825Y-63798686D01*
X189796824Y-63798686D01*
X189796821Y-63798687D01*
X189671804Y-63811000D01*
X189588196Y-63811000D01*
X189463179Y-63798687D01*
X189463176Y-63798686D01*
X189463175Y-63798686D01*
X189302761Y-63750025D01*
X189302759Y-63750024D01*
X189302756Y-63750023D01*
X189154922Y-63671005D01*
X189025341Y-63564659D01*
X188918995Y-63435078D01*
X188839977Y-63287244D01*
X188812489Y-63196627D01*
X188791314Y-63126825D01*
X188791314Y-63126824D01*
X188791313Y-63126821D01*
X188774883Y-62960000D01*
X188791313Y-62793179D01*
X188827607Y-62673533D01*
X188839975Y-62632761D01*
X188839976Y-62632759D01*
X188839977Y-62632756D01*
X188918995Y-62484922D01*
X189025341Y-62355341D01*
X189154922Y-62248995D01*
X189302756Y-62169977D01*
X189302759Y-62169976D01*
X189302761Y-62169975D01*
X189463175Y-62121314D01*
X189463176Y-62121314D01*
X189463179Y-62121313D01*
X189588196Y-62109000D01*
X189671804Y-62109000D01*
X189796821Y-62121313D01*
X189796821Y-62121313D01*
G37*
G36*
X176271000Y-63771000D02*
X174569000Y-63771000D01*
X174569000Y-62069000D01*
X176271000Y-62069000D01*
X176271000Y-63771000D01*
X176271000Y-63771000D01*
G37*
G36*
X173168228Y-62101703D02*
X173323100Y-62165853D01*
X173462481Y-62258985D01*
X173581015Y-62377519D01*
X173674147Y-62516900D01*
X173738297Y-62671772D01*
X173771000Y-62836184D01*
X173771000Y-63003816D01*
X173738297Y-63168228D01*
X173674147Y-63323100D01*
X173581015Y-63462481D01*
X173462481Y-63581015D01*
X173323100Y-63674147D01*
X173168228Y-63738297D01*
X173003816Y-63771000D01*
X172836184Y-63771000D01*
X172671772Y-63738297D01*
X172516900Y-63674147D01*
X172377519Y-63581015D01*
X172258985Y-63462481D01*
X172165853Y-63323100D01*
X172101703Y-63168228D01*
X172069000Y-63003816D01*
X172069000Y-62836184D01*
X172101703Y-62671772D01*
X172165853Y-62516900D01*
X172258985Y-62377519D01*
X172377519Y-62258985D01*
X172516900Y-62165853D01*
X172671772Y-62101703D01*
X172836184Y-62069000D01*
X173003816Y-62069000D01*
X173168228Y-62101703D01*
X173168228Y-62101703D01*
G37*
G36*
X206151000Y-61401000D02*
X204349000Y-61401000D01*
X204349000Y-59599000D01*
X206151000Y-59599000D01*
X206151000Y-61401000D01*
X206151000Y-61401000D01*
G37*
G36*
X168241000Y-61381000D02*
X166439000Y-61381000D01*
X166439000Y-59579000D01*
X168241000Y-59579000D01*
X168241000Y-61381000D01*
X168241000Y-61381000D01*
G37*
G36*
X182176821Y-59581313D02*
X182176824Y-59581314D01*
X182176825Y-59581314D01*
X182337239Y-59629975D01*
X182337241Y-59629976D01*
X182337244Y-59629977D01*
X182485078Y-59708995D01*
X182614659Y-59815341D01*
X182721005Y-59944922D01*
X182800023Y-60092756D01*
X182848687Y-60253179D01*
X182865117Y-60420000D01*
X182848687Y-60586821D01*
X182800023Y-60747244D01*
X182721005Y-60895078D01*
X182614659Y-61024659D01*
X182485078Y-61131005D01*
X182337244Y-61210023D01*
X182337241Y-61210024D01*
X182337239Y-61210025D01*
X182176825Y-61258686D01*
X182176824Y-61258686D01*
X182176821Y-61258687D01*
X182051804Y-61271000D01*
X181968196Y-61271000D01*
X181843179Y-61258687D01*
X181843176Y-61258686D01*
X181843175Y-61258686D01*
X181682761Y-61210025D01*
X181682759Y-61210024D01*
X181682756Y-61210023D01*
X181534922Y-61131005D01*
X181405341Y-61024659D01*
X181298995Y-60895078D01*
X181219977Y-60747244D01*
X181171313Y-60586821D01*
X181154883Y-60420000D01*
X181171313Y-60253179D01*
X181219977Y-60092756D01*
X181298995Y-59944922D01*
X181405341Y-59815341D01*
X181534922Y-59708995D01*
X181682756Y-59629977D01*
X181682759Y-59629976D01*
X181682761Y-59629975D01*
X181843175Y-59581314D01*
X181843176Y-59581314D01*
X181843179Y-59581313D01*
X181968196Y-59569000D01*
X182051804Y-59569000D01*
X182176821Y-59581313D01*
X182176821Y-59581313D01*
G37*
G36*
X189796821Y-59581313D02*
X189796824Y-59581314D01*
X189796825Y-59581314D01*
X189957239Y-59629975D01*
X189957241Y-59629976D01*
X189957244Y-59629977D01*
X190105078Y-59708995D01*
X190234659Y-59815341D01*
X190341005Y-59944922D01*
X190420023Y-60092756D01*
X190468687Y-60253179D01*
X190485117Y-60420000D01*
X190468687Y-60586821D01*
X190420023Y-60747244D01*
X190341005Y-60895078D01*
X190234659Y-61024659D01*
X190105078Y-61131005D01*
X189957244Y-61210023D01*
X189957241Y-61210024D01*
X189957239Y-61210025D01*
X189796825Y-61258686D01*
X189796824Y-61258686D01*
X189796821Y-61258687D01*
X189671804Y-61271000D01*
X189588196Y-61271000D01*
X189463179Y-61258687D01*
X189463176Y-61258686D01*
X189463175Y-61258686D01*
X189302761Y-61210025D01*
X189302759Y-61210024D01*
X189302756Y-61210023D01*
X189154922Y-61131005D01*
X189025341Y-61024659D01*
X188918995Y-60895078D01*
X188839977Y-60747244D01*
X188791313Y-60586821D01*
X188774883Y-60420000D01*
X188791313Y-60253179D01*
X188839977Y-60092756D01*
X188918995Y-59944922D01*
X189025341Y-59815341D01*
X189154922Y-59708995D01*
X189302756Y-59629977D01*
X189302759Y-59629976D01*
X189302761Y-59629975D01*
X189463175Y-59581314D01*
X189463176Y-59581314D01*
X189463179Y-59581313D01*
X189588196Y-59569000D01*
X189671804Y-59569000D01*
X189796821Y-59581313D01*
X189796821Y-59581313D01*
G37*
M02*
