G04 #@! TF.GenerationSoftware,KiCad,Pcbnew,(5.0.1-3-g963ef8bb5)*
G04 #@! TF.CreationDate,2018-12-13T09:38:25+09:00*
G04 #@! TF.ProjectId,guitarif,67756974617269662E6B696361645F70,rev?*
G04 #@! TF.SameCoordinates,Original*
G04 #@! TF.FileFunction,Copper,L1,Top,Signal*
G04 #@! TF.FilePolarity,Positive*
%FSLAX46Y46*%
G04 Gerber Fmt 4.6, Leading zero omitted, Abs format (unit mm)*
G04 Created by KiCad (PCBNEW (5.0.1-3-g963ef8bb5)) date 2018 December 13, Thursday 09:38:25*
%MOMM*%
%LPD*%
G01*
G04 APERTURE LIST*
G04 #@! TA.AperFunction,SMDPad,CuDef*
%ADD10R,1.200000X0.750000*%
G04 #@! TD*
G04 #@! TA.AperFunction,ComponentPad*
%ADD11C,1.600000*%
G04 #@! TD*
G04 #@! TA.AperFunction,ComponentPad*
%ADD12R,1.600000X1.600000*%
G04 #@! TD*
G04 #@! TA.AperFunction,SMDPad,CuDef*
%ADD13R,0.750000X1.200000*%
G04 #@! TD*
G04 #@! TA.AperFunction,ComponentPad*
%ADD14O,1.700000X1.700000*%
G04 #@! TD*
G04 #@! TA.AperFunction,ComponentPad*
%ADD15R,1.700000X1.700000*%
G04 #@! TD*
G04 #@! TA.AperFunction,SMDPad,CuDef*
%ADD16R,1.200000X0.900000*%
G04 #@! TD*
G04 #@! TA.AperFunction,SMDPad,CuDef*
%ADD17R,0.900000X1.200000*%
G04 #@! TD*
G04 #@! TA.AperFunction,ComponentPad*
%ADD18C,2.500000*%
G04 #@! TD*
G04 #@! TA.AperFunction,ComponentPad*
%ADD19O,1.600000X1.600000*%
G04 #@! TD*
G04 #@! TA.AperFunction,ViaPad*
%ADD20C,0.800000*%
G04 #@! TD*
G04 #@! TA.AperFunction,Conductor*
%ADD21C,0.250000*%
G04 #@! TD*
G04 #@! TA.AperFunction,Conductor*
%ADD22C,0.254000*%
G04 #@! TD*
G04 APERTURE END LIST*
D10*
G04 #@! TO.P,C1,2*
G04 #@! TO.N,Net-(C1-Pad2)*
X172650000Y-81450000D03*
G04 #@! TO.P,C1,1*
G04 #@! TO.N,/GND*
X170750000Y-81450000D03*
G04 #@! TD*
G04 #@! TO.P,C2,2*
G04 #@! TO.N,Net-(C2-Pad2)*
X200100000Y-60520000D03*
G04 #@! TO.P,C2,1*
G04 #@! TO.N,Net-(C2-Pad1)*
X198200000Y-60520000D03*
G04 #@! TD*
D11*
G04 #@! TO.P,C3,2*
G04 #@! TO.N,/GND*
X185840000Y-77900000D03*
D12*
G04 #@! TO.P,C3,1*
G04 #@! TO.N,Net-(C3-Pad1)*
X188340000Y-77900000D03*
G04 #@! TD*
D10*
G04 #@! TO.P,C4,1*
G04 #@! TO.N,/GND*
X170750000Y-77630000D03*
G04 #@! TO.P,C4,2*
G04 #@! TO.N,Net-(C4-Pad2)*
X172650000Y-77630000D03*
G04 #@! TD*
D13*
G04 #@! TO.P,C5,2*
G04 #@! TO.N,Net-(C5-Pad2)*
X179690000Y-72320000D03*
G04 #@! TO.P,C5,1*
G04 #@! TO.N,Net-(C5-Pad1)*
X179690000Y-74220000D03*
G04 #@! TD*
D10*
G04 #@! TO.P,C6,1*
G04 #@! TO.N,/GND*
X191950000Y-57400000D03*
G04 #@! TO.P,C6,2*
G04 #@! TO.N,Net-(C6-Pad2)*
X193850000Y-57400000D03*
G04 #@! TD*
D12*
G04 #@! TO.P,C7,1*
G04 #@! TO.N,Net-(C5-Pad2)*
X175420000Y-62920000D03*
D11*
G04 #@! TO.P,C7,2*
G04 #@! TO.N,Net-(C7-Pad2)*
X172920000Y-62920000D03*
G04 #@! TD*
D13*
G04 #@! TO.P,C8,1*
G04 #@! TO.N,Net-(C8-Pad1)*
X193620000Y-67250000D03*
G04 #@! TO.P,C8,2*
G04 #@! TO.N,Net-(C8-Pad2)*
X193620000Y-65350000D03*
G04 #@! TD*
G04 #@! TO.P,C9,1*
G04 #@! TO.N,/GND*
X184820000Y-86810000D03*
G04 #@! TO.P,C9,2*
G04 #@! TO.N,/3V3*
X184820000Y-88710000D03*
G04 #@! TD*
G04 #@! TO.P,C10,2*
G04 #@! TO.N,/GND*
X195390000Y-69720000D03*
G04 #@! TO.P,C10,1*
G04 #@! TO.N,/ADC_IN*
X195390000Y-71620000D03*
G04 #@! TD*
D11*
G04 #@! TO.P,C11,2*
G04 #@! TO.N,/GND*
X196470000Y-88920000D03*
D12*
G04 #@! TO.P,C11,1*
G04 #@! TO.N,/1V7*
X193970000Y-88920000D03*
G04 #@! TD*
D14*
G04 #@! TO.P,J1,3*
G04 #@! TO.N,/GND*
X205250000Y-65580000D03*
G04 #@! TO.P,J1,2*
X205250000Y-63040000D03*
D15*
G04 #@! TO.P,J1,1*
G04 #@! TO.N,Net-(C2-Pad2)*
X205250000Y-60500000D03*
G04 #@! TD*
G04 #@! TO.P,J2,1*
G04 #@! TO.N,Net-(C7-Pad2)*
X167340000Y-60480000D03*
D14*
G04 #@! TO.P,J2,2*
G04 #@! TO.N,/GND*
X167340000Y-63020000D03*
G04 #@! TO.P,J2,3*
X167340000Y-65560000D03*
G04 #@! TD*
G04 #@! TO.P,J3,4*
G04 #@! TO.N,/DAC_OUT*
X178880000Y-94390000D03*
G04 #@! TO.P,J3,3*
G04 #@! TO.N,/ADC_IN*
X181420000Y-94390000D03*
G04 #@! TO.P,J3,2*
G04 #@! TO.N,/GND*
X183960000Y-94390000D03*
D15*
G04 #@! TO.P,J3,1*
G04 #@! TO.N,/3V3*
X186500000Y-94390000D03*
G04 #@! TD*
D16*
G04 #@! TO.P,R1,2*
G04 #@! TO.N,/DAC_OUT*
X178860000Y-81470000D03*
G04 #@! TO.P,R1,1*
G04 #@! TO.N,Net-(C1-Pad2)*
X176660000Y-81470000D03*
G04 #@! TD*
D17*
G04 #@! TO.P,R2,2*
G04 #@! TO.N,/GND*
X200100000Y-65130000D03*
G04 #@! TO.P,R2,1*
G04 #@! TO.N,Net-(C2-Pad2)*
X200100000Y-62930000D03*
G04 #@! TD*
D16*
G04 #@! TO.P,R3,1*
G04 #@! TO.N,Net-(C5-Pad1)*
X178860000Y-79590000D03*
G04 #@! TO.P,R3,2*
G04 #@! TO.N,Net-(C1-Pad2)*
X176660000Y-79590000D03*
G04 #@! TD*
D17*
G04 #@! TO.P,R4,1*
G04 #@! TO.N,Net-(C2-Pad1)*
X198250000Y-62860000D03*
G04 #@! TO.P,R4,2*
G04 #@! TO.N,/1V7*
X198250000Y-65060000D03*
G04 #@! TD*
D16*
G04 #@! TO.P,R5,2*
G04 #@! TO.N,Net-(C5-Pad1)*
X178920000Y-77640000D03*
G04 #@! TO.P,R5,1*
G04 #@! TO.N,Net-(C4-Pad2)*
X176720000Y-77640000D03*
G04 #@! TD*
G04 #@! TO.P,R6,1*
G04 #@! TO.N,Net-(R6-Pad1)*
X195680000Y-77930000D03*
G04 #@! TO.P,R6,2*
G04 #@! TO.N,Net-(C3-Pad1)*
X193480000Y-77930000D03*
G04 #@! TD*
G04 #@! TO.P,R7,2*
G04 #@! TO.N,Net-(C2-Pad1)*
X196090000Y-60530000D03*
G04 #@! TO.P,R7,1*
G04 #@! TO.N,Net-(C6-Pad2)*
X193890000Y-60530000D03*
G04 #@! TD*
D17*
G04 #@! TO.P,R8,2*
G04 #@! TO.N,Net-(C8-Pad2)*
X195440000Y-65350000D03*
G04 #@! TO.P,R8,1*
G04 #@! TO.N,Net-(C8-Pad1)*
X195440000Y-67550000D03*
G04 #@! TD*
G04 #@! TO.P,R9,1*
G04 #@! TO.N,/ADC_IN*
X193620000Y-71820000D03*
G04 #@! TO.P,R9,2*
G04 #@! TO.N,Net-(C8-Pad1)*
X193620000Y-69620000D03*
G04 #@! TD*
G04 #@! TO.P,R10,1*
G04 #@! TO.N,/1V7*
X186800000Y-86870000D03*
G04 #@! TO.P,R10,2*
G04 #@! TO.N,/3V3*
X186800000Y-89070000D03*
G04 #@! TD*
G04 #@! TO.P,R11,2*
G04 #@! TO.N,/1V7*
X188480000Y-86820000D03*
G04 #@! TO.P,R11,1*
G04 #@! TO.N,/GND*
X188480000Y-89020000D03*
G04 #@! TD*
D18*
G04 #@! TO.P,RV1,1*
G04 #@! TO.N,Net-(C8-Pad2)*
X199980000Y-70580000D03*
G04 #@! TO.P,RV1,3*
G04 #@! TO.N,Net-(R6-Pad1)*
X199980000Y-80580000D03*
G04 #@! TO.P,RV1,2*
G04 #@! TO.N,Net-(C8-Pad2)*
X199980000Y-75580000D03*
G04 #@! TD*
D19*
G04 #@! TO.P,U1,8*
G04 #@! TO.N,/3V3*
X182010000Y-68040000D03*
G04 #@! TO.P,U1,4*
G04 #@! TO.N,/GND*
X189630000Y-60420000D03*
G04 #@! TO.P,U1,7*
G04 #@! TO.N,Net-(C5-Pad2)*
X182010000Y-65500000D03*
G04 #@! TO.P,U1,3*
G04 #@! TO.N,Net-(C6-Pad2)*
X189630000Y-62960000D03*
G04 #@! TO.P,U1,6*
G04 #@! TO.N,Net-(C5-Pad2)*
X182010000Y-62960000D03*
G04 #@! TO.P,U1,2*
G04 #@! TO.N,Net-(C8-Pad2)*
X189630000Y-65500000D03*
G04 #@! TO.P,U1,5*
G04 #@! TO.N,Net-(C4-Pad2)*
X182010000Y-60420000D03*
D12*
G04 #@! TO.P,U1,1*
G04 #@! TO.N,Net-(C8-Pad1)*
X189630000Y-68040000D03*
G04 #@! TD*
D20*
G04 #@! TO.N,/1V7*
X198950000Y-67060000D03*
G04 #@! TD*
D21*
G04 #@! TO.N,Net-(C1-Pad2)*
X172670000Y-81470000D02*
X172650000Y-81450000D01*
X176660000Y-81470000D02*
X172670000Y-81470000D01*
X176660000Y-81470000D02*
X176660000Y-79590000D01*
G04 #@! TO.N,/GND*
X204800000Y-65130000D02*
X205250000Y-65580000D01*
G04 #@! TO.N,Net-(C2-Pad2)*
X200120000Y-60500000D02*
X200100000Y-60520000D01*
X205250000Y-60500000D02*
X200120000Y-60500000D01*
X200100000Y-62930000D02*
X200100000Y-60520000D01*
G04 #@! TO.N,Net-(C2-Pad1)*
X198250000Y-60570000D02*
X198200000Y-60520000D01*
X198250000Y-62860000D02*
X198250000Y-60570000D01*
X196100000Y-60520000D02*
X196090000Y-60530000D01*
X198200000Y-60520000D02*
X196100000Y-60520000D01*
G04 #@! TO.N,Net-(C3-Pad1)*
X188370000Y-77930000D02*
X188340000Y-77900000D01*
X193480000Y-77930000D02*
X188370000Y-77930000D01*
G04 #@! TO.N,Net-(C4-Pad2)*
X172660000Y-77640000D02*
X172650000Y-77630000D01*
X176720000Y-77640000D02*
X172660000Y-77640000D01*
X176720000Y-77640000D02*
X176720000Y-69700000D01*
X176720000Y-69700000D02*
X179180000Y-67240000D01*
X179180000Y-63250000D02*
X182010000Y-60420000D01*
X179180000Y-67240000D02*
X179180000Y-63250000D01*
G04 #@! TO.N,Net-(C5-Pad2)*
X182000000Y-62970000D02*
X182010000Y-62960000D01*
X179690000Y-65280000D02*
X179690000Y-72320000D01*
X182010000Y-62960000D02*
X179690000Y-65280000D01*
X182010000Y-64091370D02*
X182010000Y-65500000D01*
X182010000Y-62960000D02*
X182010000Y-64091370D01*
G04 #@! TO.N,Net-(C5-Pad1)*
X178860000Y-77700000D02*
X178920000Y-77640000D01*
X178860000Y-79590000D02*
X178860000Y-77700000D01*
X179065000Y-74220000D02*
X179690000Y-74220000D01*
X178920000Y-74365000D02*
X179065000Y-74220000D01*
X178920000Y-77640000D02*
X178920000Y-74365000D01*
G04 #@! TO.N,Net-(C6-Pad2)*
X192060000Y-60530000D02*
X189630000Y-62960000D01*
X193890000Y-60530000D02*
X192060000Y-60530000D01*
X193890000Y-57440000D02*
X193850000Y-57400000D01*
X193890000Y-60530000D02*
X193890000Y-57440000D01*
G04 #@! TO.N,Net-(C7-Pad2)*
X170480000Y-60480000D02*
X167340000Y-60480000D01*
X172920000Y-62920000D02*
X170480000Y-60480000D01*
G04 #@! TO.N,Net-(C8-Pad1)*
X193620000Y-67475000D02*
X193620000Y-67250000D01*
X195140000Y-67250000D02*
X195440000Y-67550000D01*
X193620000Y-67250000D02*
X195140000Y-67250000D01*
X193620000Y-69470000D02*
X193620000Y-69620000D01*
X193620000Y-69620000D02*
X193620000Y-67250000D01*
X190420000Y-67250000D02*
X189630000Y-68040000D01*
X193620000Y-67250000D02*
X190420000Y-67250000D01*
G04 #@! TO.N,Net-(C8-Pad2)*
X195440000Y-65350000D02*
X193620000Y-65350000D01*
X189780000Y-65350000D02*
X189630000Y-65500000D01*
X193620000Y-65350000D02*
X189780000Y-65350000D01*
X199980000Y-70580000D02*
X196830000Y-67430000D01*
X196830000Y-67430000D02*
X196830000Y-65860000D01*
X196320000Y-65350000D02*
X195440000Y-65350000D01*
X196830000Y-65860000D02*
X196320000Y-65350000D01*
X199980000Y-70580000D02*
X199980000Y-75580000D01*
G04 #@! TO.N,/3V3*
X186500000Y-89370000D02*
X186800000Y-89070000D01*
X186500000Y-94390000D02*
X186500000Y-89370000D01*
X186440000Y-88710000D02*
X186800000Y-89070000D01*
X184820000Y-88710000D02*
X186440000Y-88710000D01*
G04 #@! TO.N,/ADC_IN*
X195190000Y-71820000D02*
X195390000Y-71620000D01*
X193620000Y-71820000D02*
X195190000Y-71820000D01*
X193620000Y-71820000D02*
X183510000Y-71820000D01*
X183510000Y-71820000D02*
X181410000Y-73920000D01*
X181410000Y-93177919D02*
X181410000Y-73920000D01*
X181420000Y-93187919D02*
X181410000Y-93177919D01*
X181420000Y-94390000D02*
X181420000Y-93187919D01*
G04 #@! TO.N,/1V7*
X193210000Y-88160000D02*
X193970000Y-88920000D01*
X188430000Y-86870000D02*
X188480000Y-86820000D01*
X186800000Y-86870000D02*
X188430000Y-86870000D01*
X193970000Y-87870000D02*
X193970000Y-88920000D01*
X192920000Y-86820000D02*
X193970000Y-87870000D01*
X188480000Y-86820000D02*
X192920000Y-86820000D01*
X198250000Y-65910000D02*
X198950000Y-66610000D01*
X198250000Y-65060000D02*
X198250000Y-65910000D01*
X198950000Y-66610000D02*
X198950000Y-67060000D01*
G04 #@! TO.N,/DAC_OUT*
X178870000Y-81480000D02*
X178860000Y-81470000D01*
X178860000Y-94370000D02*
X178880000Y-94390000D01*
X178860000Y-81470000D02*
X178860000Y-94370000D01*
G04 #@! TO.N,Net-(R6-Pad1)*
X197330000Y-77930000D02*
X195680000Y-77930000D01*
X199980000Y-80580000D02*
X197330000Y-77930000D01*
G04 #@! TD*
D22*
G04 #@! TO.N,/GND*
G36*
X206583640Y-59230849D02*
X206557809Y-59192191D01*
X206347765Y-59051843D01*
X206100000Y-59002560D01*
X204400000Y-59002560D01*
X204152235Y-59051843D01*
X203942191Y-59192191D01*
X203801843Y-59402235D01*
X203752560Y-59650000D01*
X203752560Y-59740000D01*
X201193095Y-59740000D01*
X201157809Y-59687191D01*
X200947765Y-59546843D01*
X200700000Y-59497560D01*
X199500000Y-59497560D01*
X199252235Y-59546843D01*
X199150000Y-59615155D01*
X199047765Y-59546843D01*
X198800000Y-59497560D01*
X197600000Y-59497560D01*
X197352235Y-59546843D01*
X197176101Y-59664533D01*
X197147809Y-59622191D01*
X196937765Y-59481843D01*
X196690000Y-59432560D01*
X195490000Y-59432560D01*
X195242235Y-59481843D01*
X195032191Y-59622191D01*
X194990000Y-59685334D01*
X194947809Y-59622191D01*
X194737765Y-59481843D01*
X194650000Y-59464386D01*
X194650000Y-58382658D01*
X194697765Y-58373157D01*
X194907809Y-58232809D01*
X195048157Y-58022765D01*
X195097440Y-57775000D01*
X195097440Y-57025000D01*
X195048157Y-56777235D01*
X194907809Y-56567191D01*
X194697765Y-56426843D01*
X194450000Y-56377560D01*
X193250000Y-56377560D01*
X193002235Y-56426843D01*
X192910898Y-56487873D01*
X192909698Y-56486673D01*
X192676309Y-56390000D01*
X192235750Y-56390000D01*
X192077000Y-56548750D01*
X192077000Y-57273000D01*
X192097000Y-57273000D01*
X192097000Y-57527000D01*
X192077000Y-57527000D01*
X192077000Y-58251250D01*
X192235750Y-58410000D01*
X192676309Y-58410000D01*
X192909698Y-58313327D01*
X192910898Y-58312127D01*
X193002235Y-58373157D01*
X193130001Y-58398571D01*
X193130000Y-59464386D01*
X193042235Y-59481843D01*
X192832191Y-59622191D01*
X192733427Y-59770000D01*
X192134847Y-59770000D01*
X192060000Y-59755112D01*
X191985153Y-59770000D01*
X191985148Y-59770000D01*
X191763463Y-59814096D01*
X191512071Y-59982071D01*
X191469671Y-60045527D01*
X190924128Y-60591071D01*
X190899915Y-60547000D01*
X189757000Y-60547000D01*
X189757000Y-60567000D01*
X189503000Y-60567000D01*
X189503000Y-60547000D01*
X188360085Y-60547000D01*
X188238096Y-60769039D01*
X188398959Y-61157423D01*
X188774866Y-61572389D01*
X188979108Y-61669053D01*
X188595423Y-61925423D01*
X188278260Y-62400091D01*
X188166887Y-62960000D01*
X188278260Y-63519909D01*
X188595423Y-63994577D01*
X188947758Y-64230000D01*
X188595423Y-64465423D01*
X188278260Y-64940091D01*
X188166887Y-65500000D01*
X188278260Y-66059909D01*
X188595423Y-66534577D01*
X188716106Y-66615215D01*
X188582235Y-66641843D01*
X188372191Y-66782191D01*
X188231843Y-66992235D01*
X188182560Y-67240000D01*
X188182560Y-68840000D01*
X188231843Y-69087765D01*
X188372191Y-69297809D01*
X188582235Y-69438157D01*
X188830000Y-69487440D01*
X190430000Y-69487440D01*
X190677765Y-69438157D01*
X190887809Y-69297809D01*
X191028157Y-69087765D01*
X191077440Y-68840000D01*
X191077440Y-68010000D01*
X192629386Y-68010000D01*
X192646843Y-68097765D01*
X192787191Y-68307809D01*
X192860001Y-68356459D01*
X192860000Y-68463427D01*
X192712191Y-68562191D01*
X192571843Y-68772235D01*
X192522560Y-69020000D01*
X192522560Y-70220000D01*
X192571843Y-70467765D01*
X192712191Y-70677809D01*
X192775334Y-70720000D01*
X192712191Y-70762191D01*
X192571843Y-70972235D01*
X192554386Y-71060000D01*
X183584846Y-71060000D01*
X183509999Y-71045112D01*
X183435152Y-71060000D01*
X183435148Y-71060000D01*
X183213463Y-71104096D01*
X183150902Y-71145898D01*
X183025526Y-71229671D01*
X183025524Y-71229673D01*
X182962071Y-71272071D01*
X182919673Y-71335524D01*
X180925528Y-73329671D01*
X180862072Y-73372071D01*
X180819672Y-73435527D01*
X180819671Y-73435528D01*
X180708763Y-73601514D01*
X180663157Y-73372235D01*
X180594845Y-73270000D01*
X180663157Y-73167765D01*
X180712440Y-72920000D01*
X180712440Y-71720000D01*
X180663157Y-71472235D01*
X180522809Y-71262191D01*
X180450000Y-71213541D01*
X180450000Y-65594801D01*
X180547405Y-65497396D01*
X180546887Y-65500000D01*
X180658260Y-66059909D01*
X180975423Y-66534577D01*
X181327758Y-66770000D01*
X180975423Y-67005423D01*
X180658260Y-67480091D01*
X180546887Y-68040000D01*
X180658260Y-68599909D01*
X180975423Y-69074577D01*
X181450091Y-69391740D01*
X181868667Y-69475000D01*
X182151333Y-69475000D01*
X182569909Y-69391740D01*
X183044577Y-69074577D01*
X183361740Y-68599909D01*
X183473113Y-68040000D01*
X183361740Y-67480091D01*
X183044577Y-67005423D01*
X182692242Y-66770000D01*
X183044577Y-66534577D01*
X183361740Y-66059909D01*
X183473113Y-65500000D01*
X183361740Y-64940091D01*
X183044577Y-64465423D01*
X182770000Y-64281957D01*
X182770000Y-64178043D01*
X183044577Y-63994577D01*
X183361740Y-63519909D01*
X183473113Y-62960000D01*
X183361740Y-62400091D01*
X183044577Y-61925423D01*
X182692242Y-61690000D01*
X183044577Y-61454577D01*
X183361740Y-60979909D01*
X183473113Y-60420000D01*
X183403685Y-60070961D01*
X188238096Y-60070961D01*
X188360085Y-60293000D01*
X189503000Y-60293000D01*
X189503000Y-59149371D01*
X189757000Y-59149371D01*
X189757000Y-60293000D01*
X190899915Y-60293000D01*
X191021904Y-60070961D01*
X190861041Y-59682577D01*
X190485134Y-59267611D01*
X189979041Y-59028086D01*
X189757000Y-59149371D01*
X189503000Y-59149371D01*
X189280959Y-59028086D01*
X188774866Y-59267611D01*
X188398959Y-59682577D01*
X188238096Y-60070961D01*
X183403685Y-60070961D01*
X183361740Y-59860091D01*
X183044577Y-59385423D01*
X182569909Y-59068260D01*
X182151333Y-58985000D01*
X181868667Y-58985000D01*
X181450091Y-59068260D01*
X180975423Y-59385423D01*
X180658260Y-59860091D01*
X180546887Y-60420000D01*
X180611312Y-60743886D01*
X178695528Y-62659671D01*
X178632072Y-62702071D01*
X178589672Y-62765527D01*
X178589671Y-62765528D01*
X178464097Y-62953463D01*
X178405112Y-63250000D01*
X178420001Y-63324852D01*
X178420000Y-66925197D01*
X176235528Y-69109671D01*
X176172072Y-69152071D01*
X176129672Y-69215527D01*
X176129671Y-69215528D01*
X176004097Y-69403463D01*
X175945112Y-69700000D01*
X175960001Y-69774852D01*
X175960000Y-76574386D01*
X175872235Y-76591843D01*
X175662191Y-76732191D01*
X175563427Y-76880000D01*
X173763141Y-76880000D01*
X173707809Y-76797191D01*
X173497765Y-76656843D01*
X173250000Y-76607560D01*
X172050000Y-76607560D01*
X171802235Y-76656843D01*
X171710898Y-76717873D01*
X171709698Y-76716673D01*
X171476309Y-76620000D01*
X171035750Y-76620000D01*
X170877000Y-76778750D01*
X170877000Y-77503000D01*
X170897000Y-77503000D01*
X170897000Y-77757000D01*
X170877000Y-77757000D01*
X170877000Y-78481250D01*
X171035750Y-78640000D01*
X171476309Y-78640000D01*
X171709698Y-78543327D01*
X171710898Y-78542127D01*
X171802235Y-78603157D01*
X172050000Y-78652440D01*
X173250000Y-78652440D01*
X173497765Y-78603157D01*
X173707809Y-78462809D01*
X173749777Y-78400000D01*
X175563427Y-78400000D01*
X175662191Y-78547809D01*
X175732749Y-78594954D01*
X175602191Y-78682191D01*
X175461843Y-78892235D01*
X175412560Y-79140000D01*
X175412560Y-80040000D01*
X175461843Y-80287765D01*
X175602191Y-80497809D01*
X175650368Y-80530000D01*
X175602191Y-80562191D01*
X175503427Y-80710000D01*
X173769822Y-80710000D01*
X173707809Y-80617191D01*
X173497765Y-80476843D01*
X173250000Y-80427560D01*
X172050000Y-80427560D01*
X171802235Y-80476843D01*
X171710898Y-80537873D01*
X171709698Y-80536673D01*
X171476309Y-80440000D01*
X171035750Y-80440000D01*
X170877000Y-80598750D01*
X170877000Y-81323000D01*
X170897000Y-81323000D01*
X170897000Y-81577000D01*
X170877000Y-81577000D01*
X170877000Y-82301250D01*
X171035750Y-82460000D01*
X171476309Y-82460000D01*
X171709698Y-82363327D01*
X171710898Y-82362127D01*
X171802235Y-82423157D01*
X172050000Y-82472440D01*
X173250000Y-82472440D01*
X173497765Y-82423157D01*
X173707809Y-82282809D01*
X173743095Y-82230000D01*
X175503427Y-82230000D01*
X175602191Y-82377809D01*
X175812235Y-82518157D01*
X176060000Y-82567440D01*
X177260000Y-82567440D01*
X177507765Y-82518157D01*
X177717809Y-82377809D01*
X177760000Y-82314666D01*
X177802191Y-82377809D01*
X178012235Y-82518157D01*
X178100000Y-82535614D01*
X178100001Y-93125185D01*
X177809375Y-93319375D01*
X177481161Y-93810582D01*
X177365908Y-94390000D01*
X177481161Y-94969418D01*
X177809375Y-95460625D01*
X177827895Y-95473000D01*
X165827000Y-95473000D01*
X165827000Y-81735750D01*
X169515000Y-81735750D01*
X169515000Y-81951310D01*
X169611673Y-82184699D01*
X169790302Y-82363327D01*
X170023691Y-82460000D01*
X170464250Y-82460000D01*
X170623000Y-82301250D01*
X170623000Y-81577000D01*
X169673750Y-81577000D01*
X169515000Y-81735750D01*
X165827000Y-81735750D01*
X165827000Y-80948690D01*
X169515000Y-80948690D01*
X169515000Y-81164250D01*
X169673750Y-81323000D01*
X170623000Y-81323000D01*
X170623000Y-80598750D01*
X170464250Y-80440000D01*
X170023691Y-80440000D01*
X169790302Y-80536673D01*
X169611673Y-80715301D01*
X169515000Y-80948690D01*
X165827000Y-80948690D01*
X165827000Y-77915750D01*
X169515000Y-77915750D01*
X169515000Y-78131310D01*
X169611673Y-78364699D01*
X169790302Y-78543327D01*
X170023691Y-78640000D01*
X170464250Y-78640000D01*
X170623000Y-78481250D01*
X170623000Y-77757000D01*
X169673750Y-77757000D01*
X169515000Y-77915750D01*
X165827000Y-77915750D01*
X165827000Y-77128690D01*
X169515000Y-77128690D01*
X169515000Y-77344250D01*
X169673750Y-77503000D01*
X170623000Y-77503000D01*
X170623000Y-76778750D01*
X170464250Y-76620000D01*
X170023691Y-76620000D01*
X169790302Y-76716673D01*
X169611673Y-76895301D01*
X169515000Y-77128690D01*
X165827000Y-77128690D01*
X165827000Y-65916890D01*
X165898524Y-65916890D01*
X166068355Y-66326924D01*
X166458642Y-66755183D01*
X166983108Y-67001486D01*
X167213000Y-66880819D01*
X167213000Y-65687000D01*
X167467000Y-65687000D01*
X167467000Y-66880819D01*
X167696892Y-67001486D01*
X168221358Y-66755183D01*
X168611645Y-66326924D01*
X168781476Y-65916890D01*
X168660155Y-65687000D01*
X167467000Y-65687000D01*
X167213000Y-65687000D01*
X166019845Y-65687000D01*
X165898524Y-65916890D01*
X165827000Y-65916890D01*
X165827000Y-63376890D01*
X165898524Y-63376890D01*
X166068355Y-63786924D01*
X166458642Y-64215183D01*
X166617954Y-64290000D01*
X166458642Y-64364817D01*
X166068355Y-64793076D01*
X165898524Y-65203110D01*
X166019845Y-65433000D01*
X167213000Y-65433000D01*
X167213000Y-63147000D01*
X167467000Y-63147000D01*
X167467000Y-65433000D01*
X168660155Y-65433000D01*
X168781476Y-65203110D01*
X168611645Y-64793076D01*
X168221358Y-64364817D01*
X168062046Y-64290000D01*
X168221358Y-64215183D01*
X168611645Y-63786924D01*
X168781476Y-63376890D01*
X168660155Y-63147000D01*
X167467000Y-63147000D01*
X167213000Y-63147000D01*
X166019845Y-63147000D01*
X165898524Y-63376890D01*
X165827000Y-63376890D01*
X165827000Y-59630000D01*
X165842560Y-59630000D01*
X165842560Y-61330000D01*
X165891843Y-61577765D01*
X166032191Y-61787809D01*
X166242235Y-61928157D01*
X166345708Y-61948739D01*
X166068355Y-62253076D01*
X165898524Y-62663110D01*
X166019845Y-62893000D01*
X167213000Y-62893000D01*
X167213000Y-62873000D01*
X167467000Y-62873000D01*
X167467000Y-62893000D01*
X168660155Y-62893000D01*
X168781476Y-62663110D01*
X168611645Y-62253076D01*
X168334292Y-61948739D01*
X168437765Y-61928157D01*
X168647809Y-61787809D01*
X168788157Y-61577765D01*
X168837440Y-61330000D01*
X168837440Y-61240000D01*
X170165199Y-61240000D01*
X171506897Y-62581698D01*
X171485000Y-62634561D01*
X171485000Y-63205439D01*
X171703466Y-63732862D01*
X172107138Y-64136534D01*
X172634561Y-64355000D01*
X173205439Y-64355000D01*
X173732862Y-64136534D01*
X174001899Y-63867497D01*
X174021843Y-63967765D01*
X174162191Y-64177809D01*
X174372235Y-64318157D01*
X174620000Y-64367440D01*
X176220000Y-64367440D01*
X176467765Y-64318157D01*
X176677809Y-64177809D01*
X176818157Y-63967765D01*
X176867440Y-63720000D01*
X176867440Y-62120000D01*
X176818157Y-61872235D01*
X176677809Y-61662191D01*
X176467765Y-61521843D01*
X176220000Y-61472560D01*
X174620000Y-61472560D01*
X174372235Y-61521843D01*
X174162191Y-61662191D01*
X174021843Y-61872235D01*
X174001899Y-61972503D01*
X173732862Y-61703466D01*
X173205439Y-61485000D01*
X172634561Y-61485000D01*
X172581698Y-61506897D01*
X171070331Y-59995530D01*
X171027929Y-59932071D01*
X170776537Y-59764096D01*
X170554852Y-59720000D01*
X170554847Y-59720000D01*
X170480000Y-59705112D01*
X170405153Y-59720000D01*
X168837440Y-59720000D01*
X168837440Y-59630000D01*
X168788157Y-59382235D01*
X168647809Y-59172191D01*
X168437765Y-59031843D01*
X168190000Y-58982560D01*
X166490000Y-58982560D01*
X166242235Y-59031843D01*
X166032191Y-59172191D01*
X165891843Y-59382235D01*
X165842560Y-59630000D01*
X165827000Y-59630000D01*
X165827000Y-57685750D01*
X190715000Y-57685750D01*
X190715000Y-57901310D01*
X190811673Y-58134699D01*
X190990302Y-58313327D01*
X191223691Y-58410000D01*
X191664250Y-58410000D01*
X191823000Y-58251250D01*
X191823000Y-57527000D01*
X190873750Y-57527000D01*
X190715000Y-57685750D01*
X165827000Y-57685750D01*
X165827000Y-56898690D01*
X190715000Y-56898690D01*
X190715000Y-57114250D01*
X190873750Y-57273000D01*
X191823000Y-57273000D01*
X191823000Y-56548750D01*
X191664250Y-56390000D01*
X191223691Y-56390000D01*
X190990302Y-56486673D01*
X190811673Y-56665301D01*
X190715000Y-56898690D01*
X165827000Y-56898690D01*
X165827000Y-55027000D01*
X206573311Y-55027000D01*
X206583640Y-59230849D01*
X206583640Y-59230849D01*
G37*
X206583640Y-59230849D02*
X206557809Y-59192191D01*
X206347765Y-59051843D01*
X206100000Y-59002560D01*
X204400000Y-59002560D01*
X204152235Y-59051843D01*
X203942191Y-59192191D01*
X203801843Y-59402235D01*
X203752560Y-59650000D01*
X203752560Y-59740000D01*
X201193095Y-59740000D01*
X201157809Y-59687191D01*
X200947765Y-59546843D01*
X200700000Y-59497560D01*
X199500000Y-59497560D01*
X199252235Y-59546843D01*
X199150000Y-59615155D01*
X199047765Y-59546843D01*
X198800000Y-59497560D01*
X197600000Y-59497560D01*
X197352235Y-59546843D01*
X197176101Y-59664533D01*
X197147809Y-59622191D01*
X196937765Y-59481843D01*
X196690000Y-59432560D01*
X195490000Y-59432560D01*
X195242235Y-59481843D01*
X195032191Y-59622191D01*
X194990000Y-59685334D01*
X194947809Y-59622191D01*
X194737765Y-59481843D01*
X194650000Y-59464386D01*
X194650000Y-58382658D01*
X194697765Y-58373157D01*
X194907809Y-58232809D01*
X195048157Y-58022765D01*
X195097440Y-57775000D01*
X195097440Y-57025000D01*
X195048157Y-56777235D01*
X194907809Y-56567191D01*
X194697765Y-56426843D01*
X194450000Y-56377560D01*
X193250000Y-56377560D01*
X193002235Y-56426843D01*
X192910898Y-56487873D01*
X192909698Y-56486673D01*
X192676309Y-56390000D01*
X192235750Y-56390000D01*
X192077000Y-56548750D01*
X192077000Y-57273000D01*
X192097000Y-57273000D01*
X192097000Y-57527000D01*
X192077000Y-57527000D01*
X192077000Y-58251250D01*
X192235750Y-58410000D01*
X192676309Y-58410000D01*
X192909698Y-58313327D01*
X192910898Y-58312127D01*
X193002235Y-58373157D01*
X193130001Y-58398571D01*
X193130000Y-59464386D01*
X193042235Y-59481843D01*
X192832191Y-59622191D01*
X192733427Y-59770000D01*
X192134847Y-59770000D01*
X192060000Y-59755112D01*
X191985153Y-59770000D01*
X191985148Y-59770000D01*
X191763463Y-59814096D01*
X191512071Y-59982071D01*
X191469671Y-60045527D01*
X190924128Y-60591071D01*
X190899915Y-60547000D01*
X189757000Y-60547000D01*
X189757000Y-60567000D01*
X189503000Y-60567000D01*
X189503000Y-60547000D01*
X188360085Y-60547000D01*
X188238096Y-60769039D01*
X188398959Y-61157423D01*
X188774866Y-61572389D01*
X188979108Y-61669053D01*
X188595423Y-61925423D01*
X188278260Y-62400091D01*
X188166887Y-62960000D01*
X188278260Y-63519909D01*
X188595423Y-63994577D01*
X188947758Y-64230000D01*
X188595423Y-64465423D01*
X188278260Y-64940091D01*
X188166887Y-65500000D01*
X188278260Y-66059909D01*
X188595423Y-66534577D01*
X188716106Y-66615215D01*
X188582235Y-66641843D01*
X188372191Y-66782191D01*
X188231843Y-66992235D01*
X188182560Y-67240000D01*
X188182560Y-68840000D01*
X188231843Y-69087765D01*
X188372191Y-69297809D01*
X188582235Y-69438157D01*
X188830000Y-69487440D01*
X190430000Y-69487440D01*
X190677765Y-69438157D01*
X190887809Y-69297809D01*
X191028157Y-69087765D01*
X191077440Y-68840000D01*
X191077440Y-68010000D01*
X192629386Y-68010000D01*
X192646843Y-68097765D01*
X192787191Y-68307809D01*
X192860001Y-68356459D01*
X192860000Y-68463427D01*
X192712191Y-68562191D01*
X192571843Y-68772235D01*
X192522560Y-69020000D01*
X192522560Y-70220000D01*
X192571843Y-70467765D01*
X192712191Y-70677809D01*
X192775334Y-70720000D01*
X192712191Y-70762191D01*
X192571843Y-70972235D01*
X192554386Y-71060000D01*
X183584846Y-71060000D01*
X183509999Y-71045112D01*
X183435152Y-71060000D01*
X183435148Y-71060000D01*
X183213463Y-71104096D01*
X183150902Y-71145898D01*
X183025526Y-71229671D01*
X183025524Y-71229673D01*
X182962071Y-71272071D01*
X182919673Y-71335524D01*
X180925528Y-73329671D01*
X180862072Y-73372071D01*
X180819672Y-73435527D01*
X180819671Y-73435528D01*
X180708763Y-73601514D01*
X180663157Y-73372235D01*
X180594845Y-73270000D01*
X180663157Y-73167765D01*
X180712440Y-72920000D01*
X180712440Y-71720000D01*
X180663157Y-71472235D01*
X180522809Y-71262191D01*
X180450000Y-71213541D01*
X180450000Y-65594801D01*
X180547405Y-65497396D01*
X180546887Y-65500000D01*
X180658260Y-66059909D01*
X180975423Y-66534577D01*
X181327758Y-66770000D01*
X180975423Y-67005423D01*
X180658260Y-67480091D01*
X180546887Y-68040000D01*
X180658260Y-68599909D01*
X180975423Y-69074577D01*
X181450091Y-69391740D01*
X181868667Y-69475000D01*
X182151333Y-69475000D01*
X182569909Y-69391740D01*
X183044577Y-69074577D01*
X183361740Y-68599909D01*
X183473113Y-68040000D01*
X183361740Y-67480091D01*
X183044577Y-67005423D01*
X182692242Y-66770000D01*
X183044577Y-66534577D01*
X183361740Y-66059909D01*
X183473113Y-65500000D01*
X183361740Y-64940091D01*
X183044577Y-64465423D01*
X182770000Y-64281957D01*
X182770000Y-64178043D01*
X183044577Y-63994577D01*
X183361740Y-63519909D01*
X183473113Y-62960000D01*
X183361740Y-62400091D01*
X183044577Y-61925423D01*
X182692242Y-61690000D01*
X183044577Y-61454577D01*
X183361740Y-60979909D01*
X183473113Y-60420000D01*
X183403685Y-60070961D01*
X188238096Y-60070961D01*
X188360085Y-60293000D01*
X189503000Y-60293000D01*
X189503000Y-59149371D01*
X189757000Y-59149371D01*
X189757000Y-60293000D01*
X190899915Y-60293000D01*
X191021904Y-60070961D01*
X190861041Y-59682577D01*
X190485134Y-59267611D01*
X189979041Y-59028086D01*
X189757000Y-59149371D01*
X189503000Y-59149371D01*
X189280959Y-59028086D01*
X188774866Y-59267611D01*
X188398959Y-59682577D01*
X188238096Y-60070961D01*
X183403685Y-60070961D01*
X183361740Y-59860091D01*
X183044577Y-59385423D01*
X182569909Y-59068260D01*
X182151333Y-58985000D01*
X181868667Y-58985000D01*
X181450091Y-59068260D01*
X180975423Y-59385423D01*
X180658260Y-59860091D01*
X180546887Y-60420000D01*
X180611312Y-60743886D01*
X178695528Y-62659671D01*
X178632072Y-62702071D01*
X178589672Y-62765527D01*
X178589671Y-62765528D01*
X178464097Y-62953463D01*
X178405112Y-63250000D01*
X178420001Y-63324852D01*
X178420000Y-66925197D01*
X176235528Y-69109671D01*
X176172072Y-69152071D01*
X176129672Y-69215527D01*
X176129671Y-69215528D01*
X176004097Y-69403463D01*
X175945112Y-69700000D01*
X175960001Y-69774852D01*
X175960000Y-76574386D01*
X175872235Y-76591843D01*
X175662191Y-76732191D01*
X175563427Y-76880000D01*
X173763141Y-76880000D01*
X173707809Y-76797191D01*
X173497765Y-76656843D01*
X173250000Y-76607560D01*
X172050000Y-76607560D01*
X171802235Y-76656843D01*
X171710898Y-76717873D01*
X171709698Y-76716673D01*
X171476309Y-76620000D01*
X171035750Y-76620000D01*
X170877000Y-76778750D01*
X170877000Y-77503000D01*
X170897000Y-77503000D01*
X170897000Y-77757000D01*
X170877000Y-77757000D01*
X170877000Y-78481250D01*
X171035750Y-78640000D01*
X171476309Y-78640000D01*
X171709698Y-78543327D01*
X171710898Y-78542127D01*
X171802235Y-78603157D01*
X172050000Y-78652440D01*
X173250000Y-78652440D01*
X173497765Y-78603157D01*
X173707809Y-78462809D01*
X173749777Y-78400000D01*
X175563427Y-78400000D01*
X175662191Y-78547809D01*
X175732749Y-78594954D01*
X175602191Y-78682191D01*
X175461843Y-78892235D01*
X175412560Y-79140000D01*
X175412560Y-80040000D01*
X175461843Y-80287765D01*
X175602191Y-80497809D01*
X175650368Y-80530000D01*
X175602191Y-80562191D01*
X175503427Y-80710000D01*
X173769822Y-80710000D01*
X173707809Y-80617191D01*
X173497765Y-80476843D01*
X173250000Y-80427560D01*
X172050000Y-80427560D01*
X171802235Y-80476843D01*
X171710898Y-80537873D01*
X171709698Y-80536673D01*
X171476309Y-80440000D01*
X171035750Y-80440000D01*
X170877000Y-80598750D01*
X170877000Y-81323000D01*
X170897000Y-81323000D01*
X170897000Y-81577000D01*
X170877000Y-81577000D01*
X170877000Y-82301250D01*
X171035750Y-82460000D01*
X171476309Y-82460000D01*
X171709698Y-82363327D01*
X171710898Y-82362127D01*
X171802235Y-82423157D01*
X172050000Y-82472440D01*
X173250000Y-82472440D01*
X173497765Y-82423157D01*
X173707809Y-82282809D01*
X173743095Y-82230000D01*
X175503427Y-82230000D01*
X175602191Y-82377809D01*
X175812235Y-82518157D01*
X176060000Y-82567440D01*
X177260000Y-82567440D01*
X177507765Y-82518157D01*
X177717809Y-82377809D01*
X177760000Y-82314666D01*
X177802191Y-82377809D01*
X178012235Y-82518157D01*
X178100000Y-82535614D01*
X178100001Y-93125185D01*
X177809375Y-93319375D01*
X177481161Y-93810582D01*
X177365908Y-94390000D01*
X177481161Y-94969418D01*
X177809375Y-95460625D01*
X177827895Y-95473000D01*
X165827000Y-95473000D01*
X165827000Y-81735750D01*
X169515000Y-81735750D01*
X169515000Y-81951310D01*
X169611673Y-82184699D01*
X169790302Y-82363327D01*
X170023691Y-82460000D01*
X170464250Y-82460000D01*
X170623000Y-82301250D01*
X170623000Y-81577000D01*
X169673750Y-81577000D01*
X169515000Y-81735750D01*
X165827000Y-81735750D01*
X165827000Y-80948690D01*
X169515000Y-80948690D01*
X169515000Y-81164250D01*
X169673750Y-81323000D01*
X170623000Y-81323000D01*
X170623000Y-80598750D01*
X170464250Y-80440000D01*
X170023691Y-80440000D01*
X169790302Y-80536673D01*
X169611673Y-80715301D01*
X169515000Y-80948690D01*
X165827000Y-80948690D01*
X165827000Y-77915750D01*
X169515000Y-77915750D01*
X169515000Y-78131310D01*
X169611673Y-78364699D01*
X169790302Y-78543327D01*
X170023691Y-78640000D01*
X170464250Y-78640000D01*
X170623000Y-78481250D01*
X170623000Y-77757000D01*
X169673750Y-77757000D01*
X169515000Y-77915750D01*
X165827000Y-77915750D01*
X165827000Y-77128690D01*
X169515000Y-77128690D01*
X169515000Y-77344250D01*
X169673750Y-77503000D01*
X170623000Y-77503000D01*
X170623000Y-76778750D01*
X170464250Y-76620000D01*
X170023691Y-76620000D01*
X169790302Y-76716673D01*
X169611673Y-76895301D01*
X169515000Y-77128690D01*
X165827000Y-77128690D01*
X165827000Y-65916890D01*
X165898524Y-65916890D01*
X166068355Y-66326924D01*
X166458642Y-66755183D01*
X166983108Y-67001486D01*
X167213000Y-66880819D01*
X167213000Y-65687000D01*
X167467000Y-65687000D01*
X167467000Y-66880819D01*
X167696892Y-67001486D01*
X168221358Y-66755183D01*
X168611645Y-66326924D01*
X168781476Y-65916890D01*
X168660155Y-65687000D01*
X167467000Y-65687000D01*
X167213000Y-65687000D01*
X166019845Y-65687000D01*
X165898524Y-65916890D01*
X165827000Y-65916890D01*
X165827000Y-63376890D01*
X165898524Y-63376890D01*
X166068355Y-63786924D01*
X166458642Y-64215183D01*
X166617954Y-64290000D01*
X166458642Y-64364817D01*
X166068355Y-64793076D01*
X165898524Y-65203110D01*
X166019845Y-65433000D01*
X167213000Y-65433000D01*
X167213000Y-63147000D01*
X167467000Y-63147000D01*
X167467000Y-65433000D01*
X168660155Y-65433000D01*
X168781476Y-65203110D01*
X168611645Y-64793076D01*
X168221358Y-64364817D01*
X168062046Y-64290000D01*
X168221358Y-64215183D01*
X168611645Y-63786924D01*
X168781476Y-63376890D01*
X168660155Y-63147000D01*
X167467000Y-63147000D01*
X167213000Y-63147000D01*
X166019845Y-63147000D01*
X165898524Y-63376890D01*
X165827000Y-63376890D01*
X165827000Y-59630000D01*
X165842560Y-59630000D01*
X165842560Y-61330000D01*
X165891843Y-61577765D01*
X166032191Y-61787809D01*
X166242235Y-61928157D01*
X166345708Y-61948739D01*
X166068355Y-62253076D01*
X165898524Y-62663110D01*
X166019845Y-62893000D01*
X167213000Y-62893000D01*
X167213000Y-62873000D01*
X167467000Y-62873000D01*
X167467000Y-62893000D01*
X168660155Y-62893000D01*
X168781476Y-62663110D01*
X168611645Y-62253076D01*
X168334292Y-61948739D01*
X168437765Y-61928157D01*
X168647809Y-61787809D01*
X168788157Y-61577765D01*
X168837440Y-61330000D01*
X168837440Y-61240000D01*
X170165199Y-61240000D01*
X171506897Y-62581698D01*
X171485000Y-62634561D01*
X171485000Y-63205439D01*
X171703466Y-63732862D01*
X172107138Y-64136534D01*
X172634561Y-64355000D01*
X173205439Y-64355000D01*
X173732862Y-64136534D01*
X174001899Y-63867497D01*
X174021843Y-63967765D01*
X174162191Y-64177809D01*
X174372235Y-64318157D01*
X174620000Y-64367440D01*
X176220000Y-64367440D01*
X176467765Y-64318157D01*
X176677809Y-64177809D01*
X176818157Y-63967765D01*
X176867440Y-63720000D01*
X176867440Y-62120000D01*
X176818157Y-61872235D01*
X176677809Y-61662191D01*
X176467765Y-61521843D01*
X176220000Y-61472560D01*
X174620000Y-61472560D01*
X174372235Y-61521843D01*
X174162191Y-61662191D01*
X174021843Y-61872235D01*
X174001899Y-61972503D01*
X173732862Y-61703466D01*
X173205439Y-61485000D01*
X172634561Y-61485000D01*
X172581698Y-61506897D01*
X171070331Y-59995530D01*
X171027929Y-59932071D01*
X170776537Y-59764096D01*
X170554852Y-59720000D01*
X170554847Y-59720000D01*
X170480000Y-59705112D01*
X170405153Y-59720000D01*
X168837440Y-59720000D01*
X168837440Y-59630000D01*
X168788157Y-59382235D01*
X168647809Y-59172191D01*
X168437765Y-59031843D01*
X168190000Y-58982560D01*
X166490000Y-58982560D01*
X166242235Y-59031843D01*
X166032191Y-59172191D01*
X165891843Y-59382235D01*
X165842560Y-59630000D01*
X165827000Y-59630000D01*
X165827000Y-57685750D01*
X190715000Y-57685750D01*
X190715000Y-57901310D01*
X190811673Y-58134699D01*
X190990302Y-58313327D01*
X191223691Y-58410000D01*
X191664250Y-58410000D01*
X191823000Y-58251250D01*
X191823000Y-57527000D01*
X190873750Y-57527000D01*
X190715000Y-57685750D01*
X165827000Y-57685750D01*
X165827000Y-56898690D01*
X190715000Y-56898690D01*
X190715000Y-57114250D01*
X190873750Y-57273000D01*
X191823000Y-57273000D01*
X191823000Y-56548750D01*
X191664250Y-56390000D01*
X191223691Y-56390000D01*
X190990302Y-56486673D01*
X190811673Y-56665301D01*
X190715000Y-56898690D01*
X165827000Y-56898690D01*
X165827000Y-55027000D01*
X206573311Y-55027000D01*
X206583640Y-59230849D01*
G36*
X203752560Y-61350000D02*
X203801843Y-61597765D01*
X203942191Y-61807809D01*
X204152235Y-61948157D01*
X204255708Y-61968739D01*
X203978355Y-62273076D01*
X203808524Y-62683110D01*
X203929845Y-62913000D01*
X205123000Y-62913000D01*
X205123000Y-62893000D01*
X205377000Y-62893000D01*
X205377000Y-62913000D01*
X205397000Y-62913000D01*
X205397000Y-63167000D01*
X205377000Y-63167000D01*
X205377000Y-65453000D01*
X205397000Y-65453000D01*
X205397000Y-65707000D01*
X205377000Y-65707000D01*
X205377000Y-66900819D01*
X205606892Y-67021486D01*
X206131358Y-66775183D01*
X206521645Y-66346924D01*
X206600655Y-66156164D01*
X206672687Y-95473000D01*
X187951094Y-95473000D01*
X187997440Y-95240000D01*
X187997440Y-93540000D01*
X187948157Y-93292235D01*
X187807809Y-93082191D01*
X187597765Y-92941843D01*
X187350000Y-92892560D01*
X187260000Y-92892560D01*
X187260000Y-90315451D01*
X187497765Y-90268157D01*
X187667031Y-90155057D01*
X187670301Y-90158327D01*
X187903690Y-90255000D01*
X188194250Y-90255000D01*
X188353000Y-90096250D01*
X188353000Y-89147000D01*
X188607000Y-89147000D01*
X188607000Y-90096250D01*
X188765750Y-90255000D01*
X189056310Y-90255000D01*
X189289699Y-90158327D01*
X189468327Y-89979698D01*
X189565000Y-89746309D01*
X189565000Y-89305750D01*
X189406250Y-89147000D01*
X188607000Y-89147000D01*
X188353000Y-89147000D01*
X188333000Y-89147000D01*
X188333000Y-88893000D01*
X188353000Y-88893000D01*
X188353000Y-88873000D01*
X188607000Y-88873000D01*
X188607000Y-88893000D01*
X189406250Y-88893000D01*
X189565000Y-88734250D01*
X189565000Y-88293691D01*
X189468327Y-88060302D01*
X189326680Y-87918654D01*
X189387809Y-87877809D01*
X189528157Y-87667765D01*
X189545614Y-87580000D01*
X192605199Y-87580000D01*
X192652137Y-87626938D01*
X192494097Y-87863463D01*
X192435112Y-88160000D01*
X192494097Y-88456537D01*
X192522560Y-88499135D01*
X192522560Y-89720000D01*
X192571843Y-89967765D01*
X192712191Y-90177809D01*
X192922235Y-90318157D01*
X193170000Y-90367440D01*
X194770000Y-90367440D01*
X195017765Y-90318157D01*
X195227809Y-90177809D01*
X195368157Y-89967765D01*
X195376117Y-89927745D01*
X195641861Y-89927745D01*
X195715995Y-90173864D01*
X196253223Y-90366965D01*
X196823454Y-90339778D01*
X197224005Y-90173864D01*
X197298139Y-89927745D01*
X196470000Y-89099605D01*
X195641861Y-89927745D01*
X195376117Y-89927745D01*
X195414693Y-89733813D01*
X195462255Y-89748139D01*
X196290395Y-88920000D01*
X196649605Y-88920000D01*
X197477745Y-89748139D01*
X197723864Y-89674005D01*
X197916965Y-89136777D01*
X197889778Y-88566546D01*
X197723864Y-88165995D01*
X197477745Y-88091861D01*
X196649605Y-88920000D01*
X196290395Y-88920000D01*
X195462255Y-88091861D01*
X195414693Y-88106187D01*
X195376118Y-87912255D01*
X195641861Y-87912255D01*
X196470000Y-88740395D01*
X197298139Y-87912255D01*
X197224005Y-87666136D01*
X196686777Y-87473035D01*
X196116546Y-87500222D01*
X195715995Y-87666136D01*
X195641861Y-87912255D01*
X195376118Y-87912255D01*
X195368157Y-87872235D01*
X195227809Y-87662191D01*
X195017765Y-87521843D01*
X194770000Y-87472560D01*
X194618483Y-87472560D01*
X194517929Y-87322071D01*
X194454473Y-87279671D01*
X193510331Y-86335530D01*
X193467929Y-86272071D01*
X193216537Y-86104096D01*
X192994852Y-86060000D01*
X192994847Y-86060000D01*
X192920000Y-86045112D01*
X192845153Y-86060000D01*
X189545614Y-86060000D01*
X189528157Y-85972235D01*
X189387809Y-85762191D01*
X189177765Y-85621843D01*
X188930000Y-85572560D01*
X188030000Y-85572560D01*
X187782235Y-85621843D01*
X187602585Y-85741882D01*
X187497765Y-85671843D01*
X187250000Y-85622560D01*
X186350000Y-85622560D01*
X186102235Y-85671843D01*
X185892191Y-85812191D01*
X185784376Y-85973546D01*
X185733327Y-85850302D01*
X185554699Y-85671673D01*
X185321310Y-85575000D01*
X185105750Y-85575000D01*
X184947000Y-85733750D01*
X184947000Y-86683000D01*
X184967000Y-86683000D01*
X184967000Y-86937000D01*
X184947000Y-86937000D01*
X184947000Y-86957000D01*
X184693000Y-86957000D01*
X184693000Y-86937000D01*
X183968750Y-86937000D01*
X183810000Y-87095750D01*
X183810000Y-87536309D01*
X183906673Y-87769698D01*
X183907873Y-87770898D01*
X183846843Y-87862235D01*
X183797560Y-88110000D01*
X183797560Y-89310000D01*
X183846843Y-89557765D01*
X183987191Y-89767809D01*
X184197235Y-89908157D01*
X184445000Y-89957440D01*
X185195000Y-89957440D01*
X185442765Y-89908157D01*
X185652809Y-89767809D01*
X185706139Y-89687995D01*
X185740001Y-89858230D01*
X185740000Y-92892560D01*
X185650000Y-92892560D01*
X185402235Y-92941843D01*
X185192191Y-93082191D01*
X185051843Y-93292235D01*
X185031261Y-93395708D01*
X184726924Y-93118355D01*
X184316890Y-92948524D01*
X184087000Y-93069845D01*
X184087000Y-94263000D01*
X184107000Y-94263000D01*
X184107000Y-94517000D01*
X184087000Y-94517000D01*
X184087000Y-94537000D01*
X183833000Y-94537000D01*
X183833000Y-94517000D01*
X183813000Y-94517000D01*
X183813000Y-94263000D01*
X183833000Y-94263000D01*
X183833000Y-93069845D01*
X183603110Y-92948524D01*
X183193076Y-93118355D01*
X182764817Y-93508642D01*
X182703843Y-93638478D01*
X182490625Y-93319375D01*
X182179714Y-93111631D01*
X182170000Y-93062794D01*
X182170000Y-86083691D01*
X183810000Y-86083691D01*
X183810000Y-86524250D01*
X183968750Y-86683000D01*
X184693000Y-86683000D01*
X184693000Y-85733750D01*
X184534250Y-85575000D01*
X184318690Y-85575000D01*
X184085301Y-85671673D01*
X183906673Y-85850302D01*
X183810000Y-86083691D01*
X182170000Y-86083691D01*
X182170000Y-78907745D01*
X185011861Y-78907745D01*
X185085995Y-79153864D01*
X185623223Y-79346965D01*
X186193454Y-79319778D01*
X186594005Y-79153864D01*
X186668139Y-78907745D01*
X185840000Y-78079605D01*
X185011861Y-78907745D01*
X182170000Y-78907745D01*
X182170000Y-77683223D01*
X184393035Y-77683223D01*
X184420222Y-78253454D01*
X184586136Y-78654005D01*
X184832255Y-78728139D01*
X185660395Y-77900000D01*
X186019605Y-77900000D01*
X186847745Y-78728139D01*
X186895307Y-78713813D01*
X186941843Y-78947765D01*
X187082191Y-79157809D01*
X187292235Y-79298157D01*
X187540000Y-79347440D01*
X189140000Y-79347440D01*
X189387765Y-79298157D01*
X189597809Y-79157809D01*
X189738157Y-78947765D01*
X189787440Y-78700000D01*
X189787440Y-78690000D01*
X192323427Y-78690000D01*
X192422191Y-78837809D01*
X192632235Y-78978157D01*
X192880000Y-79027440D01*
X194080000Y-79027440D01*
X194327765Y-78978157D01*
X194537809Y-78837809D01*
X194580000Y-78774666D01*
X194622191Y-78837809D01*
X194832235Y-78978157D01*
X195080000Y-79027440D01*
X196280000Y-79027440D01*
X196527765Y-78978157D01*
X196737809Y-78837809D01*
X196836573Y-78690000D01*
X197015199Y-78690000D01*
X198222481Y-79897283D01*
X198095000Y-80205050D01*
X198095000Y-80954950D01*
X198381974Y-81647767D01*
X198912233Y-82178026D01*
X199605050Y-82465000D01*
X200354950Y-82465000D01*
X201047767Y-82178026D01*
X201578026Y-81647767D01*
X201865000Y-80954950D01*
X201865000Y-80205050D01*
X201578026Y-79512233D01*
X201047767Y-78981974D01*
X200354950Y-78695000D01*
X199605050Y-78695000D01*
X199297283Y-78822481D01*
X197920331Y-77445530D01*
X197877929Y-77382071D01*
X197626537Y-77214096D01*
X197404852Y-77170000D01*
X197404847Y-77170000D01*
X197330000Y-77155112D01*
X197255153Y-77170000D01*
X196836573Y-77170000D01*
X196737809Y-77022191D01*
X196527765Y-76881843D01*
X196280000Y-76832560D01*
X195080000Y-76832560D01*
X194832235Y-76881843D01*
X194622191Y-77022191D01*
X194580000Y-77085334D01*
X194537809Y-77022191D01*
X194327765Y-76881843D01*
X194080000Y-76832560D01*
X192880000Y-76832560D01*
X192632235Y-76881843D01*
X192422191Y-77022191D01*
X192323427Y-77170000D01*
X189787440Y-77170000D01*
X189787440Y-77100000D01*
X189738157Y-76852235D01*
X189597809Y-76642191D01*
X189387765Y-76501843D01*
X189140000Y-76452560D01*
X187540000Y-76452560D01*
X187292235Y-76501843D01*
X187082191Y-76642191D01*
X186941843Y-76852235D01*
X186895307Y-77086187D01*
X186847745Y-77071861D01*
X186019605Y-77900000D01*
X185660395Y-77900000D01*
X184832255Y-77071861D01*
X184586136Y-77145995D01*
X184393035Y-77683223D01*
X182170000Y-77683223D01*
X182170000Y-76892255D01*
X185011861Y-76892255D01*
X185840000Y-77720395D01*
X186668139Y-76892255D01*
X186594005Y-76646136D01*
X186056777Y-76453035D01*
X185486546Y-76480222D01*
X185085995Y-76646136D01*
X185011861Y-76892255D01*
X182170000Y-76892255D01*
X182170000Y-74234801D01*
X183824803Y-72580000D01*
X192554386Y-72580000D01*
X192571843Y-72667765D01*
X192712191Y-72877809D01*
X192922235Y-73018157D01*
X193170000Y-73067440D01*
X194070000Y-73067440D01*
X194317765Y-73018157D01*
X194527809Y-72877809D01*
X194629266Y-72725969D01*
X194767235Y-72818157D01*
X195015000Y-72867440D01*
X195765000Y-72867440D01*
X196012765Y-72818157D01*
X196222809Y-72677809D01*
X196363157Y-72467765D01*
X196412440Y-72220000D01*
X196412440Y-71020000D01*
X196363157Y-70772235D01*
X196302127Y-70680898D01*
X196303327Y-70679698D01*
X196400000Y-70446309D01*
X196400000Y-70005750D01*
X196241250Y-69847000D01*
X195517000Y-69847000D01*
X195517000Y-69867000D01*
X195263000Y-69867000D01*
X195263000Y-69847000D01*
X195243000Y-69847000D01*
X195243000Y-69593000D01*
X195263000Y-69593000D01*
X195263000Y-69573000D01*
X195517000Y-69573000D01*
X195517000Y-69593000D01*
X196241250Y-69593000D01*
X196400000Y-69434250D01*
X196400000Y-68993691D01*
X196303327Y-68760302D01*
X196229732Y-68686706D01*
X196347809Y-68607809D01*
X196488157Y-68397765D01*
X196527114Y-68201915D01*
X198222481Y-69897283D01*
X198095000Y-70205050D01*
X198095000Y-70954950D01*
X198381974Y-71647767D01*
X198912233Y-72178026D01*
X199220000Y-72305507D01*
X199220001Y-73854493D01*
X198912233Y-73981974D01*
X198381974Y-74512233D01*
X198095000Y-75205050D01*
X198095000Y-75954950D01*
X198381974Y-76647767D01*
X198912233Y-77178026D01*
X199605050Y-77465000D01*
X200354950Y-77465000D01*
X201047767Y-77178026D01*
X201578026Y-76647767D01*
X201865000Y-75954950D01*
X201865000Y-75205050D01*
X201578026Y-74512233D01*
X201047767Y-73981974D01*
X200740000Y-73854493D01*
X200740000Y-72305507D01*
X201047767Y-72178026D01*
X201578026Y-71647767D01*
X201865000Y-70954950D01*
X201865000Y-70205050D01*
X201578026Y-69512233D01*
X201047767Y-68981974D01*
X200354950Y-68695000D01*
X199605050Y-68695000D01*
X199297283Y-68822481D01*
X198446536Y-67971734D01*
X198744126Y-68095000D01*
X199155874Y-68095000D01*
X199536280Y-67937431D01*
X199827431Y-67646280D01*
X199985000Y-67265874D01*
X199985000Y-66854126D01*
X199827431Y-66473720D01*
X199718711Y-66365000D01*
X199814250Y-66365000D01*
X199973000Y-66206250D01*
X199973000Y-65257000D01*
X200227000Y-65257000D01*
X200227000Y-66206250D01*
X200385750Y-66365000D01*
X200676310Y-66365000D01*
X200909699Y-66268327D01*
X201088327Y-66089698D01*
X201151622Y-65936890D01*
X203808524Y-65936890D01*
X203978355Y-66346924D01*
X204368642Y-66775183D01*
X204893108Y-67021486D01*
X205123000Y-66900819D01*
X205123000Y-65707000D01*
X203929845Y-65707000D01*
X203808524Y-65936890D01*
X201151622Y-65936890D01*
X201185000Y-65856309D01*
X201185000Y-65415750D01*
X201026250Y-65257000D01*
X200227000Y-65257000D01*
X199973000Y-65257000D01*
X199953000Y-65257000D01*
X199953000Y-65003000D01*
X199973000Y-65003000D01*
X199973000Y-64983000D01*
X200227000Y-64983000D01*
X200227000Y-65003000D01*
X201026250Y-65003000D01*
X201185000Y-64844250D01*
X201185000Y-64403691D01*
X201088327Y-64170302D01*
X200946680Y-64028654D01*
X201007809Y-63987809D01*
X201148157Y-63777765D01*
X201197440Y-63530000D01*
X201197440Y-63396890D01*
X203808524Y-63396890D01*
X203978355Y-63806924D01*
X204368642Y-64235183D01*
X204527954Y-64310000D01*
X204368642Y-64384817D01*
X203978355Y-64813076D01*
X203808524Y-65223110D01*
X203929845Y-65453000D01*
X205123000Y-65453000D01*
X205123000Y-63167000D01*
X203929845Y-63167000D01*
X203808524Y-63396890D01*
X201197440Y-63396890D01*
X201197440Y-62330000D01*
X201148157Y-62082235D01*
X201007809Y-61872191D01*
X200860000Y-61773427D01*
X200860000Y-61510614D01*
X200947765Y-61493157D01*
X201157809Y-61352809D01*
X201219822Y-61260000D01*
X203752560Y-61260000D01*
X203752560Y-61350000D01*
X203752560Y-61350000D01*
G37*
X203752560Y-61350000D02*
X203801843Y-61597765D01*
X203942191Y-61807809D01*
X204152235Y-61948157D01*
X204255708Y-61968739D01*
X203978355Y-62273076D01*
X203808524Y-62683110D01*
X203929845Y-62913000D01*
X205123000Y-62913000D01*
X205123000Y-62893000D01*
X205377000Y-62893000D01*
X205377000Y-62913000D01*
X205397000Y-62913000D01*
X205397000Y-63167000D01*
X205377000Y-63167000D01*
X205377000Y-65453000D01*
X205397000Y-65453000D01*
X205397000Y-65707000D01*
X205377000Y-65707000D01*
X205377000Y-66900819D01*
X205606892Y-67021486D01*
X206131358Y-66775183D01*
X206521645Y-66346924D01*
X206600655Y-66156164D01*
X206672687Y-95473000D01*
X187951094Y-95473000D01*
X187997440Y-95240000D01*
X187997440Y-93540000D01*
X187948157Y-93292235D01*
X187807809Y-93082191D01*
X187597765Y-92941843D01*
X187350000Y-92892560D01*
X187260000Y-92892560D01*
X187260000Y-90315451D01*
X187497765Y-90268157D01*
X187667031Y-90155057D01*
X187670301Y-90158327D01*
X187903690Y-90255000D01*
X188194250Y-90255000D01*
X188353000Y-90096250D01*
X188353000Y-89147000D01*
X188607000Y-89147000D01*
X188607000Y-90096250D01*
X188765750Y-90255000D01*
X189056310Y-90255000D01*
X189289699Y-90158327D01*
X189468327Y-89979698D01*
X189565000Y-89746309D01*
X189565000Y-89305750D01*
X189406250Y-89147000D01*
X188607000Y-89147000D01*
X188353000Y-89147000D01*
X188333000Y-89147000D01*
X188333000Y-88893000D01*
X188353000Y-88893000D01*
X188353000Y-88873000D01*
X188607000Y-88873000D01*
X188607000Y-88893000D01*
X189406250Y-88893000D01*
X189565000Y-88734250D01*
X189565000Y-88293691D01*
X189468327Y-88060302D01*
X189326680Y-87918654D01*
X189387809Y-87877809D01*
X189528157Y-87667765D01*
X189545614Y-87580000D01*
X192605199Y-87580000D01*
X192652137Y-87626938D01*
X192494097Y-87863463D01*
X192435112Y-88160000D01*
X192494097Y-88456537D01*
X192522560Y-88499135D01*
X192522560Y-89720000D01*
X192571843Y-89967765D01*
X192712191Y-90177809D01*
X192922235Y-90318157D01*
X193170000Y-90367440D01*
X194770000Y-90367440D01*
X195017765Y-90318157D01*
X195227809Y-90177809D01*
X195368157Y-89967765D01*
X195376117Y-89927745D01*
X195641861Y-89927745D01*
X195715995Y-90173864D01*
X196253223Y-90366965D01*
X196823454Y-90339778D01*
X197224005Y-90173864D01*
X197298139Y-89927745D01*
X196470000Y-89099605D01*
X195641861Y-89927745D01*
X195376117Y-89927745D01*
X195414693Y-89733813D01*
X195462255Y-89748139D01*
X196290395Y-88920000D01*
X196649605Y-88920000D01*
X197477745Y-89748139D01*
X197723864Y-89674005D01*
X197916965Y-89136777D01*
X197889778Y-88566546D01*
X197723864Y-88165995D01*
X197477745Y-88091861D01*
X196649605Y-88920000D01*
X196290395Y-88920000D01*
X195462255Y-88091861D01*
X195414693Y-88106187D01*
X195376118Y-87912255D01*
X195641861Y-87912255D01*
X196470000Y-88740395D01*
X197298139Y-87912255D01*
X197224005Y-87666136D01*
X196686777Y-87473035D01*
X196116546Y-87500222D01*
X195715995Y-87666136D01*
X195641861Y-87912255D01*
X195376118Y-87912255D01*
X195368157Y-87872235D01*
X195227809Y-87662191D01*
X195017765Y-87521843D01*
X194770000Y-87472560D01*
X194618483Y-87472560D01*
X194517929Y-87322071D01*
X194454473Y-87279671D01*
X193510331Y-86335530D01*
X193467929Y-86272071D01*
X193216537Y-86104096D01*
X192994852Y-86060000D01*
X192994847Y-86060000D01*
X192920000Y-86045112D01*
X192845153Y-86060000D01*
X189545614Y-86060000D01*
X189528157Y-85972235D01*
X189387809Y-85762191D01*
X189177765Y-85621843D01*
X188930000Y-85572560D01*
X188030000Y-85572560D01*
X187782235Y-85621843D01*
X187602585Y-85741882D01*
X187497765Y-85671843D01*
X187250000Y-85622560D01*
X186350000Y-85622560D01*
X186102235Y-85671843D01*
X185892191Y-85812191D01*
X185784376Y-85973546D01*
X185733327Y-85850302D01*
X185554699Y-85671673D01*
X185321310Y-85575000D01*
X185105750Y-85575000D01*
X184947000Y-85733750D01*
X184947000Y-86683000D01*
X184967000Y-86683000D01*
X184967000Y-86937000D01*
X184947000Y-86937000D01*
X184947000Y-86957000D01*
X184693000Y-86957000D01*
X184693000Y-86937000D01*
X183968750Y-86937000D01*
X183810000Y-87095750D01*
X183810000Y-87536309D01*
X183906673Y-87769698D01*
X183907873Y-87770898D01*
X183846843Y-87862235D01*
X183797560Y-88110000D01*
X183797560Y-89310000D01*
X183846843Y-89557765D01*
X183987191Y-89767809D01*
X184197235Y-89908157D01*
X184445000Y-89957440D01*
X185195000Y-89957440D01*
X185442765Y-89908157D01*
X185652809Y-89767809D01*
X185706139Y-89687995D01*
X185740001Y-89858230D01*
X185740000Y-92892560D01*
X185650000Y-92892560D01*
X185402235Y-92941843D01*
X185192191Y-93082191D01*
X185051843Y-93292235D01*
X185031261Y-93395708D01*
X184726924Y-93118355D01*
X184316890Y-92948524D01*
X184087000Y-93069845D01*
X184087000Y-94263000D01*
X184107000Y-94263000D01*
X184107000Y-94517000D01*
X184087000Y-94517000D01*
X184087000Y-94537000D01*
X183833000Y-94537000D01*
X183833000Y-94517000D01*
X183813000Y-94517000D01*
X183813000Y-94263000D01*
X183833000Y-94263000D01*
X183833000Y-93069845D01*
X183603110Y-92948524D01*
X183193076Y-93118355D01*
X182764817Y-93508642D01*
X182703843Y-93638478D01*
X182490625Y-93319375D01*
X182179714Y-93111631D01*
X182170000Y-93062794D01*
X182170000Y-86083691D01*
X183810000Y-86083691D01*
X183810000Y-86524250D01*
X183968750Y-86683000D01*
X184693000Y-86683000D01*
X184693000Y-85733750D01*
X184534250Y-85575000D01*
X184318690Y-85575000D01*
X184085301Y-85671673D01*
X183906673Y-85850302D01*
X183810000Y-86083691D01*
X182170000Y-86083691D01*
X182170000Y-78907745D01*
X185011861Y-78907745D01*
X185085995Y-79153864D01*
X185623223Y-79346965D01*
X186193454Y-79319778D01*
X186594005Y-79153864D01*
X186668139Y-78907745D01*
X185840000Y-78079605D01*
X185011861Y-78907745D01*
X182170000Y-78907745D01*
X182170000Y-77683223D01*
X184393035Y-77683223D01*
X184420222Y-78253454D01*
X184586136Y-78654005D01*
X184832255Y-78728139D01*
X185660395Y-77900000D01*
X186019605Y-77900000D01*
X186847745Y-78728139D01*
X186895307Y-78713813D01*
X186941843Y-78947765D01*
X187082191Y-79157809D01*
X187292235Y-79298157D01*
X187540000Y-79347440D01*
X189140000Y-79347440D01*
X189387765Y-79298157D01*
X189597809Y-79157809D01*
X189738157Y-78947765D01*
X189787440Y-78700000D01*
X189787440Y-78690000D01*
X192323427Y-78690000D01*
X192422191Y-78837809D01*
X192632235Y-78978157D01*
X192880000Y-79027440D01*
X194080000Y-79027440D01*
X194327765Y-78978157D01*
X194537809Y-78837809D01*
X194580000Y-78774666D01*
X194622191Y-78837809D01*
X194832235Y-78978157D01*
X195080000Y-79027440D01*
X196280000Y-79027440D01*
X196527765Y-78978157D01*
X196737809Y-78837809D01*
X196836573Y-78690000D01*
X197015199Y-78690000D01*
X198222481Y-79897283D01*
X198095000Y-80205050D01*
X198095000Y-80954950D01*
X198381974Y-81647767D01*
X198912233Y-82178026D01*
X199605050Y-82465000D01*
X200354950Y-82465000D01*
X201047767Y-82178026D01*
X201578026Y-81647767D01*
X201865000Y-80954950D01*
X201865000Y-80205050D01*
X201578026Y-79512233D01*
X201047767Y-78981974D01*
X200354950Y-78695000D01*
X199605050Y-78695000D01*
X199297283Y-78822481D01*
X197920331Y-77445530D01*
X197877929Y-77382071D01*
X197626537Y-77214096D01*
X197404852Y-77170000D01*
X197404847Y-77170000D01*
X197330000Y-77155112D01*
X197255153Y-77170000D01*
X196836573Y-77170000D01*
X196737809Y-77022191D01*
X196527765Y-76881843D01*
X196280000Y-76832560D01*
X195080000Y-76832560D01*
X194832235Y-76881843D01*
X194622191Y-77022191D01*
X194580000Y-77085334D01*
X194537809Y-77022191D01*
X194327765Y-76881843D01*
X194080000Y-76832560D01*
X192880000Y-76832560D01*
X192632235Y-76881843D01*
X192422191Y-77022191D01*
X192323427Y-77170000D01*
X189787440Y-77170000D01*
X189787440Y-77100000D01*
X189738157Y-76852235D01*
X189597809Y-76642191D01*
X189387765Y-76501843D01*
X189140000Y-76452560D01*
X187540000Y-76452560D01*
X187292235Y-76501843D01*
X187082191Y-76642191D01*
X186941843Y-76852235D01*
X186895307Y-77086187D01*
X186847745Y-77071861D01*
X186019605Y-77900000D01*
X185660395Y-77900000D01*
X184832255Y-77071861D01*
X184586136Y-77145995D01*
X184393035Y-77683223D01*
X182170000Y-77683223D01*
X182170000Y-76892255D01*
X185011861Y-76892255D01*
X185840000Y-77720395D01*
X186668139Y-76892255D01*
X186594005Y-76646136D01*
X186056777Y-76453035D01*
X185486546Y-76480222D01*
X185085995Y-76646136D01*
X185011861Y-76892255D01*
X182170000Y-76892255D01*
X182170000Y-74234801D01*
X183824803Y-72580000D01*
X192554386Y-72580000D01*
X192571843Y-72667765D01*
X192712191Y-72877809D01*
X192922235Y-73018157D01*
X193170000Y-73067440D01*
X194070000Y-73067440D01*
X194317765Y-73018157D01*
X194527809Y-72877809D01*
X194629266Y-72725969D01*
X194767235Y-72818157D01*
X195015000Y-72867440D01*
X195765000Y-72867440D01*
X196012765Y-72818157D01*
X196222809Y-72677809D01*
X196363157Y-72467765D01*
X196412440Y-72220000D01*
X196412440Y-71020000D01*
X196363157Y-70772235D01*
X196302127Y-70680898D01*
X196303327Y-70679698D01*
X196400000Y-70446309D01*
X196400000Y-70005750D01*
X196241250Y-69847000D01*
X195517000Y-69847000D01*
X195517000Y-69867000D01*
X195263000Y-69867000D01*
X195263000Y-69847000D01*
X195243000Y-69847000D01*
X195243000Y-69593000D01*
X195263000Y-69593000D01*
X195263000Y-69573000D01*
X195517000Y-69573000D01*
X195517000Y-69593000D01*
X196241250Y-69593000D01*
X196400000Y-69434250D01*
X196400000Y-68993691D01*
X196303327Y-68760302D01*
X196229732Y-68686706D01*
X196347809Y-68607809D01*
X196488157Y-68397765D01*
X196527114Y-68201915D01*
X198222481Y-69897283D01*
X198095000Y-70205050D01*
X198095000Y-70954950D01*
X198381974Y-71647767D01*
X198912233Y-72178026D01*
X199220000Y-72305507D01*
X199220001Y-73854493D01*
X198912233Y-73981974D01*
X198381974Y-74512233D01*
X198095000Y-75205050D01*
X198095000Y-75954950D01*
X198381974Y-76647767D01*
X198912233Y-77178026D01*
X199605050Y-77465000D01*
X200354950Y-77465000D01*
X201047767Y-77178026D01*
X201578026Y-76647767D01*
X201865000Y-75954950D01*
X201865000Y-75205050D01*
X201578026Y-74512233D01*
X201047767Y-73981974D01*
X200740000Y-73854493D01*
X200740000Y-72305507D01*
X201047767Y-72178026D01*
X201578026Y-71647767D01*
X201865000Y-70954950D01*
X201865000Y-70205050D01*
X201578026Y-69512233D01*
X201047767Y-68981974D01*
X200354950Y-68695000D01*
X199605050Y-68695000D01*
X199297283Y-68822481D01*
X198446536Y-67971734D01*
X198744126Y-68095000D01*
X199155874Y-68095000D01*
X199536280Y-67937431D01*
X199827431Y-67646280D01*
X199985000Y-67265874D01*
X199985000Y-66854126D01*
X199827431Y-66473720D01*
X199718711Y-66365000D01*
X199814250Y-66365000D01*
X199973000Y-66206250D01*
X199973000Y-65257000D01*
X200227000Y-65257000D01*
X200227000Y-66206250D01*
X200385750Y-66365000D01*
X200676310Y-66365000D01*
X200909699Y-66268327D01*
X201088327Y-66089698D01*
X201151622Y-65936890D01*
X203808524Y-65936890D01*
X203978355Y-66346924D01*
X204368642Y-66775183D01*
X204893108Y-67021486D01*
X205123000Y-66900819D01*
X205123000Y-65707000D01*
X203929845Y-65707000D01*
X203808524Y-65936890D01*
X201151622Y-65936890D01*
X201185000Y-65856309D01*
X201185000Y-65415750D01*
X201026250Y-65257000D01*
X200227000Y-65257000D01*
X199973000Y-65257000D01*
X199953000Y-65257000D01*
X199953000Y-65003000D01*
X199973000Y-65003000D01*
X199973000Y-64983000D01*
X200227000Y-64983000D01*
X200227000Y-65003000D01*
X201026250Y-65003000D01*
X201185000Y-64844250D01*
X201185000Y-64403691D01*
X201088327Y-64170302D01*
X200946680Y-64028654D01*
X201007809Y-63987809D01*
X201148157Y-63777765D01*
X201197440Y-63530000D01*
X201197440Y-63396890D01*
X203808524Y-63396890D01*
X203978355Y-63806924D01*
X204368642Y-64235183D01*
X204527954Y-64310000D01*
X204368642Y-64384817D01*
X203978355Y-64813076D01*
X203808524Y-65223110D01*
X203929845Y-65453000D01*
X205123000Y-65453000D01*
X205123000Y-63167000D01*
X203929845Y-63167000D01*
X203808524Y-63396890D01*
X201197440Y-63396890D01*
X201197440Y-62330000D01*
X201148157Y-62082235D01*
X201007809Y-61872191D01*
X200860000Y-61773427D01*
X200860000Y-61510614D01*
X200947765Y-61493157D01*
X201157809Y-61352809D01*
X201219822Y-61260000D01*
X203752560Y-61260000D01*
X203752560Y-61350000D01*
G04 #@! TD*
M02*
